<svg width="1000" height="1000" viewBox="0 0 1000 1000" xmlns="http://www.w3.org/2000/svg">
  <!-- Hand-drawn doodle border -->
  <defs>
    <filter id="roughen">
      <feTurbulence type="fractalNoise" baseFrequency="0.05" numOctaves="2" result="noise"/>
      <feDisplacementMap in="SourceGraphic" in2="noise" scale="3" xChannelSelector="R" yChannelSelector="G"/>
    </filter>
  </defs>

  <!-- Outer doodle border -->
  <path d="M 50 80 Q 30 50 60 40 T 150 35 T 250 38 T 350 35 T 450 38 T 550 35 T 650 38 T 750 35 T 850 38 T 940 45 Q 970 55 960 90 T 965 180 T 963 280 T 965 380 T 963 480 T 965 580 T 963 680 T 965 780 T 963 880 Q 960 920 930 940 T 850 955 T 750 958 T 650 955 T 550 958 T 450 955 T 350 958 T 250 955 T 150 958 T 60 950 Q 35 935 45 900 T 38 820 T 35 720 T 38 620 T 35 520 T 38 420 T 35 320 T 38 220 T 35 120 Z"
        fill="none"
        stroke="#8B4513"
        stroke-width="8"
        stroke-linecap="round"
        filter="url(#roughen)"/>

  <!-- Inner squiggly line -->
  <path d="M 80 100 Q 85 90 90 100 T 110 100 T 130 100 T 150 100 T 170 100 T 190 100 T 210 100 T 230 100 T 250 100 T 270 100 T 290 100 T 310 100 T 330 100 T 350 100 T 370 100 T 390 100 T 410 100 T 430 100 T 450 100 T 470 100 T 490 100 T 510 100 T 530 100 T 550 100 T 570 100 T 590 100 T 610 100 T 630 100 T 650 100 T 670 100 T 690 100 T 710 100 T 730 100 T 750 100 T 770 100 T 790 100 T 810 100 T 830 100 T 850 100 T 870 100 T 890 100 Q 900 100 905 110 T 910 130 T 910 150 T 910 170 T 910 190 T 910 210 T 910 230 T 910 250 T 910 270 T 910 290 T 910 310 T 910 330 T 910 350 T 910 370 T 910 390 T 910 410 T 910 430 T 910 450 T 910 470 T 910 490 T 910 510 T 910 530 T 910 550 T 910 570 T 910 590 T 910 610 T 910 630 T 910 650 T 910 670 T 910 690 T 910 710 T 910 730 T 910 750 T 910 770 T 910 790 T 910 810 T 910 830 T 910 850 T 910 870 T 910 890 Q 905 900 890 905 T 870 910 T 850 910 T 830 910 T 810 910 T 790 910 T 770 910 T 750 910 T 730 910 T 710 910 T 690 910 T 670 910 T 650 910 T 630 910 T 610 910 T 590 910 T 570 910 T 550 910 T 530 910 T 510 910 T 490 910 T 470 910 T 450 910 T 430 910 T 410 910 T 390 910 T 370 910 T 350 910 T 330 910 T 310 910 T 290 910 T 270 910 T 250 910 T 230 910 T 210 910 T 190 910 T 170 910 T 150 910 T 130 910 T 110 910 Q 95 905 90 890 T 85 870 T 85 850 T 85 830 T 85 810 T 85 790 T 85 770 T 85 750 T 85 730 T 85 710 T 85 690 T 85 670 T 85 650 T 85 630 T 85 610 T 85 590 T 85 570 T 85 550 T 85 530 T 85 510 T 85 490 T 85 470 T 85 450 T 85 430 T 85 410 T 85 390 T 85 370 T 85 350 T 85 330 T 85 310 T 85 290 T 85 270 T 85 250 T 85 230 T 85 210 T 85 190 T 85 170 T 85 150 T 85 130 T 85 110 Z"
        fill="none"
        stroke="#D2691E"
        stroke-width="4"
        stroke-dasharray="10,5"
        stroke-linecap="round"
        filter="url(#roughen)"/>

  <!-- Scattered doodles in corners -->
  <!-- Top left star -->
  <path d="M 70 70 L 75 85 L 90 85 L 78 93 L 82 108 L 70 98 L 58 108 L 62 93 L 50 85 L 65 85 Z"
        fill="#FFD700"
        stroke="#8B4513"
        stroke-width="2"
        filter="url(#roughen)"/>

  <!-- Top right heart -->
  <path d="M 930 70 C 930 60 920 55 915 55 C 910 55 905 60 905 65 C 905 60 900 55 895 55 C 890 55 880 60 880 70 C 880 85 905 100 905 100 C 905 100 930 85 930 70 Z"
        fill="#FF69B4"
        stroke="#8B4513"
        stroke-width="2"
        filter="url(#roughen)"/>

  <!-- Bottom left circle swirl -->
  <circle cx="70" cy="930" r="15"
          fill="none"
          stroke="#4169E1"
          stroke-width="3"
          filter="url(#roughen)"/>
  <circle cx="70" cy="930" r="8"
          fill="none"
          stroke="#4169E1"
          stroke-width="2"
          filter="url(#roughen)"/>

  <!-- Bottom right squiggle -->
  <path d="M 920 920 Q 925 910 930 920 T 940 920"
        fill="none"
        stroke="#32CD32"
        stroke-width="4"
        stroke-linecap="round"
        filter="url(#roughen)"/>
  <path d="M 915 930 Q 920 940 925 930 T 935 930"
        fill="none"
        stroke="#32CD32"
        stroke-width="4"
        stroke-linecap="round"
        filter="url(#roughen)"/>
</svg>
