<?xml version="1.0" encoding="iso-8859-1"?>
<!-- Generator: Adobe Illustrator 27.9.0, SVG Export Plug-In . SVG Version: 6.00 Build 0)  -->
<svg version="1.1" id="shapes" xmlns="http://www.w3.org/2000/svg" xmlns:xlink="http://www.w3.org/1999/xlink" x="0px" y="0px"
	 width="150px" height="150px" viewBox="0 0 150 150" enable-background="new 0 0 150 150" xml:space="preserve">
<g>
	<rect x="120" y="70" transform="matrix(-1.836970e-16 1 -1 -1.836970e-16 200 -50)" width="10" height="10"/>
	<rect x="100" y="70" transform="matrix(-1.836970e-16 1 -1 -1.836970e-16 180 -30)" width="10" height="10"/>
	<rect x="80" y="70" transform="matrix(-1.836970e-16 1 -1 -1.836970e-16 160 -10)" width="10" height="10"/>
	<rect x="60" y="70" transform="matrix(-1.836970e-16 1 -1 -1.836970e-16 140 10)" width="10" height="10"/>
	<rect x="40" y="70" transform="matrix(-1.836970e-16 1 -1 -1.836970e-16 120 30)" width="10" height="10"/>
	<rect x="20" y="70" transform="matrix(-1.836970e-16 1 -1 -1.836970e-16 100 50)" width="10" height="10"/>
	<rect x="110" y="80" transform="matrix(-1.836970e-16 1 -1 -1.836970e-16 200 -30)" width="10" height="10"/>
	<rect x="100" y="90" transform="matrix(-1.836970e-16 1 -1 -1.836970e-16 200 -10)" width="10" height="10"/>
	<rect x="90" y="100" transform="matrix(-1.836970e-16 1 -1 -1.836970e-16 200 10)" width="10" height="10"/>
	<rect x="90" y="40" transform="matrix(-1.836970e-16 1 -1 -1.836970e-16 140 -50)" width="10" height="10"/>
	<rect x="110" y="60" transform="matrix(-1.836970e-16 1 -1 -1.836970e-16 180 -50)" width="10" height="10"/>
	<rect x="100" y="50" transform="matrix(-1.836970e-16 1 -1 -1.836970e-16 160 -50)" width="10" height="10"/>
</g>
</svg>
