<?xml version="1.0" encoding="iso-8859-1"?>
<!-- Generator: Adobe Illustrator 27.9.0, SVG Export Plug-In . SVG Version: 6.00 Build 0)  -->
<svg version="1.1" id="shapes" xmlns="http://www.w3.org/2000/svg" xmlns:xlink="http://www.w3.org/1999/xlink" x="0px" y="0px"
	 width="150px" height="150px" viewBox="0 0 150 150" enable-background="new 0 0 150 150" xml:space="preserve">
<g>
	<rect x="91.378" y="50.444" width="0.477" height="0.477"/>
	<rect x="92.331" y="51.874" width="0.477" height="0.477"/>
	<rect x="91.854" y="50.921" width="0.477" height="0.954"/>
	<polygon points="88.04,53.781 88.04,54.258 88.517,54.258 88.517,54.735 88.993,54.735 88.993,55.212 89.47,55.212 89.47,55.689 
		89.947,55.689 89.947,56.166 90.901,56.166 90.901,56.642 91.378,56.642 91.378,57.119 91.854,57.119 91.854,57.596 92.808,57.596 
		92.808,57.119 92.331,57.119 92.331,56.642 91.854,56.642 91.854,56.166 91.378,56.166 91.378,55.689 90.424,55.689 90.424,54.735 
		89.947,54.735 89.947,54.258 88.993,54.258 88.993,53.781 88.517,53.781 88.517,53.305 88.04,53.305 88.04,52.828 87.563,52.828 
		87.563,53.781 	"/>
	<rect x="96.623" y="58.55" width="0.477" height="0.477"/>
	<polygon points="86.133,51.874 86.609,51.874 86.609,52.351 87.086,52.351 87.086,52.828 87.563,52.828 87.563,51.874 
		87.086,51.874 87.086,51.397 86.133,51.397 	"/>
	<rect x="84.702" y="48.536" width="0.477" height="0.477"/>
	<polygon points="86.133,49.013 86.133,48.536 85.656,48.536 85.656,49.49 86.133,49.49 86.133,49.967 86.609,49.967 86.609,49.013 
			"/>
	<rect x="85.179" y="49.49" width="0.477" height="0.477"/>
	<rect x="82.795" y="44.245" width="0.477" height="0.477"/>
	<rect x="85.656" y="50.921" width="0.477" height="0.477"/>
	<polygon points="107.589,63.795 107.589,62.841 106.636,62.841 106.636,63.318 107.113,63.318 107.113,63.795 	"/>
	<rect x="112.834" y="90.497" width="0.477" height="0.477"/>
	<rect x="113.788" y="91.927" width="0.477" height="0.477"/>
	<rect x="114.265" y="88.113" width="0.477" height="1.43"/>
	<polygon points="113.311,91.45 112.834,91.45 112.834,91.927 112.358,91.927 112.358,92.404 113.311,92.404 	"/>
	<rect x="102.344" y="49.013" width="0.477" height="0.477"/>
	<rect x="115.695" y="62.841" width="0.477" height="0.477"/>
	<rect x="115.695" y="64.748" width="0.477" height="0.477"/>
	<rect x="114.742" y="87.636" width="0.477" height="0.477"/>
	<rect x="108.543" y="60.457" width="0.477" height="0.477"/>
	<rect x="114.742" y="86.205" width="0.477" height="0.954"/>
	<rect x="94.715" y="56.166" width="0.477" height="0.477"/>
	<rect x="115.219" y="85.252" width="0.477" height="0.954"/>
	<rect x="101.391" y="49.967" width="0.477" height="0.477"/>
	<rect x="100.914" y="49.49" width="0.477" height="0.477"/>
	<path d="M102.821,50.444v1.907h0.477v0.477h0.477v1.43h0.477v0.477h-0.477v0.477h0.954v1.43h0.477v0.954h0.477v-0.477h0.477v0.477
		h-0.477v1.907h0.477v0.477h0.477v0.954h0.477v0.477h0.477v0.954h0.477v0.477h0.477v1.907h0.477v0.954h0.477v1.907h0.954v-0.954
		h-0.477v-2.384h-0.477v-1.43h-0.477v-0.954h-0.954v-0.477h0.477v-0.477h-0.954v-0.477h0.477V59.98h-0.477v-0.954h-0.477v-1.907
		h-0.477v-1.43h-0.477v-1.43h-0.477v-0.477h-0.477v-1.43h-0.477v-0.477h-0.477v-0.954h-0.477v-0.954h-0.477v0.477H102.821z
		 M105.682,55.212v0.477h-0.477v-0.477H105.682z M104.729,54.258h0.477v0.477h-0.477V54.258z"/>
	<rect x="100.437" y="47.583" width="0.477" height="0.954"/>
	<rect x="101.868" y="50.444" width="0.477" height="1.43"/>
	<rect x="100.914" y="48.536" width="0.477" height="0.477"/>
	<rect x="102.821" y="49.49" width="0.477" height="0.477"/>
	<rect x="86.609" y="49.967" width="0.477" height="0.477"/>
	<polygon points="106.159,61.887 106.159,60.934 105.682,60.934 105.682,60.457 105.205,60.457 105.205,59.98 104.729,59.98 
		104.729,60.934 105.205,60.934 105.205,61.411 105.682,61.411 105.682,61.887 	"/>
	<polygon points="104.252,59.503 104.252,59.027 103.298,59.027 103.298,58.55 102.821,58.55 102.821,58.073 102.344,58.073 
		102.344,59.027 102.821,59.027 102.821,59.503 103.298,59.503 103.298,59.98 104.729,59.98 104.729,59.503 	"/>
	<rect x="88.04" y="57.119" width="0.477" height="0.477"/>
	<path d="M92.808,97.649v0.477h-0.954v-0.477h-0.954v-0.477h-2.384v-0.477h1.907v-0.477h0.477v0.477h0.954v0.477h0.954v-0.954
		h-0.954v-0.477h-3.338v0.477h-0.954v-0.954h-0.477v-0.477h-0.954v-0.477h-2.384v0.477h-0.954v-0.954h1.907v-0.477h0.477v-0.477
		h0.477v-0.477h0.477V91.45h0.477v-0.954h0.477V90.02h0.954v-0.477h0.477v-0.477h0.477v-0.477h0.477v-0.477h0.477v-0.477h0.477
		v-0.954h-0.477v-0.477H89.47v-0.477h-0.477v-0.477h-0.477v-0.954H88.04v-0.477h-0.477v-0.954h0.954v-0.477H88.04v-0.954h-0.477
		V79.53h-0.477v-5.245h-0.477v-2.384h-0.477V69.04h-0.477v-0.477h0.477v-1.43h-0.477v-0.477h0.477v-3.338h-0.477v-0.954h-0.477
		v-0.477h-0.477v-1.431h-0.477V59.98h-0.954v-0.954h-1.43V58.55h-0.477v-0.477h-0.954v-0.477h-1.907v-0.477h-1.43v-0.477h-0.477
		v0.477h-0.477v-0.477h-0.477v-0.477h-1.907v-0.477h-0.477v0.477h-0.477v-0.477h0.477v-0.477h0.954v0.477h0.477v-0.477h0.477v0.477
		h2.384v0.477h0.954v0.477h1.43v0.477h0.954v0.477h0.477v-0.477h0.477v0.954h0.954v0.477h0.477v0.477h0.477v0.477h0.954v0.477h0.954
		v0.477h0.954v-0.954h-0.954v-0.477h-0.954v-0.954h-0.477v0.477h-0.477v-0.477h-0.477v-0.477h0.477v-0.477h-0.477v-0.477h-0.477
		v0.477h-0.477v-0.477h-0.954v-0.477h-0.477v-0.477h-0.477v-0.477h-0.477v-0.477h0.477v0.477h0.954v-0.477h-0.477v-0.477h-0.477
		v-0.477h-0.477v-0.954h0.477v0.477h0.477v0.954h0.954v0.477h0.477v0.477h0.477v0.477h0.954v0.477h0.477v0.477h0.477v-0.954h-0.477
		v-0.477h-0.477v-0.477h-0.477v-0.477h-0.477v-0.477h-0.477v-0.477h-0.477v-0.954h-0.477v-0.477h0.477v-0.954h-0.477v-0.954h-0.477
		v-0.954h-0.477V48.06h-0.477v-0.954h-0.477v-0.477H78.98v-0.954h-0.477v-0.954h-0.477v-0.477h0.477v0.477h0.477v0.954h0.477v0.954
		h0.477v0.477h0.477v-0.954h-0.477v-0.954h-0.477v-1.43H78.98v-0.477h-0.477v0.477H77.55v-0.477H20v63.417h64.702v-0.477h2.384
		v-0.477h1.43v-0.477h0.954v-0.477h0.477v-0.477h0.954v-0.954h-4.291v-0.477h-0.477v-0.477h-0.477v-0.477h-0.477v-0.477h-0.477
		v-0.477h-0.477v-0.477h-0.477v0.477h-0.477v-0.477h0.477v-0.477h0.477v0.477h0.954v0.477h1.43v-0.477h0.477v0.477h0.477v-0.477
		h0.477v-0.477h0.954v-0.477h0.954v-0.477h0.477v-0.477h1.431v0.477h0.477v-0.477h0.954v0.477h0.477v-0.477h0.477v0.477h0.477
		v-0.477h0.477v-0.954H92.808z M78.98,51.874h0.477v0.477H78.98V51.874z M78.027,52.351h0.477v0.477h-0.477V52.351z M76.119,49.49
		h0.477v0.477h0.477v0.954h0.477v0.954h-0.477v-0.954h-0.477v-0.954h-0.477V49.49z M75.642,48.536h-0.477V48.06h-0.477v-1.43h0.477
		v1.43h0.477V48.536z M74.689,44.722h0.477v0.477h-0.477V44.722z M74.212,45.675h0.477v0.477h-0.477V45.675z M74.689,61.887h0.477
		v0.477h-0.477V61.887z M75.166,68.086v0.477h-0.477v0.954h-1.43v0.477h-0.954v-0.477h-0.477v0.477h-0.954v-0.477h0.477V69.04h0.477
		v-0.477h0.477v-1.43h1.43v0.477h0.954v0.477H75.166z M70.874,55.212h1.43v0.477h-0.477v0.477h-0.477v-0.477h-0.477V55.212z
		 M69.921,54.735h0.477v0.954h-0.477V54.735z M66.583,59.026h0.477V58.55h0.477v0.477h0.477V58.55h0.477v0.477h1.43v0.477h0.954
		v0.477h0.954v0.477h0.477v0.477h1.43v0.477h0.477v0.954h-0.954v-0.477h-0.477v0.477h-0.477v-0.477h-0.954v-0.477h-1.43v-0.477
		h-0.954v-0.477h-0.954V59.98h-0.477v-0.477h-0.954V59.026z M80.411,78.099h-0.477v1.431h-0.477v0.477h0.477v0.954h-0.477v1.43
		H78.98v1.43h-0.477v1.431h-0.477v0.477h0.477v2.384h0.477v0.477h0.477v0.954h0.477v1.43h-0.477v0.954H78.98v0.477h-0.954v0.477
		h-2.384v0.477h-3.338v0.477h-1.43v-0.477h-0.477v-0.477h-0.954v0.477h-0.477v-0.477h0.477v-0.477h-0.477v-0.477H68.49v-0.954
		h-0.477v-0.477h-0.477V90.02H67.06v-0.477h0.477v-0.477H67.06v-0.954h-0.477v-0.477h0.477v-0.954h-0.477v-0.954h-0.477v-0.477
		h0.477v-0.477h-0.477v-0.954h-0.477v-1.43h-0.954v-2.384h-0.477V79.53h-0.477v-0.477h0.477v-0.477h-0.477v-0.477h0.477v0.477h0.477
		v-1.43h0.477v-0.477h1.43v-0.477h1.43v-0.477h0.477v0.477h0.477v-0.477h0.954v-0.477h0.477v0.477h0.954v-0.477h3.338v-0.477h0.477
		v0.477h0.954v0.477h0.477v0.477h1.43v0.477h0.477v-0.477h1.43v0.477h0.477V78.099z M80.411,70.47h-0.477v0.477h-1.43V70.47h0.477
		v-3.338h0.954v2.861h0.477V70.47z M82.318,100.033h-0.477v-0.477h0.477V100.033z M82.318,94.788h-0.477v0.477h-0.477v-0.477h0.477
		v-0.477h0.477V94.788z M84.702,102.894h0.954v0.477h-0.954V102.894z"/>
	<rect x="78.503" y="79.053" width="0.477" height="0.477"/>
	<rect x="88.993" y="64.272" width="0.477" height="0.477"/>
	<polygon points="96.623,71.901 94.715,71.901 94.715,72.854 95.669,72.854 95.669,73.331 96.623,73.331 96.623,72.854 
		97.099,72.854 97.099,72.377 96.623,72.377 	"/>
	<polygon points="82.318,56.166 82.318,55.689 81.841,55.689 81.841,55.212 81.364,55.212 81.364,56.166 	"/>
	<rect x="83.748" y="57.596" width="0.477" height="0.477"/>
	<rect x="82.318" y="56.166" width="0.477" height="0.477"/>
	<polygon points="88.517,60.934 88.517,60.457 87.563,60.457 87.563,59.98 87.086,59.98 87.086,60.457 86.609,60.457 86.609,60.934 
			"/>
	<polygon points="88.993,61.411 88.993,61.887 90.424,61.887 90.424,61.411 89.47,61.411 89.47,60.934 88.517,60.934 88.517,61.411 
			"/>
	<rect x="92.808" y="66.656" width="0.477" height="0.954"/>
	<rect x="101.391" y="71.424" width="0.477" height="0.954"/>
	<polygon points="108.066,100.987 108.543,100.987 108.543,100.033 108.066,100.033 108.066,100.51 107.589,100.51 107.589,101.464 
		108.066,101.464 	"/>
	<rect x="111.881" y="93.834" width="0.477" height="0.954"/>
	<rect x="119.987" y="68.563" width="0.477" height="0.477"/>
	<path d="M117.603,43.291v1.43h0.477v1.43h0.477v1.907h0.477v1.43h0.477v0.477h-0.477v0.477h0.477v2.384h0.477v2.861h0.477v2.384
		h0.477v0.954h-0.477v0.477h0.477v8.106h-0.954v0.477h0.954v1.43h-0.477v0.954h0.477v0.477h-0.477V70.47h-0.477v0.954h0.477v0.477
		h-0.477v-0.477h-0.477v0.954h0.954v3.338h-0.477v0.477h0.477v0.477h-0.477v2.384h-0.477v0.477h0.477v0.477h-0.477v1.907h-0.477
		v0.477h-0.477v-0.477h0.477v-1.907h0.477V79.53h-0.477v-0.477h0.477v-2.384h0.477v-0.477h-0.477v-0.477h0.477v-2.861h-0.477v2.384
		h-0.477v3.338h-0.477v1.43h-0.477v2.384h-0.477v2.384h-0.477v1.907h-0.477v1.907h-0.477v1.43h-0.477v0.954h-0.477v1.43h-0.477
		v0.954h-0.477v0.954h-0.477v1.43h-0.477v0.477h-0.477v-0.954h0.477v-1.43h0.477v-0.477h-0.954v-0.477h-0.477v0.954h0.477v0.954
		h-0.477v0.477h-0.954v1.43h-0.477v0.954h-0.477v0.954h-0.477v1.43h-0.477v0.954h-0.477v0.477h-0.477v0.954h-0.477v0.954h-0.954
		v0.477h-0.477v0.477h-0.477v-0.954h0.477v-0.477h0.477v-0.477h0.477v-0.954h-0.954v0.477h-0.477v0.477h-0.477v0.477h-0.477v0.477
		h-0.477v0.954h-0.954v0.954h-0.954v0.477h-0.477v0.477h-0.477v-0.954h0.954v-0.477h0.477v-0.477h0.477v-0.477h0.477v-0.477h-0.954
		v0.477h-0.954v-0.954h0.954v-0.477h0.477v-0.477h0.477v-0.477h0.477v-0.954h-0.954v0.477h-0.477v0.477h-0.954v0.477h-0.477v0.477
		h-0.477v0.954h-0.477v1.43h-0.477v1.43h-0.954v-0.477h0.477v-0.477h-0.954v0.954h-0.954v0.477h8.583v-0.477h0.477v-0.477h0.954
		v-0.477h1.907v0.477h1.43v0.477h0.477v0.477H130V43.291H117.603z M118.556,84.775h-0.477v-0.477h0.477V84.775z M119.033,83.821
		h-0.477v-0.954h0.477V83.821z"/>
	<rect x="90.424" y="61.887" width="0.477" height="0.477"/>
	<path d="M98.053,71.901v0.477h2.384v-0.477h-0.954v-0.477h0.477V70.47h0.477v-1.43h0.954v0.477h0.477v0.477h0.477v0.477h0.477
		v0.477h-0.477v0.477h0.477v0.954h0.477v-0.477h0.477v-0.477h0.477v0.954h0.477v-1.43h0.477v0.477h0.477v-0.477h0.954V70.47h0.477
		v0.954h-0.477v0.477h0.477v0.477h-0.477v0.477h0.477v1.907h0.477v0.477h-0.477v0.954h0.477v6.199h-0.477v1.907h-0.477v0.954h-0.477
		v0.477h0.477v0.477h-0.477v0.954h-0.477v1.43h-0.477v0.954h-0.477v1.43h-0.477v0.954h-0.477v1.43h0.477v-0.954h0.477v0.477h0.477
		v-0.954h0.477V91.45h0.477v-1.43h0.477v-1.907h0.477v-0.954h0.477v-1.907h0.477v-0.477h0.477v-1.43h0.477v-0.954h0.477v-1.43h0.477
		v-0.954h0.477v-3.815h-0.477v-2.384h0.477v-0.477h-0.477v-0.477h0.477v-1.43h-0.477v-0.477h0.477v-0.954h-0.477v-1.43h-0.477
		v-0.477h-0.477v-0.477h-0.477v-0.954h-0.477v0.954h-0.477v0.477h0.477v0.477h-0.477v-0.477h-0.477v-0.477h0.477v-0.477h-0.477
		v-0.477h0.477v-0.477h-0.477v-0.477h-0.477v-0.477h-0.477v-0.477h-0.477v-0.477h-0.477v-0.477h-0.477v-0.477h-0.954v-0.477h-0.477
		v-0.477h-0.477v-0.477h-0.954v-0.954h-0.954v-0.477h-0.477V59.98H99.96v-0.477h-0.954v-0.477h-1.43v0.477h-0.477v0.954h-0.477
		v0.954h-0.477v-0.954h-0.954v1.907h-0.477v1.43h0.477v0.477h-0.477v0.477h-0.477v0.477h-0.477v0.954h0.477v-0.477h0.954v0.477
		h-0.477v0.954h-0.477v0.954h-0.477v0.954h-0.477v0.477h0.477v0.477h-0.477v1.43h3.815v0.477H98.053z M99.007,69.04H98.53v-0.477
		h0.477V69.04z M102.821,67.609h-0.477v-0.477h-0.477v-0.477h0.954V67.609z M97.576,61.887h0.477v0.477h0.477v0.477h0.477v-0.477
		h0.954v0.477h0.477v-0.477h0.477v0.477h0.954v0.477h0.954v0.477h0.954v0.477h0.477v0.477h0.477v0.954h0.477v0.477h0.477v0.477
		h-0.954v-0.477h-0.954v-0.477h-0.954v-0.477h-3.815v-0.477H98.53v-0.477h-0.477v-0.954h0.477v-0.477h-0.477v-0.477h-0.477V61.887z"
		/>
	<rect x="110.45" y="75.715" width="0.477" height="0.477"/>
	<rect x="96.146" y="59.98" width="0.477" height="0.477"/>
	<rect x="93.285" y="66.179" width="0.477" height="0.477"/>
	<rect x="100.437" y="72.377" width="0.477" height="0.477"/>
	<polygon points="87.563,55.689 87.563,55.212 87.086,55.212 87.086,54.735 86.609,54.735 86.609,53.781 86.133,53.781 
		86.133,53.305 85.656,53.305 85.656,52.351 85.179,52.351 85.179,51.874 84.702,51.874 84.702,50.444 83.748,50.444 83.748,51.397 
		84.225,51.397 84.225,52.351 84.702,52.351 84.702,53.305 85.179,53.305 85.179,54.258 85.656,54.258 85.656,55.212 86.133,55.212 
		86.133,55.689 86.609,55.689 86.609,56.166 87.563,56.166 87.563,57.119 88.04,57.119 88.04,55.689 	"/>
	<rect x="90.901" y="88.113" width="0.477" height="0.477"/>
	<polygon points="83.272,49.49 83.272,49.013 82.795,49.013 82.795,49.967 83.272,49.967 83.272,50.444 83.748,50.444 83.748,49.49 
			"/>
	<rect x="90.424" y="88.589" width="0.477" height="0.477"/>
	<rect x="82.318" y="48.536" width="0.477" height="0.477"/>
	<rect x="81.841" y="48.06" width="0.477" height="0.477"/>
	<rect x="91.378" y="62.364" width="0.954" height="0.477"/>
	<polygon points="91.854,72.377 91.854,69.517 90.901,69.517 90.901,69.993 91.378,69.993 91.378,70.947 90.901,70.947 
		90.901,71.424 91.378,71.424 91.378,72.377 	"/>
	<rect x="81.841" y="44.245" width="0.477" height="0.477"/>
	<polygon points="82.795,43.768 83.272,43.768 83.272,44.245 83.748,44.245 83.748,44.722 83.272,44.722 83.272,45.676 
		84.225,45.676 84.225,46.152 83.748,46.152 83.748,46.629 84.702,46.629 84.702,48.06 85.179,48.06 85.179,48.536 85.656,48.536 
		85.656,48.06 86.133,48.06 86.133,48.536 86.609,48.536 86.609,49.013 87.086,49.013 87.086,49.967 87.563,49.967 87.563,50.444 
		87.086,50.444 87.086,51.397 87.563,51.397 87.563,50.921 88.04,50.921 88.04,51.397 88.517,51.397 88.517,52.351 88.993,52.351 
		88.993,52.828 89.47,52.828 89.47,53.305 89.947,53.305 89.947,53.781 90.424,53.781 90.424,54.258 91.378,54.258 91.378,55.212 
		91.854,55.212 91.854,55.689 92.331,55.689 92.331,56.166 92.808,56.166 92.808,56.642 93.285,56.642 93.285,57.119 93.762,57.119 
		93.762,57.596 94.238,57.596 94.238,58.073 95.669,58.073 95.669,58.55 96.623,58.55 96.623,58.073 96.146,58.073 96.146,57.596 
		95.669,57.596 95.669,57.119 94.238,57.119 94.238,55.212 93.762,55.212 93.762,55.689 93.285,55.689 93.285,55.212 93.762,55.212 
		93.762,54.258 92.808,54.258 92.808,53.305 92.331,53.305 92.331,52.828 91.854,52.828 91.854,51.874 91.378,51.874 91.378,51.397 
		90.901,51.397 90.901,49.967 90.424,49.967 90.424,49.49 90.901,49.49 90.901,49.013 90.424,49.013 90.424,48.536 89.47,48.536 
		89.47,46.629 88.993,46.629 88.993,48.06 88.517,48.06 88.517,47.106 88.04,47.106 88.04,46.152 87.563,46.152 87.563,46.629 
		87.086,46.629 87.086,46.152 86.609,46.152 86.609,45.676 87.086,45.676 87.086,46.152 87.563,46.152 87.563,44.722 87.086,44.722 
		87.086,43.768 86.609,43.768 86.609,43.291 85.179,43.291 85.179,43.768 85.656,43.768 85.656,44.245 85.179,44.245 85.179,43.768 
		84.702,43.768 84.702,43.291 82.318,43.291 82.318,44.245 82.795,44.245 	"/>
	<rect x="92.808" y="63.318" width="1.43" height="0.477"/>
	<rect x="82.795" y="47.583" width="0.477" height="0.477"/>
	<rect x="80.411" y="44.722" width="0.477" height="0.477"/>
	<rect x="82.318" y="45.199" width="0.477" height="0.477"/>
	<rect x="80.887" y="43.291" width="0.954" height="0.477"/>
	<rect x="79.934" y="43.768" width="0.477" height="0.477"/>
	<rect x="82.318" y="47.106" width="0.477" height="0.477"/>
	<rect x="81.364" y="46.629" width="0.477" height="0.954"/>
	<rect x="80.887" y="45.676" width="0.477" height="0.954"/>
	<rect x="80.411" y="47.583" width="0.477" height="0.477"/>
	<rect x="86.133" y="50.444" width="0.477" height="0.477"/>
</g>
</svg>
