<?xml version="1.0" encoding="iso-8859-1"?>
<!-- Generator: Adobe Illustrator 27.9.0, SVG Export Plug-In . SVG Version: 6.00 Build 0)  -->
<svg version="1.1" id="shapes" xmlns="http://www.w3.org/2000/svg" xmlns:xlink="http://www.w3.org/1999/xlink" x="0px" y="0px"
	 width="150px" height="150px" viewBox="0 0 150 150" enable-background="new 0 0 150 150" xml:space="preserve">
<g>
	<path d="M30.184,74.965c1.742,0.123,3.411-0.146,4.98-0.794c2.192-0.912,4.701-0.409,6.388,1.275
		c1.683,1.681,2.182,4.189,1.275,6.388c-0.524,1.264-0.799,2.604-0.822,3.986c-0.09,5.495,4.078,10.362,9.488,11.078
		c3.223,0.422,6.322-0.507,8.738-2.624c2.39-2.094,3.76-5.109,3.76-8.272c0-1.444-0.277-2.845-0.823-4.168
		c-0.907-2.199-0.408-4.706,1.275-6.388c1.681-1.681,4.192-2.184,6.386-1.275c2.649,1.094,5.69,1.094,8.342,0
		c2.202-0.907,4.705-0.404,6.386,1.275c1.684,1.688,2.18,4.196,1.27,6.392c-0.521,1.262-0.797,2.6-0.82,3.966
		c-0.097,5.505,4.074,10.379,9.493,11.094c3.225,0.419,6.324-0.512,8.74-2.629c2.388-2.094,3.757-5.107,3.757-8.268
		c0-1.444-0.277-2.845-0.823-4.168c-0.907-2.199-0.408-4.706,1.275-6.388c1.681-1.678,4.189-2.182,6.384-1.277
		c1.326,0.548,2.724,0.825,4.168,0.825c0.27,0,0.54-0.01,0.814-0.03c4.908-0.345,9.11-4.076,9.992-8.868
		c0.673-3.668-0.431-7.265-3.032-9.866c-2.601-2.603-6.203-3.709-9.868-3.035c-4.793,0.881-8.524,5.083-8.869,9.992
		c-0.123,1.734,0.144,3.408,0.794,4.978c0.907,2.198,0.408,4.706-1.275,6.388c-1.68,1.68-4.187,2.182-6.381,1.277
		c-2.659-1.097-5.693-1.095-8.342-0.002c-2.22,0.905-4.718,0.399-6.391-1.277c-1.68-1.68-2.179-4.187-1.272-6.386
		c0.524-1.264,0.799-2.604,0.822-3.984c0.09-5.495-4.078-10.362-9.488-11.078c-3.21-0.424-6.325,0.507-8.743,2.626
		c-2.388,2.094-3.759,5.107-3.759,8.268c0,1.442,0.277,2.845,0.823,4.171c0.909,2.197,0.408,4.705-1.277,6.388
		c-1.678,1.675-4.183,2.177-6.378,1.275c-2.655-1.097-5.697-1.097-8.345-0.003c-2.161,0.892-4.733,0.378-6.386-1.275
		c-1.684-1.688-2.18-4.196-1.27-6.392c0.647-1.568,0.915-3.238,0.794-4.96c-0.342-4.919-4.076-9.125-8.877-10.004
		c-3.67-0.676-7.265,0.434-9.865,3.035c-2.6,2.601-3.703,6.198-3.028,9.866C21.076,70.891,25.277,74.62,30.184,74.965z"/>
</g>
</svg>
