<?xml version="1.0" encoding="iso-8859-1"?>
<!-- Generator: Adobe Illustrator 27.9.0, SVG Export Plug-In . SVG Version: 6.00 Build 0)  -->
<svg version="1.1" id="shapes" xmlns="http://www.w3.org/2000/svg" xmlns:xlink="http://www.w3.org/1999/xlink" x="0px" y="0px"
	 width="150px" height="150px" viewBox="0 0 150 150" enable-background="new 0 0 150 150" xml:space="preserve">
<g>
	<rect x="51.723" y="69.232" width="0.412" height="0.412"/>
	<polygon points="62.846,57.697 62.846,56.873 62.434,56.873 62.434,57.285 62.022,57.285 62.022,58.109 62.434,58.109 
		62.434,57.697 	"/>
	<polygon points="51.723,65.936 52.135,65.936 52.135,65.112 51.723,65.112 51.723,64.7 51.311,64.7 51.311,65.524 51.723,65.524 	
		"/>
	<rect x="50.487" y="57.285" width="0.412" height="0.412"/>
	<rect x="69.85" y="69.232" width="0.412" height="0.412"/>
	<polygon points="105.281,79.12 105.693,79.12 105.693,79.532 105.281,79.532 105.281,79.944 105.693,79.944 105.693,80.356 
		105.281,80.356 105.281,79.944 104.457,79.944 104.457,80.356 104.045,80.356 104.045,79.532 102.397,79.532 102.397,79.12 
		102.809,79.12 102.809,78.708 101.985,78.708 101.985,78.296 102.397,78.296 102.397,77.884 101.573,77.884 101.573,77.472 
		100.749,77.472 100.749,77.06 100.337,77.06 100.337,77.884 101.161,77.884 101.161,78.296 100.749,78.296 100.749,78.708 
		101.573,78.708 101.573,79.532 101.985,79.532 101.985,79.944 102.397,79.944 102.397,81.18 102.809,81.18 102.809,80.768 
		103.633,80.768 103.633,81.18 104.045,81.18 104.045,81.592 104.457,81.592 104.457,81.18 104.869,81.18 104.869,82.004 
		105.693,82.004 105.693,82.416 106.105,82.416 106.105,82.828 106.517,82.828 106.517,82.416 106.929,82.416 106.929,82.004 
		107.341,82.004 107.341,82.416 106.929,82.416 106.929,82.828 108.165,82.828 108.165,84.064 108.577,84.064 108.577,83.652 
		109.813,83.652 109.813,83.24 109.401,83.24 109.401,82.828 109.813,82.828 109.813,83.24 110.225,83.24 110.225,83.652 
		110.637,83.652 110.637,82.828 110.225,82.828 110.225,82.416 110.637,82.416 110.637,82.004 110.225,82.004 110.225,81.592 
		109.813,81.592 109.813,82.004 109.401,82.004 109.401,81.18 108.989,81.18 108.989,80.768 108.577,80.768 108.577,81.18 
		108.165,81.18 108.165,79.944 107.753,79.944 107.753,80.356 106.929,80.356 106.929,79.944 107.753,79.944 107.753,79.532 
		106.517,79.532 106.517,79.12 106.929,79.12 106.929,78.708 105.281,78.708 	"/>
	<rect x="62.434" y="58.109" width="0.412" height="0.412"/>
	<rect x="56.667" y="69.644" width="0.412" height="0.412"/>
	<rect x="48.427" y="62.64" width="0.412" height="0.412"/>
	<rect x="49.251" y="56.873" width="0.824" height="0.412"/>
	<rect x="62.846" y="56.461" width="0.412" height="0.412"/>
	<rect x="45.131" y="56.461" width="0.412" height="0.412"/>
	<rect x="71.498" y="73.764" width="0.412" height="0.412"/>
	<rect x="49.663" y="57.697" width="0.412" height="0.412"/>
	<polygon points="48.427,57.697 48.839,57.697 48.839,56.873 49.251,56.873 49.251,56.461 48.015,56.461 48.015,56.873 
		48.427,56.873 	"/>
	<path d="M55.843,67.172h0.412v-0.824h0.412v-0.412h0.412v-0.824h0.824v-0.824h-0.412v-0.412h0.824v-0.824h-0.412V62.64h0.412
		v-0.412h0.824v-0.412h-0.824v-0.412h0.824v-0.412h-0.412v-1.236h0.412v-0.412h-0.412v-0.412h-1.236v0.412h-0.412v-0.412h-0.412
		v0.412h-0.412v1.236h0.412v0.412h-0.412v-0.412h-0.412v0.412h-0.824v0.412h0.412v0.412h-0.412v0.412h-0.412v0.412h0.824v0.412
		h-0.824v0.824h0.412v0.412h0.412V64.7h0.412v0.412h-0.412V64.7h-0.412v0.824h0.412v0.412h-0.412v0.412h0.412v0.412h0.412V67.172z
		 M57.903,59.345h0.412v0.412h-0.412V59.345z"/>
	<polygon points="47.603,57.697 48.015,57.697 48.015,56.873 47.603,56.873 47.603,56.461 47.191,56.461 47.191,56.873 
		46.367,56.873 46.367,57.285 47.603,57.285 	"/>
	<rect x="51.723" y="64.288" width="0.412" height="0.412"/>
	<rect x="52.959" y="56.049" width="0.824" height="0.412"/>
	<rect x="53.783" y="57.697" width="0.412" height="0.412"/>
	<rect x="60.375" y="64.7" width="0.412" height="0.412"/>
	<rect x="62.022" y="65.524" width="0.412" height="0.412"/>
	<rect x="54.195" y="56.873" width="1.236" height="0.412"/>
	<rect x="55.019" y="57.697" width="0.412" height="1.236"/>
	<rect x="55.431" y="56.461" width="0.412" height="0.412"/>
	<polygon points="44.307,57.285 45.131,57.285 45.131,56.873 44.719,56.873 44.719,56.461 44.307,56.461 44.307,55.637 
		43.895,55.637 43.895,56.873 44.307,56.873 	"/>
	<rect x="59.551" y="67.584" width="0.824" height="0.412"/>
	<rect x="51.723" y="56.873" width="0.412" height="0.412"/>
	<rect x="50.899" y="67.172" width="0.412" height="0.412"/>
	<rect x="51.311" y="66.76" width="0.412" height="0.412"/>
	<rect x="63.258" y="57.285" width="0.412" height="0.824"/>
	<polygon points="50.899,66.76 51.311,66.76 51.311,66.348 51.723,66.348 51.723,65.936 50.899,65.936 	"/>
	<rect x="52.135" y="64.7" width="0.412" height="0.412"/>
	<rect x="55.843" y="72.116" width="0.412" height="0.412"/>
	<rect x="62.022" y="58.521" width="0.412" height="0.412"/>
	<rect x="59.139" y="65.112" width="0.412" height="0.412"/>
	<rect x="52.547" y="57.285" width="0.412" height="0.412"/>
	<rect x="83.858" y="58.109" width="0.412" height="0.412"/>
	<rect x="100.749" y="75.824" width="0.412" height="0.412"/>
	<rect x="84.27" y="58.521" width="0.824" height="0.412"/>
	<rect x="85.094" y="63.052" width="0.412" height="0.412"/>
	<rect x="84.682" y="57.697" width="0.412" height="0.412"/>
	<rect x="83.858" y="54.813" width="0.412" height="0.412"/>
	<rect x="85.094" y="66.76" width="0.412" height="0.412"/>
	<rect x="83.034" y="53.989" width="0.412" height="0.412"/>
	<rect x="82.622" y="51.929" width="0.412" height="0.412"/>
	<rect x="101.161" y="76.236" width="0.412" height="0.412"/>
	<rect x="62.022" y="56.049" width="0.412" height="0.412"/>
	<rect x="82.21" y="53.989" width="0.412" height="0.412"/>
	<rect x="83.034" y="58.521" width="0.412" height="0.412"/>
	<rect x="86.33" y="62.228" width="0.412" height="0.824"/>
	<rect x="82.21" y="51.517" width="0.412" height="0.412"/>
	<rect x="83.446" y="51.105" width="0.412" height="0.412"/>
	<rect x="42.659" y="65.112" width="0.412" height="0.412"/>
	<rect x="42.659" y="64.288" width="0.412" height="0.412"/>
	<rect x="84.27" y="51.929" width="0.412" height="0.412"/>
	<rect x="90.861" y="67.584" width="0.824" height="0.412"/>
	<rect x="29.476" y="63.464" width="0.412" height="0.412"/>
	<rect x="85.506" y="58.109" width="0.412" height="0.412"/>
	<rect x="85.506" y="61.816" width="0.412" height="0.412"/>
	<rect x="96.217" y="72.94" width="0.412" height="0.412"/>
	<rect x="83.858" y="51.517" width="0.412" height="0.412"/>
	<rect x="85.094" y="61.404" width="0.412" height="0.412"/>
	<rect x="85.918" y="61.404" width="0.412" height="0.412"/>
	<rect x="42.247" y="65.524" width="0.412" height="0.824"/>
	<rect x="80.562" y="51.517" width="0.412" height="0.824"/>
	<rect x="80.562" y="58.933" width="0.412" height="0.412"/>
	<rect x="66.554" y="55.637" width="0.412" height="0.412"/>
	<rect x="65.73" y="55.225" width="0.412" height="0.412"/>
	<rect x="66.966" y="56.049" width="0.412" height="0.412"/>
	<rect x="67.378" y="54.813" width="0.412" height="0.824"/>
	<rect x="68.202" y="55.225" width="0.412" height="0.412"/>
	<rect x="64.082" y="54.813" width="0.412" height="0.824"/>
	<rect x="64.906" y="55.225" width="0.412" height="0.824"/>
	<rect x="104.869" y="79.12" width="0.412" height="0.412"/>
	<rect x="63.67" y="55.637" width="0.412" height="0.412"/>
	<rect x="104.457" y="78.708" width="0.412" height="0.412"/>
	<rect x="69.026" y="54.813" width="0.412" height="0.412"/>
	<rect x="64.494" y="56.049" width="0.412" height="0.824"/>
	<rect x="65.73" y="56.049" width="0.412" height="0.412"/>
	<rect x="73.558" y="53.577" width="0.412" height="0.412"/>
	<polygon points="74.382,54.401 74.794,54.401 74.794,53.989 75.206,53.989 75.206,54.813 75.618,54.813 75.618,54.401 
		76.03,54.401 76.03,54.813 76.442,54.813 76.442,55.225 76.854,55.225 76.854,54.401 77.266,54.401 77.266,54.813 78.502,54.813 
		78.502,54.401 78.914,54.401 78.914,53.989 77.678,53.989 77.678,53.165 77.266,53.165 77.266,53.989 76.854,53.989 76.854,52.753 
		76.442,52.753 76.442,53.165 76.03,53.165 76.03,52.341 75.618,52.341 75.618,52.753 75.206,52.753 75.206,53.165 74.382,53.165 
		74.382,52.753 73.97,52.753 73.97,53.577 74.382,53.577 	"/>
	<rect x="79.326" y="54.401" width="0.824" height="0.412"/>
	<rect x="78.914" y="53.577" width="0.412" height="0.412"/>
	<rect x="77.678" y="55.225" width="0.412" height="0.412"/>
	<rect x="78.09" y="53.165" width="0.412" height="0.412"/>
	<rect x="69.438" y="64.288" width="0.412" height="0.412"/>
	<rect x="70.674" y="54.401" width="0.412" height="0.412"/>
	<rect x="72.322" y="53.989" width="0.412" height="0.412"/>
	<rect x="100.749" y="76.648" width="0.412" height="0.412"/>
	<rect x="69.026" y="53.989" width="0.412" height="0.412"/>
	<rect x="70.262" y="53.989" width="0.412" height="0.412"/>
	<rect x="45.131" y="58.109" width="0.412" height="0.412"/>
	<rect x="120.524" y="61.404" width="0.412" height="0.412"/>
	<rect x="65.73" y="74.176" width="0.412" height="0.412"/>
	<rect x="66.142" y="71.292" width="0.412" height="0.412"/>
	<rect x="64.906" y="71.704" width="0.412" height="0.412"/>
	<rect x="43.071" y="75.412" width="0.412" height="0.412"/>
	<rect x="66.554" y="70.88" width="0.412" height="0.412"/>
	<rect x="65.73" y="67.584" width="0.412" height="0.412"/>
	<rect x="58.727" y="72.94" width="0.412" height="0.412"/>
	<rect x="33.596" y="64.7" width="0.412" height="0.412"/>
	<rect x="31.124" y="63.876" width="0.412" height="0.412"/>
	<rect x="65.318" y="67.172" width="0.412" height="0.412"/>
	<rect x="30.712" y="60.993" width="0.412" height="0.412"/>
	<rect x="36.891" y="65.524" width="0.412" height="0.412"/>
	<rect x="41.423" y="72.94" width="0.412" height="0.412"/>
	<rect x="56.667" y="72.116" width="0.412" height="0.412"/>
	<rect x="56.255" y="70.056" width="0.412" height="0.412"/>
	<rect x="31.124" y="61.816" width="0.412" height="0.412"/>
	<rect x="84.682" y="60.581" width="0.412" height="0.412"/>
	<rect x="43.895" y="76.648" width="0.412" height="0.412"/>
	<rect x="84.27" y="60.169" width="0.412" height="0.412"/>
	<rect x="84.27" y="60.993" width="0.412" height="0.412"/>
	<rect x="123.408" y="79.532" width="0.412" height="0.412"/>
	<rect x="82.622" y="62.64" width="0.824" height="0.412"/>
	<rect x="82.622" y="61.816" width="0.412" height="0.412"/>
	<rect x="83.034" y="64.7" width="0.412" height="0.824"/>
	<rect x="65.318" y="66.348" width="0.412" height="0.412"/>
	<rect x="65.73" y="66.76" width="0.412" height="0.412"/>
	<rect x="66.142" y="67.172" width="0.412" height="0.412"/>
	<rect x="77.678" y="60.993" width="0.412" height="0.412"/>
	<rect x="82.21" y="58.521" width="0.412" height="0.412"/>
	<rect x="80.974" y="59.757" width="0.412" height="0.412"/>
	<rect x="123.82" y="79.944" width="0.412" height="0.412"/>
	<rect x="43.483" y="59.757" width="0.412" height="0.412"/>
	<rect x="43.071" y="64.7" width="0.412" height="0.412"/>
	<rect x="50.075" y="70.468" width="0.412" height="0.412"/>
	<rect x="44.307" y="58.109" width="0.412" height="0.412"/>
	<rect x="45.543" y="57.697" width="0.412" height="0.412"/>
	<rect x="43.895" y="58.521" width="0.412" height="0.412"/>
	<rect x="42.659" y="55.225" width="0.412" height="0.412"/>
	<rect x="30.3" y="60.581" width="0.412" height="0.412"/>
	<rect x="20" y="60.993" width="0.412" height="0.412"/>
	<rect x="20.824" y="64.288" width="0.412" height="0.412"/>
	<rect x="23.708" y="66.76" width="0.412" height="0.412"/>
	<rect x="34.831" y="52.341" width="0.824" height="0.412"/>
	<rect x="41.835" y="55.225" width="0.412" height="0.412"/>
	<rect x="38.951" y="53.165" width="0.412" height="0.412"/>
	<rect x="43.071" y="61.816" width="0.412" height="0.412"/>
	<rect x="57.903" y="65.112" width="0.824" height="0.824"/>
	<rect x="58.315" y="63.876" width="0.412" height="0.824"/>
	<rect x="59.139" y="58.933" width="0.412" height="0.412"/>
	<rect x="59.139" y="59.757" width="0.412" height="0.412"/>
	<rect x="57.079" y="69.232" width="0.412" height="0.412"/>
	<rect x="29.064" y="59.757" width="0.412" height="0.412"/>
	<rect x="52.959" y="68.82" width="0.412" height="0.412"/>
	<rect x="58.727" y="68.408" width="0.412" height="0.412"/>
	<rect x="55.843" y="57.285" width="0.412" height="0.824"/>
	<rect x="55.431" y="60.169" width="0.412" height="0.412"/>
	<rect x="56.667" y="57.697" width="0.412" height="0.412"/>
	<rect x="54.607" y="65.524" width="0.412" height="0.412"/>
	<rect x="56.255" y="56.873" width="0.412" height="0.412"/>
	<rect x="56.255" y="58.109" width="0.412" height="0.824"/>
	<rect x="42.247" y="89.419" width="0.412" height="0.412"/>
	<rect x="71.498" y="65.112" width="0.412" height="0.412"/>
	<polygon points="72.322,65.524 72.734,65.524 72.734,65.936 72.322,65.936 72.322,66.348 72.734,66.348 72.734,67.172 
		73.146,67.172 73.146,67.584 73.558,67.584 73.558,66.76 73.97,66.76 73.97,67.172 74.382,67.172 74.382,66.76 74.794,66.76 
		74.794,66.348 73.558,66.348 73.558,65.936 74.382,65.936 74.382,65.524 73.97,65.524 73.97,64.7 73.558,64.7 73.558,65.524 
		73.146,65.524 73.146,64.7 72.734,64.7 72.734,64.288 73.146,64.288 73.146,64.7 73.558,64.7 73.558,63.876 72.734,63.876 
		72.734,63.052 72.322,63.052 72.322,64.288 71.498,64.288 71.498,64.7 72.322,64.7 	"/>
	<rect x="55.431" y="77.06" width="0.412" height="0.412"/>
	<rect x="49.663" y="82.416" width="0.412" height="0.412"/>
	<polygon points="75.206,72.528 74.794,72.528 74.794,72.116 74.382,72.116 74.382,72.94 75.206,72.94 	"/>
	<rect x="70.262" y="72.94" width="0.412" height="0.412"/>
	<rect x="72.322" y="73.764" width="0.412" height="0.412"/>
	<rect x="76.03" y="68.82" width="0.412" height="0.412"/>
	<rect x="44.719" y="87.36" width="0.412" height="0.412"/>
	<rect x="43.071" y="87.772" width="0.412" height="0.412"/>
	<rect x="48.839" y="83.24" width="0.412" height="0.412"/>
	<polygon points="76.442,67.996 76.442,68.82 77.266,68.82 77.266,67.584 76.854,67.584 76.854,67.996 	"/>
	<rect x="74.794" y="73.764" width="0.412" height="0.412"/>
	<rect x="44.719" y="86.536" width="0.412" height="0.412"/>
	<path d="M73.97,64.288h0.412v-0.412h0.412v0.412h-0.412v0.824h0.412v0.412h0.412v0.412h-0.412v0.412h1.236v1.236h0.824v-0.412
		h-0.412V66.76h0.412v0.412h0.412v-0.824h-0.412v-0.824h-0.412v-0.412h0.412V64.7H76.03v-0.824h0.412v-0.412H76.03v-1.236h-0.412
		v0.412h-0.824v-0.412h-0.412v0.412H73.97v0.824h-0.412v0.412h0.412V64.288z M74.382,63.052h0.412v0.412h-0.412V63.052z"/>
	<rect x="43.071" y="56.873" width="0.824" height="0.412"/>
	<rect x="34.007" y="97.659" width="0.412" height="0.412"/>
	<rect x="64.494" y="89.831" width="0.412" height="0.412"/>
	<rect x="45.543" y="86.536" width="0.412" height="0.412"/>
	<rect x="33.184" y="98.483" width="0.412" height="0.412"/>
	<rect x="36.891" y="52.753" width="0.412" height="0.412"/>
	<rect x="28.652" y="53.577" width="0.412" height="0.412"/>
	<rect x="71.498" y="86.124" width="0.412" height="0.412"/>
	<rect x="77.266" y="71.704" width="0.412" height="0.412"/>
	<rect x="74.382" y="93.127" width="0.412" height="0.412"/>
	<rect x="77.678" y="71.292" width="0.824" height="0.412"/>
	<rect x="61.199" y="78.708" width="0.412" height="0.412"/>
	<rect x="66.142" y="90.655" width="0.412" height="0.412"/>
	<rect x="75.206" y="74.588" width="0.412" height="0.412"/>
	<rect x="85.506" y="69.232" width="0.412" height="0.412"/>
	<rect x="82.622" y="64.288" width="0.412" height="0.412"/>
	<polygon points="81.798,64.288 82.622,64.288 82.622,63.876 82.21,63.876 82.21,63.464 81.798,63.464 	"/>
	<rect x="82.21" y="65.112" width="0.412" height="0.412"/>
	<rect x="82.622" y="65.524" width="0.412" height="0.824"/>
	<rect x="80.974" y="62.64" width="0.412" height="0.412"/>
	<rect x="81.386" y="63.052" width="0.412" height="0.412"/>
	<rect x="127.116" y="83.24" width="0.412" height="0.412"/>
	<rect x="85.094" y="68.82" width="0.412" height="0.412"/>
	<rect x="84.27" y="67.996" width="1.236" height="0.412"/>
	<rect x="82.622" y="66.76" width="0.412" height="0.412"/>
	<rect x="85.506" y="68.408" width="0.412" height="0.412"/>
	<rect x="87.154" y="57.697" width="0.412" height="0.412"/>
	<rect x="76.442" y="63.876" width="0.412" height="0.412"/>
	<polygon points="83.446,66.76 83.446,67.172 83.858,67.172 83.858,66.348 83.034,66.348 83.034,66.76 	"/>
	<polygon points="83.446,67.584 83.446,67.996 84.27,67.996 84.27,67.172 83.858,67.172 83.858,67.584 	"/>
	<rect x="40.599" y="90.655" width="0.412" height="0.412"/>
	<rect x="77.266" y="64.288" width="0.412" height="0.412"/>
	<rect x="78.09" y="65.936" width="0.412" height="0.412"/>
	<rect x="78.914" y="65.936" width="0.412" height="0.412"/>
	<path d="M76.854,62.64h-0.412v0.412h0.412v0.412h0.412v0.412h0.412v0.412h0.824v0.824H78.09v0.412h0.412v0.412h0.412v-0.824h0.412
		V64.7h-0.412v-0.412h0.412V64.7h0.412v-0.412h0.412v0.824h-0.412v0.412h0.824v0.412h0.824v-0.412h-0.412v-0.412h0.824V64.7h-0.824
		v-0.412h0.412v-0.412h-0.824V62.64H80.15v-0.412h-0.412v-0.412h0.412v-0.412h-0.824v-0.412h-0.412v-0.412h-0.412v0.824H78.09v0.412
		h-0.412v-0.412h-0.412v-0.412h-0.412v0.824h-0.412v-0.412H76.03v0.824h0.824V62.64z M78.914,63.464h0.412v0.412h-0.412V63.464z"/>
	<rect x="42.247" y="87.772" width="0.412" height="0.824"/>
	<rect x="41.835" y="88.596" width="0.412" height="0.412"/>
	<rect x="36.479" y="86.536" width="0.412" height="0.412"/>
	<rect x="31.948" y="91.479" width="0.412" height="0.412"/>
	<rect x="82.21" y="63.052" width="0.412" height="0.412"/>
	<path d="M130,91.067v-0.412h-1.236v0.412h-0.412v-0.412h0.412v-1.648h-0.824V87.36h-0.412v-0.412h-0.412v-1.236h-0.824v-1.236
		h-0.412v-0.412h-0.412v-1.236h-0.824v-1.236h-0.412v0.412h-0.412V81.18h-0.824v-0.412h0.412v-0.412h-0.412v-0.412h-0.412v0.412
		h-0.412v-0.824h-1.236V79.12h-0.412v0.412H119.7v-0.824h-0.412v0.412h-0.412v-0.412h-0.412v-0.412h-0.412v0.824h-0.824v-0.412
		h-0.824v-0.824h-1.236v-0.412h0.412V77.06h-0.824v-0.412h-0.412v-0.412h-0.824v-0.412h0.412V75h-0.412v-0.824h1.236v-0.412h-1.236
		v-0.412h0.412V72.94h0.412v-0.412h-0.412v-0.824h0.412v-0.412h-0.412v-0.824h-0.412v-0.412h0.412V68.82h-0.412v-0.412h-0.412V66.76
		h-0.412v0.824h-0.412v-0.412h-0.412v0.824h-0.412v0.824h0.412v0.412h-0.412v0.412h0.824v0.412h-0.412v0.412h0.412v0.412h-0.412
		v0.412h0.824v0.412h0.412v0.412h-0.412v-0.412h-0.412v2.06h-0.412v-0.412h-0.412v1.236h0.412V75h0.412v1.236h0.412v-0.412h0.412
		v0.824h0.412v0.412h0.412v0.412h0.824v1.236h0.824v-0.412h0.412v0.412h-0.412v1.236h0.824v0.412h-1.236v-0.824h-1.236V79.12h-0.824
		v-0.412h-0.412v0.412h-0.412v-0.412h-0.824v-0.824h-0.412v0.412h-0.412v-0.412h-0.824V77.06h-0.412v0.412h-0.412V77.06h-0.412
		v-0.412h0.412v-0.412h-1.236v-0.412h-0.412v-1.236h-0.824v-1.236h-0.412V72.94h0.412v-0.412h-0.412v-0.412h-0.412v-0.412h0.412
		v0.412h0.824v-0.412h-0.412v-0.412h0.412v0.412h0.412v-0.412h0.412v0.824h0.412v0.412h0.412v0.412h0.412v-0.412h0.412v0.412h0.824
		v-0.412h-0.412v-0.412h-1.236v-0.412h0.824v-0.412h-1.236v-0.824h-0.824v-1.236h-0.412v0.412h-0.412V68.82h-0.824v-0.412h0.824
		v-0.412h-0.824v-0.412h0.412v-0.412h-0.412v-0.824h-0.412v-0.824h-0.412v0.412h-0.412v0.412h-0.412v-0.412h0.412v-0.412h-0.824
		v0.412h-0.412v-0.412h-0.412v-0.412h-0.412v0.824h-0.824v-0.412h-0.412v0.412h-0.412v-0.412h-0.824v0.412h-0.412v0.412h0.412v0.412
		h-1.236v-0.412h-0.412v1.236h0.412v-0.412h0.412v1.648h0.824v0.412h-0.412v0.412h-0.412V68.82h-0.412v0.824h-0.412v0.412h-0.412
		v-0.412h0.412v-0.412h-0.412V68.82h-0.412v0.412h-0.412V68.82h-0.412v-0.412h0.412v-0.412h-0.824v-0.412h-0.412v-0.412h-0.412
		V66.76h-0.412v-0.412h0.412v-0.412h-0.824v0.412h-0.412v-0.824h-0.412v0.412h-0.412v0.412h0.412v0.412h0.412v0.412h-0.824v-0.824
		h-0.412v0.412h-0.412v0.412h-0.412V66.76h-0.412v0.824h0.412v0.412h-0.412v0.824h0.824v0.412h0.824v3.296h0.824v0.412h-0.412v0.824
		h0.824v0.412h0.412v0.412h-0.412v-0.412h-0.824v0.412h0.412v1.236h0.824v-0.412h-0.412V75h1.236v-0.824h0.412v-0.824h-0.412V72.94
		h0.412v-0.824h0.412v0.824h0.412v-1.236h0.412v0.824h0.824v0.824h0.412V72.94h0.412v0.412h-0.412v0.412h0.412v0.412h0.824v0.412
		h-0.412v0.824h0.412v1.648h0.412v-0.412h0.412v-0.412h-0.412v-0.412h0.412v-1.236h-0.412v-0.824h0.412v-0.412h-0.824V72.94h1.236
		v0.412h0.824V72.94h-0.412v-1.236h0.412v-0.412h-0.412v-0.824h1.236v0.412h0.412v-0.824h0.412v0.412h1.236v0.824h-0.412v0.824
		h0.824v0.824h-0.412v0.412h0.824v0.412h-0.412v0.412h0.412v1.236h0.824v0.412h-0.412v0.412h0.824v0.412h-0.824v0.412h0.412v0.412
		h-0.824v0.412h0.824v0.412h0.412v0.412h0.412v0.412h1.236v-0.412h0.824v0.412h0.412v-0.412h0.412v0.824h0.412v0.412h0.412v-0.412
		h0.412v0.824h0.824v0.412h0.824v0.412h-0.412v0.412h-0.412v0.412h0.824v-0.412h0.412v0.412h-0.412v0.412h-0.824v0.412h0.824v0.824
		h0.824v0.412h0.824v-0.412h-0.412V83.24h0.412v-0.412h0.412v0.412h-0.412v0.412h0.824v0.412h0.412v-0.412h0.412v0.412h1.648v0.824
		h0.412v-0.412h0.412v0.412h0.412v-0.412h0.412V85.3h1.648v0.412h-0.824v0.824h0.412v-0.412h0.824v0.412h0.412v-0.412h0.412v0.412
		h-0.412v0.824h0.412v0.412h0.412v0.824h0.412v0.412h-0.412v0.412h0.824v1.236h0.412v-0.412h0.412v0.412h-0.412v1.236h-0.824v0.412
		h0.412v0.412h-0.824v0.412h0.412v0.412h0.412v0.412h-0.412v-0.412h-0.412v-0.412h-0.412v0.824h0.412v0.412h-0.412v0.412h0.412
		v0.412h0.824v0.412h0.412v-0.412h0.412v0.412h-0.412v0.412h0.412v0.412h0.824v-0.412h-0.412v-0.412h0.412v0.412h0.824v0.412h0.412
		v0.412h0.412v-1.236h0.412v0.412h0.412v-0.412h0.412v-0.824h-0.412v-0.412h0.412v0.412h0.412v0.412h0.824v-0.412H130v-0.412h-0.412
		v-0.824H130v-0.824h-0.412v-0.412H130v-0.412h-0.412v-0.412h-0.412v-0.412H130z M94.569,67.584v0.412h-0.412v-0.412H94.569v-0.412
		h0.412v0.412H94.569z M97.453,71.292h-0.824v-0.824h-0.412v0.412h-0.412v-0.824h-0.824v-0.412h0.412v-0.412h0.412V68.82h-0.824
		v-0.824h0.824v0.824h0.412v0.412h0.412v0.412h-0.412v-0.412h-0.412v0.824h0.824v0.412h0.412v0.412h0.412V71.292z M99.925,68.408
		h-0.412v-0.412h0.412V68.408z M105.281,67.172h-0.412V66.76h0.412V67.172z M113.933,82.828h-0.412v-0.412h0.412V82.828z
		 M113.933,80.356h-0.412v-0.412h0.412V80.356z M119.7,84.064h-0.412v-0.412h0.412V84.064z M125.88,85.3h-0.412v-0.412h0.412V85.3z
		 M127.528,88.596h-0.412v-0.412h0.412V88.596z M127.94,90.243v-0.412h0.412v0.412H127.94z"/>
	<rect x="36.479" y="95.599" width="0.412" height="0.412"/>
	<path d="M80.974,61.816h-0.412v0.412h0.824v0.412h0.412v0.412h0.412V62.64h0.412v-0.412H82.21v-0.412h0.412v-0.824h-0.824v-0.412
		h0.412v-0.824h0.412v0.824h0.824v0.412h0.824v-0.412h-0.412v-1.236H82.21v-0.412h-0.412v1.236h-0.412v0.412h-0.412v-0.412h-0.412
		v-0.412H80.15v1.648h0.824V61.816z M83.034,59.757h0.412v0.412h-0.412V59.757z"/>
	<rect x="81.386" y="65.936" width="0.412" height="0.412"/>
	<rect x="111.873" y="66.348" width="0.412" height="0.412"/>
	<rect x="109.813" y="55.637" width="0.412" height="0.412"/>
	<rect x="86.742" y="56.873" width="0.412" height="0.412"/>
	<rect x="86.742" y="56.049" width="0.412" height="0.412"/>
	<rect x="85.918" y="56.461" width="0.824" height="0.412"/>
	<rect x="87.154" y="56.461" width="0.412" height="0.412"/>
	<rect x="87.154" y="53.577" width="0.412" height="0.412"/>
	<rect x="84.682" y="53.577" width="0.412" height="0.412"/>
	<polygon points="91.685,55.225 92.097,55.225 92.097,55.637 92.509,55.637 92.509,54.813 91.685,54.813 	"/>
	<rect x="84.27" y="53.989" width="0.412" height="0.412"/>
	<rect x="88.39" y="58.933" width="0.412" height="0.412"/>
	<rect x="88.801" y="58.109" width="0.412" height="0.824"/>
	<rect x="85.506" y="56.873" width="0.412" height="0.412"/>
	<rect x="89.213" y="60.993" width="0.412" height="0.412"/>
	<polygon points="85.918,57.697 86.33,57.697 86.33,58.109 86.742,58.109 86.742,57.285 85.918,57.285 	"/>
	<rect x="87.978" y="57.285" width="0.412" height="0.412"/>
	<rect x="87.566" y="56.873" width="0.412" height="0.412"/>
	<rect x="92.509" y="51.105" width="0.412" height="0.412"/>
	<rect x="122.584" y="64.7" width="0.412" height="0.412"/>
	<rect x="109.813" y="54.813" width="0.412" height="0.412"/>
	<rect x="123.408" y="66.76" width="0.412" height="0.412"/>
	<rect x="128.764" y="83.652" width="0.412" height="0.412"/>
	<rect x="102.397" y="52.753" width="0.412" height="0.412"/>
	<rect x="125.88" y="74.588" width="0.824" height="0.412"/>
	<rect x="127.528" y="79.12" width="0.412" height="0.412"/>
	<rect x="92.509" y="54.401" width="0.412" height="0.412"/>
	<rect x="84.682" y="51.105" width="0.412" height="0.412"/>
	<polygon points="85.094,51.517 85.094,52.341 85.506,52.341 85.506,51.929 85.918,51.929 85.918,51.517 	"/>
	<rect x="85.918" y="51.929" width="0.412" height="0.412"/>
	<rect x="88.801" y="62.228" width="0.412" height="0.412"/>
	<rect x="86.33" y="51.105" width="0.412" height="0.824"/>
	<rect x="99.513" y="52.341" width="0.412" height="0.412"/>
	<rect x="87.154" y="51.105" width="0.412" height="0.412"/>
	<rect x="88.39" y="68.82" width="0.412" height="0.412"/>
	<rect x="117.228" y="84.476" width="0.412" height="0.412"/>
	<rect x="123.408" y="95.599" width="0.412" height="0.412"/>
	<rect x="124.232" y="96.423" width="0.412" height="0.412"/>
	<rect x="122.172" y="94.775" width="0.412" height="0.412"/>
	<rect x="123.408" y="90.655" width="0.412" height="0.412"/>
	<rect x="118.464" y="84.888" width="0.412" height="0.412"/>
	<rect x="121.348" y="86.536" width="0.412" height="0.412"/>
	<rect x="92.097" y="70.056" width="0.412" height="0.412"/>
	<rect x="116.404" y="84.476" width="0.412" height="0.412"/>
	<rect x="92.921" y="73.352" width="0.412" height="0.412"/>
	<rect x="88.801" y="71.704" width="0.412" height="0.412"/>
	<rect x="86.742" y="63.876" width="0.412" height="0.824"/>
	<rect x="111.873" y="83.24" width="0.412" height="0.412"/>
	<rect x="113.521" y="84.064" width="0.412" height="0.412"/>
	<rect x="100.749" y="79.12" width="0.412" height="0.412"/>
	<rect x="92.509" y="70.88" width="0.412" height="0.412"/>
	<polygon points="89.625,68.82 89.625,68.408 89.213,68.408 89.213,67.996 88.801,67.996 88.801,68.82 	"/>
	<rect x="89.625" y="65.936" width="0.412" height="1.236"/>
	<rect x="90.449" y="67.172" width="0.412" height="0.412"/>
	<rect x="125.468" y="80.356" width="0.412" height="0.412"/>
	<rect x="88.39" y="67.584" width="0.412" height="0.412"/>
	<rect x="86.33" y="65.936" width="0.412" height="0.412"/>
	<rect x="85.918" y="65.524" width="0.412" height="0.412"/>
	<rect x="106.517" y="82.828" width="0.412" height="0.412"/>
	<rect x="108.989" y="79.12" width="0.412" height="0.824"/>
	<rect x="111.873" y="82.004" width="0.412" height="0.412"/>
	<rect x="110.637" y="83.652" width="0.824" height="0.412"/>
	<rect x="92.097" y="69.232" width="0.412" height="0.412"/>
	<rect x="109.813" y="83.652" width="0.412" height="0.412"/>
	<rect x="93.333" y="74.588" width="0.412" height="0.412"/>
	<rect x="111.461" y="82.416" width="0.412" height="0.412"/>
	<polygon points="113.109,56.873 113.933,56.873 113.933,57.285 114.757,57.285 114.757,57.697 115.169,57.697 115.169,56.461 
		114.757,56.461 114.757,56.873 114.345,56.873 114.345,56.461 113.521,56.461 113.521,56.049 112.697,56.049 112.697,56.461 
		113.109,56.461 	"/>
	<polygon points="106.105,64.288 106.517,64.288 106.517,64.7 106.929,64.7 106.929,63.876 106.105,63.876 	"/>
	<rect x="102.397" y="62.228" width="0.412" height="0.412"/>
	<rect x="104.045" y="61.816" width="0.412" height="0.412"/>
	<rect x="111.461" y="66.76" width="0.412" height="0.412"/>
	<rect x="96.629" y="61.404" width="0.412" height="0.412"/>
	<rect x="99.925" y="61.404" width="0.824" height="0.412"/>
	<rect x="111.461" y="70.468" width="0.412" height="0.412"/>
	<rect x="97.041" y="60.993" width="0.412" height="0.412"/>
	<polygon points="101.161,61.816 100.749,61.816 100.749,62.64 101.573,62.64 101.573,62.228 101.161,62.228 	"/>
	<rect x="118.052" y="64.288" width="0.412" height="0.412"/>
	<rect x="108.989" y="72.94" width="0.412" height="0.412"/>
	<rect x="105.693" y="62.64" width="0.412" height="0.412"/>
	<rect x="106.929" y="66.348" width="0.412" height="0.412"/>
	<rect x="106.105" y="64.7" width="0.412" height="0.824"/>
	<rect x="106.105" y="66.348" width="0.412" height="0.412"/>
	<rect x="105.693" y="64.288" width="0.412" height="0.412"/>
	<rect x="99.513" y="64.7" width="0.412" height="0.412"/>
	<rect x="96.217" y="65.112" width="0.824" height="0.412"/>
	<rect x="113.933" y="78.708" width="0.412" height="0.412"/>
	<rect x="95.805" y="65.936" width="0.824" height="0.412"/>
	<rect x="103.221" y="65.112" width="0.412" height="0.412"/>
	<polygon points="105.693,64.7 105.281,64.7 105.281,64.288 105.693,64.288 105.693,63.876 104.869,63.876 104.869,65.112 
		105.281,65.112 105.281,65.524 105.693,65.524 	"/>
	<rect x="106.929" y="72.116" width="0.412" height="0.412"/>
	<rect x="104.457" y="65.112" width="0.412" height="0.412"/>
	<rect x="111.461" y="75" width="0.412" height="0.412"/>
	<rect x="99.513" y="63.464" width="0.412" height="0.412"/>
	<rect x="99.101" y="63.876" width="0.412" height="0.824"/>
	<rect x="105.281" y="63.052" width="0.412" height="0.412"/>
	<rect x="97.865" y="65.112" width="0.412" height="0.412"/>
	<rect x="97.453" y="65.524" width="0.412" height="0.412"/>
	<polygon points="98.689,65.112 98.689,65.524 99.513,65.524 99.513,65.112 99.101,65.112 99.101,64.7 98.277,64.7 98.277,65.112 	
		"/>
	<rect x="112.697" y="76.648" width="0.412" height="0.412"/>
	<rect x="105.693" y="63.464" width="0.412" height="0.412"/>
	<rect x="92.097" y="66.348" width="0.412" height="0.412"/>
	<polygon points="122.996,79.12 122.584,79.12 122.584,78.708 122.172,78.708 122.172,79.532 122.996,79.532 	"/>
	<rect x="120.936" y="78.708" width="0.412" height="0.412"/>
	<rect x="91.685" y="65.524" width="0.412" height="0.824"/>
	<rect x="108.989" y="73.764" width="0.412" height="0.412"/>
	<rect x="120.112" y="78.708" width="0.412" height="0.412"/>
	<rect x="115.581" y="58.521" width="0.412" height="0.412"/>
	<rect x="90.861" y="74.588" width="0.412" height="0.412"/>
	<rect x="118.464" y="77.884" width="0.412" height="0.412"/>
	<rect x="112.697" y="60.169" width="0.412" height="0.412"/>
	<rect x="112.285" y="65.936" width="0.412" height="0.412"/>
	<rect x="112.697" y="65.524" width="0.412" height="0.412"/>
	<rect x="117.228" y="78.296" width="0.412" height="0.412"/>
	<rect x="116.816" y="77.472" width="0.412" height="0.824"/>
	<rect x="113.521" y="67.996" width="0.412" height="0.412"/>
	<polygon points="114.757,58.109 114.757,58.521 115.581,58.521 115.581,58.109 115.993,58.109 115.993,58.521 116.404,58.521 
		116.404,57.697 115.169,57.697 115.169,58.109 	"/>
	<rect x="108.577" y="65.936" width="0.412" height="0.412"/>
	<polygon points="106.929,65.112 107.341,65.112 107.341,65.524 107.753,65.524 107.753,64.7 106.929,64.7 	"/>
	<rect x="109.401" y="65.936" width="0.412" height="0.412"/>
	<rect x="105.693" y="65.524" width="0.412" height="0.412"/>
	<rect x="110.225" y="65.524" width="0.412" height="0.824"/>
	<rect x="110.225" y="66.76" width="0.412" height="0.412"/>
	<polygon points="92.509,65.524 92.509,66.348 92.921,66.348 92.921,65.936 93.333,65.936 93.333,65.524 	"/>
	<rect x="106.517" y="65.524" width="0.412" height="0.412"/>
	<rect x="93.333" y="64.288" width="0.412" height="1.236"/>
	<rect x="115.581" y="61.816" width="0.824" height="0.412"/>
	<rect x="91.685" y="63.876" width="0.412" height="0.824"/>
	<rect x="110.637" y="73.352" width="0.412" height="0.412"/>
	<rect x="111.049" y="65.524" width="0.412" height="0.412"/>
	<rect x="111.461" y="72.116" width="0.412" height="0.412"/>
	<rect x="111.049" y="72.528" width="0.412" height="0.412"/>
	<rect x="81.386" y="67.996" width="0.412" height="0.412"/>
	<rect x="99.925" y="52.753" width="0.412" height="0.412"/>
	<rect x="101.573" y="54.813" width="0.412" height="0.412"/>
	<rect x="100.749" y="53.989" width="0.412" height="0.412"/>
	<rect x="100.337" y="53.165" width="0.412" height="0.824"/>
	<rect x="102.809" y="55.225" width="0.412" height="0.412"/>
	<rect x="104.457" y="55.637" width="0.412" height="0.412"/>
	<rect x="65.318" y="78.296" width="0.412" height="0.412"/>
	<rect x="103.221" y="54.813" width="0.412" height="0.412"/>
	<rect x="66.554" y="79.532" width="0.412" height="0.412"/>
	<rect x="89.625" y="60.169" width="0.412" height="0.412"/>
	<rect x="89.213" y="61.816" width="0.412" height="0.412"/>
	<rect x="78.914" y="93.127" width="0.412" height="0.412"/>
	<rect x="94.569" y="53.577" width="0.412" height="0.412"/>
	<rect x="99.101" y="52.753" width="0.412" height="0.412"/>
	<rect x="93.333" y="52.753" width="0.412" height="0.412"/>
	<rect x="87.566" y="64.288" width="0.412" height="0.412"/>
	<polygon points="90.037,59.757 90.037,58.933 89.213,58.933 89.213,60.169 89.625,60.169 89.625,59.757 	"/>
	<rect x="43.895" y="75.824" width="0.412" height="0.412"/>
	<rect x="38.127" y="66.348" width="0.412" height="0.412"/>
	<rect x="34.419" y="65.112" width="0.412" height="0.412"/>
	<rect x="34.419" y="88.184" width="0.412" height="0.412"/>
	<rect x="30.3" y="63.464" width="0.412" height="0.412"/>
	<rect x="28.652" y="60.993" width="0.412" height="0.412"/>
	<rect x="28.24" y="61.404" width="0.412" height="0.412"/>
	<rect x="30.712" y="92.303" width="0.412" height="0.412"/>
	<rect x="103.221" y="55.637" width="0.412" height="0.824"/>
	<rect x="66.966" y="79.944" width="0.412" height="0.412"/>
	<rect x="103.633" y="55.225" width="0.412" height="0.412"/>
	<rect x="66.966" y="78.708" width="0.412" height="0.412"/>
	<rect x="28.24" y="92.303" width="0.412" height="0.412"/>
	<path d="M79.738,90.243h-0.412v-0.824h-0.412v-0.824h-0.412v0.412h-0.824v-0.412h-0.412v-0.412h-0.412v0.412H76.03V87.36h-0.412
		v0.412h-0.824v0.412h-0.412v-0.412h-1.648V87.36H71.91v-0.412h-0.412v0.412h-0.412v-0.412h0.412v-0.412h-0.412v-0.824h-0.412v0.412
		h-0.412v-0.412h0.412V85.3h-1.236v-1.236h0.412v-0.412h-0.824V83.24h0.412v-4.12h0.412v-0.412h-0.824v-0.412h0.824V77.06h0.412
		v-0.412H69.85v-0.412h0.412v0.412h0.824v-0.412h-0.412v-0.824h0.412v0.824h0.412v0.412h-0.412v0.412h0.824v-0.824h0.824v0.412
		h0.412v-0.824h-0.412v-0.412h0.412v0.412h0.412v1.236h0.412v-0.412h0.412v-0.412h0.412v-0.412h0.824v0.412h1.236v-0.824h0.412V75
		h0.412v0.412h0.824v-0.824h0.824v-0.824h-0.412v-0.412h0.412V72.94h-0.824v-0.412h0.412v-0.412h-1.236v0.412h0.412v0.412h-0.412
		v-0.412h-0.412v0.412h-0.412v-0.824h-0.412v0.412H76.03v1.236h-0.412v0.412h0.412v1.236h-0.824V75h-0.412v-0.824h-0.412v-0.412
		h0.412v-0.412h-0.412V72.94H73.97v0.412h-0.412v0.412h0.412v0.824h-0.412v-0.412h-0.412v0.412h-0.824v-0.412H71.91v0.412h-0.824
		v-0.824h0.412V72.94h0.412v-0.412h-0.824v0.824h-0.412v0.412h-0.412v0.824h-0.824v-0.412h-0.824v-0.412h0.412v-1.648h0.412v-0.824
		h-0.412V70.88h0.824v-0.412h-0.412v-0.412h0.412v-0.412h-0.412v-0.412h0.412V68.82h0.412v0.412h0.412v-0.824h0.412v-0.412h-0.412
		v-0.824h0.824V66.76h-0.412v-0.412h-0.412v-0.412h0.412v-0.824h0.412V64.7h-0.412v-0.412h-0.824v0.824h-1.236v0.412h-0.412v0.412
		h-0.412v-0.412H67.79v1.236h-0.824v-0.412h-0.412v0.824h0.412v2.884h-0.412v-0.412h-0.412v0.824h1.236v0.824h-0.412v0.824h1.236
		v0.412h-0.824v0.412h0.412v0.412h-0.412v0.412h0.412v0.824h-0.412v-0.412h-0.412v0.412h-0.824V75H65.73v0.412h0.412v0.412H65.73
		v-0.412h-0.824V75h0.412v-0.824h-0.412v0.412h-0.412v-0.824h-0.412v-0.412h1.236V72.94h-0.412v-0.824h-0.412v-0.412h0.412v-0.412
		H63.67v0.824h-1.236v0.412h-0.412v-0.412H61.61v0.412h-0.412v0.412h-0.412v-0.412h-0.412v0.824h-0.412V72.94h-0.412v0.412h-0.412
		v0.824h-0.412v-0.824h-0.824v0.412h-0.412V72.94h-0.824v-0.412h-0.412v0.412h-0.824v-0.824h0.412v-0.412h-0.824v-0.412h0.824
		v-0.824h-0.412v-0.412h0.824v-0.412h-0.412v-0.412h0.412v0.412h0.412v-0.412h0.412V68.82h0.412v-0.412h-0.412v-0.412h0.412v0.412
		h1.236v-1.236h-0.412v-0.824h-0.824v0.412h0.412v0.412h-0.824v0.412h-0.824v0.412h0.412v0.824h-0.412v-0.824h-0.824v-0.412h0.412
		v-0.412h-0.412V66.76h-0.824v1.236h-0.412v0.412h-0.412v1.236h-0.824v-0.412h-0.412v0.824h-0.824v0.412h0.412v0.412h-1.236v0.412
		h0.412v0.412h-0.412v-0.412h-0.824V70.88h-0.412v-0.412h0.412v-0.412h0.412v-0.412h-0.824v0.412h-0.412v-0.412h0.412V68.82h-0.412
		v-0.824h0.824v-0.412h-0.412v-0.412h-0.824V66.76h0.412v-0.412h-0.412v-0.824h-0.412v-0.412h0.412V64.7h-0.824v-2.06h-0.412v-0.412
		h0.412v-0.412h-0.412v-0.412h-0.412v-0.412h-0.412v-0.412h-0.412v-0.412h0.412v0.412h0.412v-0.824h-0.412v-0.412h-0.412v-1.236
		h-0.412v0.824h-0.824v-0.412h-0.412v0.412h-0.412v0.412h-0.412v0.412h0.824v0.824h-0.412v0.412h-0.412v0.412h0.824v0.412h-0.824
		v0.824h0.824v0.412h-0.412v0.412h0.412v0.412h0.824V64.7h0.412v0.412h0.412v0.412h-0.412v-0.412h-0.412v1.236h-1.236v-0.412h0.412
		v-0.412h-1.648v0.824h0.412v0.412h-0.412v-0.412h-0.412v0.824h-0.412V66.76h-0.412v0.412h-0.824v0.412h0.412v1.648h0.412v1.236
		h0.412v-0.824h0.412v0.824h0.412v0.412h0.412v-0.412h0.412v-0.412h-0.412v-0.412h0.412v0.412h0.412v0.412h0.824v-0.412h0.412v0.412
		h0.824v0.412h-1.236v0.412h0.412v0.412h-0.412v0.412h-0.412v0.824h-0.412v0.412h-0.412V72.94h-0.412v-0.412h0.412v-0.824h0.412
		v0.412h0.412v-0.824h-0.824V70.88h-0.412v1.236h-0.412V70.88h-0.412v0.824h-0.412v-0.412h-0.412v0.412h-0.412v0.412h0.412v0.824
		h0.412v-0.412h0.412v0.412h-0.412v1.648h0.412v0.824h0.412v-0.824h0.412v-0.412h0.412v0.412h-0.412V75h0.412v0.412h0.824v-0.824
		h-0.412v-0.412h0.412v0.412h0.824v-0.824h0.412v-0.412h-0.412V72.94h0.824v-0.412h0.412v-1.236h0.412v0.824h0.412v0.412h-0.824
		v0.412h0.412v0.412h-0.412v0.412h0.412v0.824h-0.412v-0.824h-0.412v0.412h-0.412v0.412h0.412V75h-0.824v0.412h0.412v0.824h-0.824
		v0.412h0.412v0.412h-1.236v0.412h-0.412v0.412h0.412v0.412h-0.412v0.412h-1.236v0.412h-0.412v0.412h0.412v0.412h-0.412v0.412
		h-0.824v-0.412h-0.412v0.824h0.412v0.412h-0.824v0.824h-0.824v1.648h-0.412V83.24h-0.412v1.236h-0.824v0.412h0.412V85.3h-1.236
		v1.648h-0.412v0.412h0.412v0.412h-0.412V87.36h-0.412v0.824h-0.824v0.824h-1.236v1.236h-0.824v0.412h-0.412v0.412h0.412v0.412
		h-0.824v0.412H32.36v0.412h-0.824v0.824h-0.412v0.412h-1.236v-0.824h-0.824v0.412h-1.648v0.412h0.412v0.412h-0.412v0.412h0.412
		v0.824h-0.412v0.412h0.824v1.236h0.824v0.824h0.412v-0.412h0.412v0.412h1.236v0.824h0.824v-0.824h0.412v0.412h0.824v-0.412h0.412
		v-0.412h-0.412v-0.412h0.412v0.412h0.824v-0.824h0.824v-0.412h0.824v-0.412h0.412v-0.824h0.412v-0.412h0.412v-0.412h-0.412v-0.412
		h0.824v0.412h0.412v-0.824h0.412v0.412h0.412v-0.412h0.412v-0.412h-0.412v-0.412h0.412v-0.824h0.824v-0.824h-0.412v-0.412h0.412
		v-0.412h-0.412v-0.412h0.412v0.412h0.412v-0.412h0.412v0.412h0.412v-1.648h-0.412v-0.412h0.412v-0.824h-0.412v-0.412h0.412v-0.412
		h-0.824v-0.412h0.412V85.3h0.412v-0.824h0.412v-0.412h0.412v-0.412h0.412V83.24h0.412v-0.412h0.824v-0.412h0.412v-0.412h0.824
		v0.412h0.824v-0.412h-0.412v-0.412h0.412v0.412h0.412V81.18h-0.412v-0.412h0.824v-0.412h0.412v-0.412h0.412v0.412h-0.412v0.412
		h-0.412v0.412h0.412v1.236h-0.824v0.412h0.412v0.412h-0.824v0.412h0.412v0.412h-0.412v0.824h-0.412V85.3h-0.412v0.412h-0.412V85.3
		h-0.412v0.412h-0.412v1.236h-0.824v0.412h0.412v0.412h0.412V87.36h0.824v-0.412h-0.412v-0.412h0.412v-0.412h1.648v-0.412h0.412
		V85.3h0.412v-0.412h0.412v-0.412h0.824V83.24h0.412v-0.412h0.412v-0.412h0.412v-0.412h0.824v-0.412h0.412v-0.824h0.412v-0.824
		h0.824v-0.412h-0.824V79.12h1.236v-0.412h-0.412v-0.824h0.824v-1.648h1.236v-0.412h0.824v0.412h-0.412v0.412h0.824v-0.824h0.412
		v0.412h0.412v0.412h-0.412v0.412h0.824v-0.412h0.412v-0.412h-0.412v-0.412h0.412v0.412h0.824v-0.412h0.412v0.412h1.236v0.412h0.824
		v-0.412h0.412v0.412h-0.412v0.412h0.412v0.412h0.412v0.412h0.824v0.412H61.61v0.412h0.412v0.412H61.61v0.412h0.412v0.824h0.412
		v0.824h0.824v0.412h-0.824v0.412h1.236v1.236h-0.412v0.412h0.412v2.06h0.824v0.824h-0.412v0.412h0.824v0.412h-0.824v0.412h0.412
		v0.824h0.824v1.648h0.412v0.412h0.412v-0.412h0.412v0.412h0.412v-0.412h0.412v0.412h-0.412v0.412h1.236v-0.412h0.412v-0.412h0.412
		v0.412h-0.412v0.412h2.06v0.412h0.412v0.412h0.412v-0.412h0.412v-0.412h0.412v0.824h0.412v-0.412h0.412v-0.412h-0.412v-0.412h0.412
		v0.412h0.412v0.412h-0.412v0.412h0.412v0.412h0.412v0.412h1.236v0.412h0.412v0.412h0.412v0.412h0.412v-0.412h0.412v0.412h0.412
		v-0.412h0.412v0.824h0.824v-0.412h0.412v-0.412h-0.412v-0.412h0.412v-0.412h0.412v0.412h0.412v-2.06h0.412v-0.412h-0.412V90.243z
		 M77.678,73.352h0.824v0.412h-0.824V73.352z M73.558,75h0.412v0.412h-0.412V75z M57.903,67.584h0.412v0.412h-0.412V67.584z
		 M45.955,59.757h-0.412v-0.412h0.412V59.757z M43.895,67.996h-0.412v-0.412h0.412V67.996z M44.307,67.172h-0.412V66.76h0.412
		V67.172z M31.536,94.363h-0.412v-0.412h0.412V94.363z M34.419,91.067h-0.412v-0.412h0.412V91.067z M35.243,89.831h-0.412v-0.412
		h0.412V89.831z M48.015,84.064h-0.412v-0.412h0.412V84.064z M48.839,73.352h-0.824v0.412h-0.412v-0.412h0.412V72.94h0.824V73.352z
		 M48.839,72.528h-0.412v-0.412h0.412V72.528z M48.839,70.88h-0.824v0.412h-0.412V70.88h0.412v-0.824h0.412v0.412h0.412V70.88z
		 M49.251,72.528v-0.412h0.412v-0.412h-0.412v-0.412h0.412v0.412h0.824v0.412h-0.824v0.412H49.251z M51.723,76.236h-0.824v0.412
		h-0.412v0.412h0.412v0.412h-0.412V77.06h-0.412v0.412h-0.412V77.06h0.412v-0.412h0.412v-0.412h-0.412v-0.412h0.412v0.412h0.412
		v-0.824h-0.412V75h0.412v0.412h0.412v0.412h0.412V76.236z M52.135,75h-0.412v-0.412h0.412V75z M56.255,75.412h-0.412V75h0.412
		V75.412z M57.079,75h-0.412v-0.412h0.412V75z M57.079,74.176h-0.412v-0.412h0.412V74.176z M59.139,75.824h-0.412v-0.412h0.412
		V75.824z M68.202,66.348h0.412v0.412h-0.412V66.348z M66.554,75.412h0.412v0.412h-0.412V75.412z M65.73,76.236h0.824v0.824H65.73
		V76.236z M64.906,76.236h0.412v0.412h-0.412V76.236z M65.318,88.184h-0.412v-0.412h0.412V88.184z M67.79,78.296v0.412h0.412v0.824
		h-0.824v0.412h0.412v0.412h-0.412v0.412h-0.412v-0.412h-0.412v-0.412h-0.412v1.236H65.73v-0.412h-0.412v0.412h-0.824v-0.824h-0.412
		v-0.412h0.412V79.12h0.824v-0.412h-0.412v-0.412h0.412v-0.412h-0.412v-0.412h0.412v0.412h0.824v0.824h0.412v-0.824h0.412v0.412
		h0.412v-0.412h0.412v-0.412h-0.824V77.06h0.824v-0.824h0.824v0.412h-0.412v0.412h0.412v0.412h-0.412v0.412h0.412v0.412H67.79z
		 M68.614,81.592V81.18h0.412v0.412H68.614z M70.262,90.655H69.85v-0.412h0.412V90.655z"/>
	<rect x="44.719" y="64.288" width="0.412" height="0.412"/>
	<rect x="62.846" y="82.416" width="0.412" height="0.412"/>
	<rect x="43.895" y="70.468" width="0.412" height="0.412"/>
	<rect x="94.569" y="62.64" width="0.412" height="0.412"/>
	<rect x="28.652" y="62.64" width="0.412" height="0.412"/>
	<rect x="43.895" y="72.528" width="0.412" height="0.412"/>
	<rect x="28.24" y="63.052" width="0.412" height="0.412"/>
	<path d="M40.599,66.76v-0.412h0.412v0.412h0.412v-0.824h0.412v-0.412h-0.412v-0.412h-0.412V64.7h0.412v0.412h0.412v0.412h0.412
		v-1.648h0.824v0.412h0.824v-1.236h-0.412v0.412h-0.412v-0.412h0.412V62.64h-0.412v-0.412h-0.412v0.412h-0.412v-0.412h-0.412v-0.412
		h0.412v-0.412h-0.824v-0.824h-1.236v-0.412h0.824v-0.824h-0.412v-0.412h-0.412v0.412h-0.412v-0.824h0.412v-0.412h-0.412v-0.412
		h1.236v-0.824h-0.412v0.412h-0.412v-0.412h0.412v-0.412h0.824v0.412h0.412v-0.412h1.236v-0.412h-0.412v-0.412h-0.412v0.412h-0.824
		v-1.236h-0.824v-0.824h-0.412v0.824h-0.412v-1.236h-0.412v0.412h-0.824v-0.412h-0.412v0.824h-0.824v-0.412h-0.412v0.412h-0.412
		v-0.412h0.412v-0.412h-0.412v-0.412h-0.412v0.824h-0.412v-0.824h-0.824v-0.412h-0.412v0.412h-0.412v-0.824h-0.824v0.412h-0.412
		v0.412H32.36v0.412h-0.824v0.412h-0.824v0.412h-0.824v0.412h-0.412v0.824h-0.412v-0.824h0.412v-0.412H28.24v0.412h0.412v0.412
		H28.24v-0.412h-0.412v0.412h-0.412v0.412h-0.824v-0.412H26.18v0.824h-0.824v-0.412h-0.412v0.824h-0.412v0.824H24.12v-0.412h-0.412
		v0.412h-0.824v0.412h-0.412v0.412H22.06v0.412h0.412v0.412H22.06v-0.412h-0.412v0.412h-1.236v0.412h0.412v0.824h-0.412v0.824h0.412
		v0.412h-0.412v0.412H20v0.412h0.412v0.412h0.412v0.824h-0.412v0.412h0.824v0.412h0.412v1.236h0.824v0.412h-0.824v0.412h1.648v0.412
		h0.412v-0.412h0.412v-0.824h0.412v0.412h0.412v0.412h0.412v-0.412h0.412v0.412h0.412v0.412h0.412v-1.236h0.412v0.824h0.412v-0.412
		h0.412v0.412h1.236v-0.412h-0.412v-0.412h0.412V64.7h0.824v-0.412h-0.412v-0.412h-0.412v-0.412h-0.412v0.412H28.24v-0.412h-0.412
		v-0.412h-0.412V62.64h0.412v0.412h0.412V62.64h0.412v-0.412h-0.824v-1.236h0.412v-0.824h0.412v-0.412h0.412v-0.412h0.412v0.412
		h0.412v-0.412H30.3v-0.824h0.412v0.824h0.412v-0.412h0.412v0.412h-0.412v0.824h-0.412v0.412h0.412v0.412h0.412v0.824h0.412v-0.412
		h0.824v0.412H32.36v0.824h-0.412v0.412h0.412v0.412h-0.824v0.412h0.412v0.412h0.412V64.7h-0.412v-0.412h-0.412v1.236h0.412v0.824
		h0.412v-1.236h0.824V64.7h0.412v-0.412h-0.412v-0.412h1.236v-0.412h-0.412v-0.412h0.412V62.64h-0.412v-0.412h0.412v0.412h0.412
		v-0.412h0.412v0.412h-0.412v0.412h-0.412v0.412h0.412v0.412h-0.412V64.7h0.412v-0.412h0.412v-0.412h0.412v0.412h-0.412V64.7h0.824
		v-0.412h0.412v-0.824h0.412v-0.412h0.412v1.236h-0.412V64.7h0.412v0.824h1.236V64.7h0.412v0.824h-0.412v0.412h0.412v0.412h0.412
		v0.412h-0.412v0.412h1.236v0.412h-0.412v0.412h0.824v-0.824h0.412V66.76H40.599z M41.011,61.816h0.412v0.412h-0.412V61.816z
		 M40.599,55.225h0.412v0.412h-0.412V55.225z"/>
	<rect x="95.805" y="63.464" width="0.412" height="0.412"/>
	<rect x="94.981" y="63.052" width="0.824" height="0.412"/>
	<rect x="90.861" y="65.936" width="0.412" height="0.412"/>
	<rect x="29.064" y="63.052" width="0.412" height="0.412"/>
	<rect x="90.449" y="65.524" width="0.412" height="0.412"/>
	<rect x="91.273" y="66.348" width="0.412" height="0.412"/>
	<path d="M90.037,65.112V64.7h0.412v-0.412h-0.412v-0.412h0.412v0.412h0.412V64.7h0.412v-0.824h0.412v-0.412h0.412v0.412h0.412
		v-0.412h0.412v0.412h-0.412V64.7h0.412v-0.412h0.412v-1.236h0.412v0.824h0.412v1.236h0.412v-0.824h0.412v0.824h-0.412v0.412h0.824
		v0.412h0.412v-0.824h0.412V64.7h0.824v0.412h0.412v-1.236h0.412V64.7h0.412v-0.412h0.412v-0.412h-0.412v-0.412h0.412v0.412h0.412
		v-0.824h-1.648V62.64h0.824v-0.412h-2.06v-0.824h0.412v-0.412h-0.412v-0.412h0.412v0.412h0.412v-1.648h0.412v0.412h0.412v-0.412
		h0.412v0.412h0.824v0.412h0.412v-0.412h0.412v0.824h1.648v0.412h-0.824v0.412h0.824v0.824h0.824v-0.412h-0.412v-0.412h0.412v0.412
		h0.412v-0.412h0.412v0.824h0.412v-0.412h0.412v-0.412h0.412v-0.412h0.412v0.412h-0.412v0.412h0.412v0.412h0.412v-0.412h0.412
		v-0.412h0.412v0.412h-0.412v0.412h0.824v1.236h0.412v-0.412h0.824v0.412h0.412v0.412h-0.412v-0.412h-0.824v0.412h0.412v0.412h0.412
		V64.7h0.412v0.824h0.824v0.412h0.412v-0.412h0.412V64.7h0.412v0.412h0.412v0.412h0.412v-0.412h0.412v0.412h0.412v0.412h0.412
		v-0.824h0.412V64.7h0.412v-0.412h-0.412v-0.412h0.824v-0.824h-0.412v-0.824h-0.824v-0.412h0.412v-0.412h-0.412v-0.412h-0.412
		v-0.412h-0.412v-0.824h0.412v0.412h0.412v-0.412h0.824v0.412h0.412v-0.412h0.412v0.412h-0.412v0.412h1.236v0.412h0.412v0.824h0.412
		v-0.412h0.824v-0.412h0.412v-0.412h0.412v0.824h-0.824v0.412h0.412v0.412h-0.412v0.412h0.412v0.412h0.824V62.64h0.412v-0.412h0.412
		v0.824h-0.824v0.412h0.412v0.412h0.412v-0.412h0.412v-0.412h0.412v0.412h-0.412v0.412h-0.412v0.412h0.412v0.824h-0.412v0.412h1.236
		v0.412h0.412v0.412H119.7v0.412h0.824v0.824h-0.412v0.412h0.824v-0.412h0.412v0.412h-0.412v0.412h0.412v0.412h0.412v0.824h0.412
		v0.412h-0.412v0.412h0.824v0.412h-0.412v0.412h0.824v0.824h0.412v0.412h-0.412v0.412h0.412v0.824h0.824v0.412h-0.824v0.412h0.824
		v1.236h0.412v-0.412h0.412v0.412h-0.412v1.236h0.824v0.412h-0.412v0.412h0.412v0.412h-0.412v0.412h0.824v-0.412h0.412v0.412h-0.412
		v0.412h-0.412v0.412h0.412v0.824h0.412v0.412h0.412v0.412h-0.412v0.824h0.824v0.824h0.824v0.824h0.824v-0.824h-0.412v-0.412h0.412
		v-0.412h-0.412v-0.412h0.412V81.18h-0.824v-0.412h0.412v-0.412h-0.412v-0.412h-0.412v-0.412h-0.412V79.12h0.412v-0.412h-0.412
		V77.06h-0.412v-1.648h-0.824V75h-0.412v-0.412h0.412v-0.412h0.412v-0.412h-0.412V72.94h-0.412v-1.648h-0.412v-0.824h0.412v-0.412
		h-0.412v-0.412h-0.412v-0.412h-0.412v0.412h-0.412v-0.412h0.412V68.82h0.412v-0.412h-0.824v-0.824h-0.412v-0.412h-0.412V66.76
		h0.412v-0.412h-0.824v-0.412h0.412v-0.412h-0.412v-0.412h-0.412v-0.824h-0.412v-0.412h-0.412v-0.824h-0.824V62.64h0.412v-0.412
		h-0.824v-0.824h-0.824v-0.412h0.412v-0.412h-1.236v-0.412h0.412v-0.412h-0.824v-0.412h-1.236v0.412h-0.412v-0.412h0.412v-0.412
		h0.412v-0.412h-0.824v0.412h-0.412v0.412h-0.412v-0.412h-0.824v-0.412h-0.824v0.412h-0.824v-0.824h0.412v0.412h0.412v-0.412h0.824
		v-0.412h-0.824v-0.412h-1.236v-0.824h-0.412v-1.236h-0.412v1.236h-0.412v-1.236h-1.236v0.412h0.412v0.412h-0.412v0.412h0.412v0.412
		h0.412v0.412h-0.412v-0.412h-0.412v0.412h-0.412v-0.824h-0.412v0.412h-0.824v-0.412h-1.236v-0.412h0.412v-0.412h-0.412v-1.236
		h-0.412v0.412h-0.412v-0.824h-1.648v-0.824h-0.412v0.412h-0.824v-0.412h-0.412v0.412h-0.412v0.412h-0.412v-0.824h-0.412v0.412
		h-0.412v-0.412h-0.412v0.824h0.412v0.412h0.412v0.412h0.412v0.412h0.412v-0.412h0.412v-0.824h0.412v0.824h1.236v0.412h0.412v0.412
		h0.412v0.412h0.824v0.412h-2.06v-0.412h-0.412v0.824h0.412v0.412h-0.412v-0.412h-0.824v1.236h0.412v-0.412h0.412v0.412h-0.412
		v0.412h0.824v0.412h-0.824v-0.412h-0.412v0.824h0.824v0.412h-1.236v-0.824h-0.412v0.412h-0.412v0.412h-0.412v-0.412h-0.412v0.412
		h-0.412v-0.412h0.412v-1.648h-0.412v1.236h-0.824v-0.412h0.412v-0.412h-0.412v-0.412h-0.412v-0.412h1.236v-0.412h-0.824v-0.412
		h-0.824v-0.412h1.236v0.412h0.824v-0.412h-0.412v-0.412h-0.824v-0.412h0.412v-0.412h-1.236v-0.412h-0.412v-0.824h0.412v-0.412
		h-0.824v-0.824h-0.412v0.412h-0.412v-0.412h-1.236v-0.824h-0.412v0.824h-0.412v-0.824h-0.412v0.412h-0.412v0.412h-0.412v-0.824
		h-0.412v1.236h0.412v0.412h0.824v0.412h0.412v0.412h0.412v0.412h0.412v0.824h-0.412v-0.824h-0.412v-0.412h-0.412v0.412h-0.824
		v-1.236h-0.412v0.824h-0.412v-0.824h-0.412v-0.412h0.412v-1.236h-0.412v0.412h-0.412v-0.412h-0.412v0.412h-0.412v-0.412h-0.412
		v0.412h-0.412v-0.412h-0.412v0.412h-0.412v-0.412h-0.412v0.412h-0.412v-0.412h-1.648v0.412h-0.824v0.412h1.236v-0.412h0.412v0.412
		h2.472v0.412h0.412v-0.412h0.412v0.824h0.412v-0.412h0.412v1.236h0.412v0.412h0.412v0.412h0.412v0.412h-0.412v-0.412h-0.412v0.824
		h0.824v0.412h-0.412v0.412h1.648v0.824h-0.412v-0.412h-0.412v0.412h-0.412v-0.412h-0.412v-0.412h-1.648v0.412h-0.412v-0.412h0.412
		v-0.412h-0.824v0.412h-0.412v-0.824h-0.412v-0.412h0.412v-0.412h-1.236v-0.824h-0.412v0.412H88.39v-0.824h-0.412v0.412h-0.412
		v0.412h0.412v0.412h-0.412v-0.412h-0.824v-0.412h-0.824v-0.412h-0.412v0.412h-0.412v0.412h-0.412v0.412h0.824v-0.412h0.412v0.412
		h0.824v0.412H86.33v0.412h1.648v0.412h-0.412v0.412h0.824v-0.412h0.412v0.824h1.236v0.412h0.412v-0.412h0.412v0.412h1.648v0.824
		h1.236v0.412h-0.412v0.412h0.412v0.412h-0.824v-0.412h-0.412v0.824h0.824v0.412h-0.824v-0.412h-0.412v0.412h-0.412v-0.412h-0.412
		v0.412h-0.412v-0.412h-0.824v0.412h0.412v0.412h0.412v0.412h0.824v0.412h-0.824v-0.412h-0.412v-0.412h-0.412v0.824h-0.412v0.412
		h0.412v0.412h-0.412v0.412h-0.412v1.236h0.412v0.412h-0.412v-0.412H88.39v-0.824h-0.824v0.412h0.412v0.824h0.824V64.7h-0.824v0.412
		h0.412v0.412h-0.412v0.412h-0.824v0.412h-0.412v0.824H86.33v-0.824h-0.412v1.648h0.824v0.412H86.33v0.412h0.824v-0.412h0.412v0.412
		h0.412v-0.824h-0.412v-0.412h-0.412v-0.412h0.412v0.412h0.824v-0.412h-0.412V66.76h-0.412v-0.412h0.412v0.412h0.412v-0.412h0.412
		v1.236h0.412v-1.648h0.412v-0.412h0.824v-0.412H90.037z M119.7,63.876v0.412h0.412V64.7H119.7v-0.412h-0.412v-0.412H119.7z
		 M117.64,62.228h-0.412v-0.412h0.412V62.228z M114.757,59.757h0.824v0.824h0.412v0.412h-0.412v-0.412h-0.412v-0.412h-0.412V59.757z
		 M112.285,58.109h0.412v0.824h-0.412V58.109z M111.461,57.285h0.412v0.412h-0.412V57.285z M111.461,64.288h0.412V64.7h-0.412
		V64.288z M109.813,58.933v0.412h-0.412v-0.412H109.813z M108.989,57.285h0.412v0.412h-0.412V57.285z M108.989,59.757h0.412v0.412
		h-0.412V59.757z M108.989,60.993h0.412v0.412h-0.412V60.993z M106.517,60.581h-0.412v-0.412h0.412V60.581z M108.577,58.933h-0.412
		v-0.824h0.412V58.933z M107.753,56.873h0.412v0.412h-0.412V56.873z M107.753,58.933v0.412h0.412v0.412h-0.824v-0.824H107.753z
		 M107.341,57.697v0.412h-0.412v0.824h-0.824v-0.824h0.824v-0.412H107.341z M106.517,56.873h0.412v0.412h-0.412V56.873z
		 M105.693,56.873h0.412v0.412h-0.412V56.873z M104.869,57.285h0.412v0.412h0.412v0.412h-0.824V57.285z M98.689,55.225v0.412h-0.412
		v-0.412H98.689z M97.865,53.577h0.412v0.412h-0.412V53.577z M97.865,54.401h0.412v0.412h-0.412V54.401z M95.805,53.165h-0.412
		v-0.412h0.412V53.165z M96.217,53.577h0.412v0.412h0.412v0.412h0.412v0.824h-0.412v-0.824h-0.412v-0.412h-0.412V53.577z
		 M96.629,62.64h0.412v0.412h-0.412V62.64z M95.805,57.285h0.412v0.412h-0.412V57.285z M95.393,60.169h0.412v0.412h-0.412V60.169z
		 M95.393,60.993h0.412v0.412h-0.412V60.993z M94.569,59.345h0.412v0.412h-0.412V59.345z M94.157,60.169h0.824v0.412h-0.824V60.169z
		 M94.157,62.64h0.412v-0.824h0.412v0.412h0.824v0.824h0.412v0.412h0.824v0.412h-0.824v0.412h-0.412v-0.412h-0.824v-0.412h-0.824
		V62.64z M92.921,62.228h0.412v0.412h-0.412V62.228z M92.509,63.052h-0.412V62.64h0.412V63.052z M91.685,61.816h0.412v-0.412h0.412
		v0.824h-0.824V61.816z M90.861,63.052h0.412v0.412h-0.412V63.052z M89.213,65.524h-0.412v-0.412h0.412V65.524z"/>
	<polygon points="29.476,65.112 29.476,65.524 29.888,65.524 29.888,65.936 30.3,65.936 30.3,65.112 30.712,65.112 30.712,65.524 
		31.124,65.524 31.124,64.7 29.888,64.7 29.888,65.112 	"/>
	<rect x="29.064" y="65.524" width="0.412" height="0.412"/>
	<rect x="40.187" y="90.243" width="0.412" height="0.412"/>
	<rect x="41.835" y="86.948" width="0.412" height="0.824"/>
	<polygon points="91.685,73.352 91.273,73.352 91.273,73.764 90.861,73.764 90.861,74.176 91.685,74.176 	"/>
	<rect x="44.719" y="82.416" width="0.412" height="0.412"/>
	<rect x="42.659" y="83.652" width="0.412" height="0.412"/>
	<polygon points="87.566,65.112 87.566,64.7 87.154,64.7 87.154,65.112 86.742,65.112 86.742,65.524 87.978,65.524 87.978,65.112 	
		"/>
	<rect x="46.367" y="72.94" width="0.412" height="0.412"/>
	<rect x="41.835" y="85.3" width="0.412" height="0.412"/>
	<rect x="42.659" y="87.36" width="0.412" height="0.412"/>
	<rect x="40.599" y="89.831" width="0.412" height="0.412"/>
	<rect x="87.154" y="63.464" width="0.412" height="0.412"/>
	<rect x="41.423" y="87.772" width="0.412" height="0.412"/>
	<rect x="45.131" y="84.476" width="0.412" height="0.412"/>
	<rect x="42.659" y="86.536" width="0.412" height="0.412"/>
	<rect x="45.543" y="83.652" width="0.412" height="0.412"/>
	<rect x="44.307" y="82.828" width="0.412" height="0.824"/>
	<rect x="43.483" y="83.24" width="0.412" height="0.824"/>
	<rect x="57.903" y="68.82" width="0.412" height="0.412"/>
	<rect x="91.685" y="74.588" width="0.412" height="0.412"/>
	<polygon points="89.625,79.944 89.625,79.532 89.213,79.532 89.213,79.12 88.801,79.12 88.801,78.708 89.213,78.708 89.213,77.884 
		88.801,77.884 88.801,78.296 88.39,78.296 88.39,77.472 88.801,77.472 88.801,77.06 87.978,77.06 87.978,77.472 87.154,77.472 
		87.154,77.884 87.566,77.884 87.566,78.296 87.978,78.296 87.978,78.708 88.39,78.708 88.39,79.944 88.801,79.944 88.801,80.356 
		89.213,80.356 89.213,81.18 90.037,81.18 90.037,79.944 	"/>
	<polygon points="88.39,76.648 88.39,76.236 87.566,76.236 87.566,76.648 87.154,76.648 87.154,77.06 87.978,77.06 87.978,76.648 	
		"/>
	<rect x="101.985" y="57.697" width="0.412" height="0.412"/>
	<rect x="101.573" y="56.049" width="0.412" height="0.412"/>
	<rect x="101.573" y="58.109" width="0.412" height="0.824"/>
	<path d="M87.154,74.176v-0.412h-0.412v-0.412h0.412V72.94H86.33v-1.648h-0.824V70.88h-0.412v-0.412h-0.412v0.824h0.412v1.236h0.412
		v0.412h0.412v0.412h0.412v0.412h-0.412v0.412h0.412v0.412h0.412v1.648h0.824v-2.06H87.154z M85.918,72.116h-0.412v-0.412h0.412
		V72.116z"/>
	<rect x="87.978" y="97.247" width="0.412" height="0.412"/>
	<rect x="91.273" y="88.184" width="0.412" height="0.412"/>
	<rect x="97.865" y="87.772" width="0.412" height="0.412"/>
	<rect x="95.805" y="89.831" width="0.412" height="0.412"/>
	<rect x="83.858" y="98.071" width="0.412" height="0.412"/>
	<rect x="87.566" y="78.708" width="0.412" height="0.412"/>
	<rect x="87.978" y="91.891" width="0.412" height="0.412"/>
	<rect x="85.506" y="70.468" width="0.412" height="0.412"/>
	<polygon points="109.813,55.637 109.813,55.225 109.401,55.225 109.401,54.813 108.989,54.813 108.989,55.225 108.577,55.225 
		108.577,55.637 	"/>
	<rect x="87.566" y="69.232" width="0.412" height="0.412"/>
	<path d="M97.041,84.064h-0.824v-0.412h0.824V83.24h-0.412v-0.824h-0.412v-0.412h-0.412v-0.412h0.412V81.18h-0.412v-0.824h-0.412
		V79.12h-0.412v-0.824h0.412v-0.412h-1.236v-0.412h0.824v-1.236h-0.412v0.824h-0.412v-0.824h-0.824v-0.412h-0.824v0.412h-0.412
		v-0.412h0.412V75h-0.412v0.412h-0.824v0.412h0.412v0.824h0.412v0.412h0.824v0.412h-0.412v0.412h0.824v0.824h-0.824v0.412h-0.412
		v-0.412h-0.824v0.412h0.412v0.412h0.412v1.648h0.412v0.824h-0.412v0.412h0.412v0.412h-0.824v-0.412h-0.412v0.412h-0.412v-0.412
		h0.412v-0.412h-0.824v-0.412h0.412V81.18h-0.824v0.412h-0.412v0.412h0.412v0.824h0.412v0.412h0.412v1.236h1.236v0.412h-0.824V85.3
		h0.412v0.824h0.412v0.412h-0.412v0.412h0.824v0.412h-1.236v0.412h0.412v0.412h0.412v0.412h-0.412v0.412h-0.412v-0.412h-0.412v0.824
		h-0.412v0.412h0.412v0.412h-0.412v-0.412h-0.412v0.412h-0.412v0.412h-0.824v0.412h0.412v0.824h-0.412v0.412H88.39v0.824h-0.412
		v0.412h-0.824v0.412h0.412v0.412h-0.412v-0.412h-0.412v-0.412h-0.824v-0.824h-0.412v0.824h-0.412v-0.412h-2.06v0.412h0.412v0.412
		h-0.412v0.412h-1.236v0.412h0.824v0.412H82.21v0.412h-0.412v0.412h1.236v0.412h-0.412v0.412h0.412v0.824h0.412v-0.412h0.412v0.412
		h0.412v0.412h0.412v-0.412h0.412v0.824h0.412v-0.824h0.412v0.412h0.412v-0.412h0.412v0.824h0.412v-0.412h0.412v-0.824h0.412v-0.412
		h0.412v0.412h0.412v0.412h0.412v-0.824h-0.412v-0.412h0.824v-0.412h-0.412v-0.412h-0.412v-0.412h0.412v0.412h0.412v-0.412h0.412
		v-0.412h0.412v0.412h-0.412v0.412h0.824v-1.236h0.412v-0.412h0.412v0.412h0.412v-0.412h0.412v-0.412h0.412v-0.412h0.412v-0.412
		h0.412v-1.648h0.412v0.412h0.412v-1.236h0.412v0.412h0.412v-0.824h-0.412v-0.412h1.236v-0.824h1.236v-0.824h0.412V87.36h-0.412
		v-0.824h0.412v-0.412h-0.824v-0.412h1.236V85.3h-1.236V84.064z M91.685,84.064h-0.412v-0.412h0.412V84.064z M93.333,79.532h0.412
		v0.412h-0.412V79.532z M94.157,85.3v0.412h-0.412V85.3H94.157z M92.921,84.064h0.412v0.412h-0.412V84.064z M92.097,83.652V83.24
		h0.412v0.412H92.097z M94.981,88.184h-0.412v-0.412h-0.824v-0.824h-0.824v-0.412h0.412v-0.412h-0.824v-0.412h0.824v0.412h0.824
		v1.236h0.412v0.412h0.412V88.184z M95.805,82.828h-0.412v-0.412h0.412V82.828z"/>
	<rect x="87.978" y="75.412" width="0.412" height="0.412"/>
	<polygon points="90.037,72.116 90.037,72.94 91.273,72.94 91.273,72.528 90.861,72.528 90.861,72.116 90.449,72.116 90.449,71.292 
		89.625,71.292 89.625,72.116 	"/>
	<polygon points="88.39,69.644 88.39,70.88 89.213,70.88 89.213,70.468 88.801,70.468 88.801,69.644 	"/>
	<rect x="90.861" y="66.76" width="0.412" height="0.412"/>
	<rect x="89.213" y="70.88" width="0.412" height="0.412"/>
	<polygon points="101.573,55.225 100.749,55.225 100.749,55.637 101.161,55.637 101.161,56.049 101.573,56.049 	"/>
	<rect x="102.397" y="56.049" width="0.412" height="0.412"/>
	<rect x="101.985" y="55.637" width="0.412" height="0.412"/>
	<rect x="101.573" y="56.873" width="0.412" height="0.412"/>
	<polygon points="108.165,55.225 108.577,55.225 108.577,54.813 107.753,54.813 107.753,55.637 108.165,55.637 	"/>
	<polygon points="99.925,53.989 99.925,53.165 99.513,53.165 99.513,53.577 99.101,53.577 99.101,53.989 	"/>
	<rect x="89.625" y="95.599" width="0.412" height="0.412"/>
	<rect x="101.985" y="56.461" width="0.412" height="0.412"/>
	<rect x="91.685" y="81.18" width="0.412" height="0.412"/>
	<rect x="83.034" y="72.116" width="0.412" height="0.412"/>
	<rect x="80.562" y="66.348" width="0.412" height="0.412"/>
	<rect x="74.382" y="69.232" width="0.412" height="0.412"/>
	<rect x="80.974" y="67.584" width="0.412" height="0.412"/>
	<rect x="76.854" y="69.232" width="0.412" height="0.412"/>
	<rect x="78.502" y="67.996" width="0.412" height="0.412"/>
	<rect x="78.502" y="68.82" width="0.412" height="0.412"/>
	<rect x="79.326" y="70.88" width="0.412" height="0.412"/>
	<rect x="81.798" y="66.76" width="0.412" height="0.412"/>
	<rect x="82.622" y="67.996" width="0.412" height="0.412"/>
	<rect x="84.27" y="68.82" width="0.412" height="0.412"/>
	<rect x="82.21" y="68.408" width="0.412" height="0.412"/>
	<rect x="82.622" y="69.644" width="0.412" height="0.412"/>
	<rect x="82.21" y="70.056" width="0.412" height="0.412"/>
	<rect x="81.798" y="69.232" width="0.412" height="0.412"/>
	<rect x="78.914" y="66.76" width="0.824" height="0.412"/>
	<rect x="69.85" y="84.476" width="0.412" height="0.412"/>
	<rect x="78.09" y="87.772" width="0.412" height="0.412"/>
	<rect x="71.498" y="71.704" width="0.412" height="0.412"/>
	<rect x="79.738" y="67.996" width="0.412" height="0.824"/>
	<rect x="80.562" y="67.172" width="0.412" height="0.412"/>
	<rect x="70.674" y="70.468" width="0.412" height="0.412"/>
	<rect x="79.738" y="89.007" width="0.412" height="0.412"/>
	<rect x="70.674" y="69.644" width="0.412" height="0.412"/>
	<rect x="74.382" y="67.584" width="0.412" height="0.412"/>
	<rect x="102.809" y="56.461" width="0.412" height="0.412"/>
	<polygon points="74.382,68.408 74.382,68.82 74.794,68.82 74.794,69.232 75.206,69.232 75.206,67.996 74.794,67.996 74.794,68.408 
			"/>
	<rect x="74.794" y="67.172" width="0.412" height="0.412"/>
	<rect x="73.97" y="67.996" width="0.412" height="0.412"/>
	<rect x="71.086" y="69.232" width="0.412" height="0.412"/>
	<rect x="74.382" y="70.468" width="0.824" height="0.412"/>
</g>
</svg>
