<?xml version="1.0" encoding="iso-8859-1"?>
<!-- Generator: Adobe Illustrator 27.9.0, SVG Export Plug-In . SVG Version: 6.00 Build 0)  -->
<svg version="1.1" id="shapes" xmlns="http://www.w3.org/2000/svg" xmlns:xlink="http://www.w3.org/1999/xlink" x="0px" y="0px"
	 width="150px" height="150px" viewBox="0 0 150 150" enable-background="new 0 0 150 150" xml:space="preserve">
<g>
	<circle cx="129.865" cy="68.61" r="0.135"/>
	<path d="M126.371,68.431c-0.1,0-0.181,0.081-0.181,0.178c0,0.1,0.081,0.178,0.181,0.178c0.097,0,0.178-0.078,0.178-0.178
		C126.549,68.512,126.468,68.431,126.371,68.431z"/>
	<path d="M122.874,68.388c-0.124,0-0.222,0.1-0.222,0.222c0,0.124,0.097,0.224,0.222,0.224c0.121,0,0.221-0.1,0.221-0.224
		C123.096,68.488,122.996,68.388,122.874,68.388z"/>
	<path d="M119.377,68.345c-0.146,0-0.265,0.119-0.265,0.265c0,0.149,0.119,0.268,0.265,0.268s0.265-0.119,0.265-0.268
		C119.642,68.464,119.523,68.345,119.377,68.345z"/>
	<path d="M115.881,68.302c-0.17,0-0.308,0.138-0.308,0.308c0,0.173,0.138,0.311,0.308,0.311c0.173,0,0.311-0.138,0.311-0.311
		C116.191,68.439,116.054,68.302,115.881,68.302z"/>
	<path d="M112.386,68.258c-0.197,0-0.354,0.157-0.354,0.351c0,0.194,0.157,0.354,0.354,0.354c0.195,0,0.351-0.16,0.351-0.354
		C112.738,68.415,112.581,68.258,112.386,68.258z"/>
	<path d="M108.89,68.213c-0.219,0-0.397,0.178-0.397,0.397c0,0.219,0.178,0.397,0.397,0.397s0.397-0.178,0.397-0.397
		C109.287,68.391,109.109,68.213,108.89,68.213z"/>
	<circle cx="105.393" cy="68.61" r="0.44"/>
	<circle cx="101.896" cy="68.61" r="0.484"/>
	<path d="M98.402,68.083c-0.292,0-0.53,0.238-0.53,0.527c0,0.292,0.238,0.527,0.53,0.527c0.289,0,0.527-0.235,0.527-0.527
		C98.929,68.32,98.691,68.083,98.402,68.083z"/>
	<path d="M94.905,68.039c-0.316,0-0.57,0.257-0.57,0.57c0,0.316,0.254,0.573,0.57,0.573s0.57-0.257,0.57-0.573
		C95.475,68.296,95.221,68.039,94.905,68.039z"/>
	<path d="M91.408,67.996c-0.34,0-0.613,0.276-0.613,0.613c0,0.34,0.273,0.616,0.613,0.616c0.341,0,0.613-0.276,0.613-0.616
		C92.022,68.272,91.749,67.996,91.408,67.996z"/>
	<path d="M87.912,67.953c-0.362,0-0.657,0.295-0.657,0.657c0,0.365,0.295,0.659,0.657,0.659c0.365,0,0.659-0.295,0.659-0.659
		C88.571,68.248,88.277,67.953,87.912,67.953z"/>
	<path d="M84.418,67.91c-0.389,0-0.703,0.314-0.703,0.7c0,0.389,0.314,0.702,0.703,0.702c0.386,0,0.7-0.313,0.7-0.702
		C85.118,68.223,84.804,67.91,84.418,67.91z"/>
	<path d="M80.921,67.867c-0.413,0-0.746,0.333-0.746,0.743c0,0.414,0.332,0.746,0.746,0.746c0.411,0,0.746-0.332,0.746-0.746
		C81.667,68.199,81.332,67.867,80.921,67.867z"/>
	<circle cx="77.424" cy="68.61" r="0.789"/>
	<circle cx="73.927" cy="68.61" r="0.832"/>
	<path d="M70.433,67.734c-0.486,0-0.878,0.392-0.878,0.876c0,0.484,0.392,0.878,0.878,0.878c0.484,0,0.876-0.395,0.876-0.878
		C71.309,68.126,70.917,67.734,70.433,67.734z"/>
	<path d="M66.936,67.691c-0.508,0-0.922,0.411-0.922,0.919s0.414,0.922,0.922,0.922s0.919-0.414,0.919-0.922
		S67.444,67.691,66.936,67.691z"/>
	<path d="M63.44,67.648c-0.532,0-0.965,0.43-0.965,0.962s0.432,0.965,0.965,0.965c0.532,0,0.962-0.433,0.962-0.965
		S63.972,67.648,63.44,67.648z"/>
	<path d="M59.943,67.604c-0.554,0-1.005,0.449-1.005,1.005c0,0.557,0.451,1.008,1.005,1.008c0.557,0,1.008-0.451,1.008-1.008
		C60.951,68.053,60.5,67.604,59.943,67.604z"/>
	<path d="M56.449,67.561c-0.581,0-1.051,0.47-1.051,1.048c0,0.581,0.47,1.051,1.051,1.051c0.578,0,1.049-0.47,1.049-1.051
		C57.497,68.031,57.027,67.561,56.449,67.561z"/>
	<path d="M52.952,67.515c-0.605,0-1.094,0.492-1.094,1.094c0,0.605,0.489,1.094,1.094,1.094c0.603,0,1.095-0.489,1.095-1.094
		C54.046,68.007,53.555,67.515,52.952,67.515z"/>
	<circle cx="49.455" cy="68.61" r="1.138"/>
	<circle cx="45.958" cy="68.61" r="1.181"/>
	<path d="M42.464,67.385c-0.678,0-1.227,0.549-1.227,1.224c0,0.678,0.549,1.227,1.227,1.227c0.676,0,1.224-0.549,1.224-1.227
		C43.688,67.934,43.14,67.385,42.464,67.385z"/>
	<path d="M38.967,67.342c-0.703,0-1.27,0.567-1.27,1.267c0,0.7,0.567,1.27,1.27,1.27c0.7,0,1.267-0.57,1.267-1.27
		C40.235,67.91,39.667,67.342,38.967,67.342z"/>
	<path d="M35.471,67.299c-0.724,0-1.313,0.586-1.313,1.311c0,0.727,0.589,1.313,1.313,1.313s1.311-0.586,1.311-1.313
		C36.781,67.886,36.195,67.299,35.471,67.299z"/>
	<path d="M31.974,67.256c-0.749,0-1.354,0.605-1.354,1.354c0,0.749,0.605,1.357,1.354,1.357s1.357-0.608,1.357-1.357
		C33.331,67.861,32.722,67.256,31.974,67.256z"/>
	<path d="M28.48,67.213c-0.775,0-1.4,0.624-1.4,1.397s0.624,1.4,1.4,1.4c0.77,0,1.397-0.627,1.397-1.4S29.25,67.213,28.48,67.213z"
		/>
	<path d="M24.983,67.169c-0.797,0-1.443,0.643-1.443,1.44s0.646,1.443,1.443,1.443c0.797,0,1.443-0.646,1.443-1.443
		S25.78,67.169,24.983,67.169z"/>
	<circle cx="21.486" cy="68.61" r="1.486"/>
	<circle cx="129.865" cy="72.87" r="0.135"/>
	<path d="M126.371,72.691c-0.1,0-0.181,0.081-0.181,0.178c0,0.1,0.081,0.178,0.181,0.178c0.097,0,0.178-0.078,0.178-0.178
		C126.549,72.773,126.468,72.691,126.371,72.691z"/>
	<path d="M122.874,72.648c-0.124,0-0.222,0.1-0.222,0.222c0,0.124,0.097,0.224,0.222,0.224c0.121,0,0.221-0.1,0.221-0.224
		C123.096,72.748,122.996,72.648,122.874,72.648z"/>
	<path d="M119.377,72.605c-0.146,0-0.265,0.119-0.265,0.265c0,0.149,0.119,0.268,0.265,0.268s0.265-0.119,0.265-0.268
		C119.642,72.724,119.523,72.605,119.377,72.605z"/>
	<path d="M115.881,72.562c-0.17,0-0.308,0.138-0.308,0.308c0,0.173,0.138,0.311,0.308,0.311c0.173,0,0.311-0.138,0.311-0.311
		C116.191,72.7,116.054,72.562,115.881,72.562z"/>
	<path d="M112.386,72.519c-0.197,0-0.354,0.157-0.354,0.351c0,0.194,0.157,0.354,0.354,0.354c0.195,0,0.351-0.16,0.351-0.354
		C112.738,72.675,112.581,72.519,112.386,72.519z"/>
	<path d="M108.89,72.473c-0.219,0-0.397,0.178-0.397,0.397c0,0.219,0.178,0.397,0.397,0.397s0.397-0.178,0.397-0.397
		C109.287,72.651,109.109,72.473,108.89,72.473z"/>
	<circle cx="105.393" cy="72.87" r="0.44"/>
	<circle cx="101.896" cy="72.87" r="0.484"/>
	<path d="M98.402,72.343c-0.292,0-0.53,0.238-0.53,0.527c0,0.292,0.238,0.527,0.53,0.527c0.289,0,0.527-0.235,0.527-0.527
		C98.929,72.581,98.691,72.343,98.402,72.343z"/>
	<path d="M94.905,72.3c-0.316,0-0.57,0.257-0.57,0.57c0,0.316,0.254,0.573,0.57,0.573s0.57-0.257,0.57-0.573
		C95.475,72.556,95.221,72.3,94.905,72.3z"/>
	<path d="M91.408,72.257c-0.34,0-0.613,0.276-0.613,0.613c0,0.34,0.273,0.616,0.613,0.616c0.341,0,0.613-0.276,0.613-0.616
		C92.022,72.532,91.749,72.257,91.408,72.257z"/>
	<path d="M87.912,72.213c-0.362,0-0.657,0.295-0.657,0.657c0,0.365,0.295,0.659,0.657,0.659c0.365,0,0.659-0.295,0.659-0.659
		C88.571,72.508,88.277,72.213,87.912,72.213z"/>
	<path d="M84.418,72.17c-0.389,0-0.703,0.314-0.703,0.7c0,0.389,0.314,0.702,0.703,0.702c0.386,0,0.7-0.313,0.7-0.702
		C85.118,72.484,84.804,72.17,84.418,72.17z"/>
	<path d="M80.921,72.127c-0.413,0-0.746,0.333-0.746,0.743c0,0.414,0.332,0.746,0.746,0.746c0.411,0,0.746-0.332,0.746-0.746
		C81.667,72.459,81.332,72.127,80.921,72.127z"/>
	<circle cx="77.424" cy="72.87" r="0.789"/>
	<circle cx="73.927" cy="72.87" r="0.832"/>
	<path d="M70.433,71.994c-0.486,0-0.878,0.392-0.878,0.876s0.392,0.878,0.878,0.878c0.484,0,0.876-0.395,0.876-0.878
		S70.917,71.994,70.433,71.994z"/>
	<path d="M66.936,71.951c-0.508,0-0.922,0.411-0.922,0.919s0.414,0.922,0.922,0.922s0.919-0.414,0.919-0.922
		S67.444,71.951,66.936,71.951z"/>
	<path d="M63.44,71.908c-0.532,0-0.965,0.43-0.965,0.962s0.432,0.965,0.965,0.965c0.532,0,0.962-0.433,0.962-0.965
		S63.972,71.908,63.44,71.908z"/>
	<path d="M59.943,71.865c-0.554,0-1.005,0.449-1.005,1.005c0,0.557,0.451,1.008,1.005,1.008c0.557,0,1.008-0.451,1.008-1.008
		C60.951,72.313,60.5,71.865,59.943,71.865z"/>
	<path d="M56.449,71.821c-0.581,0-1.051,0.47-1.051,1.048c0,0.581,0.47,1.051,1.051,1.051c0.578,0,1.049-0.47,1.049-1.051
		C57.497,72.292,57.027,71.821,56.449,71.821z"/>
	<path d="M52.952,71.776c-0.605,0-1.094,0.492-1.094,1.094c0,0.605,0.489,1.094,1.094,1.094c0.603,0,1.095-0.489,1.095-1.094
		C54.046,72.267,53.555,71.776,52.952,71.776z"/>
	<circle cx="49.455" cy="72.87" r="1.138"/>
	<circle cx="45.958" cy="72.87" r="1.181"/>
	<path d="M42.464,71.646c-0.678,0-1.227,0.549-1.227,1.224c0,0.678,0.549,1.227,1.227,1.227c0.676,0,1.224-0.549,1.224-1.227
		C43.688,72.194,43.14,71.646,42.464,71.646z"/>
	<path d="M38.967,71.603c-0.703,0-1.27,0.567-1.27,1.267s0.567,1.27,1.27,1.27c0.7,0,1.267-0.57,1.267-1.27
		S39.667,71.603,38.967,71.603z"/>
	<path d="M35.471,71.559c-0.724,0-1.313,0.586-1.313,1.311c0,0.727,0.589,1.313,1.313,1.313s1.311-0.586,1.311-1.313
		C36.781,72.146,36.195,71.559,35.471,71.559z"/>
	<path d="M31.974,71.516c-0.749,0-1.354,0.605-1.354,1.354c0,0.749,0.605,1.357,1.354,1.357s1.357-0.608,1.357-1.357
		C33.331,72.121,32.722,71.516,31.974,71.516z"/>
	<path d="M28.48,71.473c-0.775,0-1.4,0.624-1.4,1.397s0.624,1.4,1.4,1.4c0.77,0,1.397-0.627,1.397-1.4S29.25,71.473,28.48,71.473z"
		/>
	<path d="M24.983,71.43c-0.797,0-1.443,0.643-1.443,1.44s0.646,1.443,1.443,1.443c0.797,0,1.443-0.646,1.443-1.443
		S25.78,71.43,24.983,71.43z"/>
	<circle cx="21.486" cy="72.87" r="1.486"/>
	<circle cx="129.865" cy="77.13" r="0.135"/>
	<path d="M126.371,76.952c-0.1,0-0.181,0.081-0.181,0.178c0,0.1,0.081,0.178,0.181,0.178c0.097,0,0.178-0.078,0.178-0.178
		C126.549,77.033,126.468,76.952,126.371,76.952z"/>
	<path d="M122.874,76.908c-0.124,0-0.222,0.1-0.222,0.222c0,0.124,0.097,0.224,0.222,0.224c0.121,0,0.221-0.1,0.221-0.224
		C123.096,77.008,122.996,76.908,122.874,76.908z"/>
	<path d="M119.377,76.865c-0.146,0-0.265,0.119-0.265,0.265c0,0.149,0.119,0.268,0.265,0.268s0.265-0.119,0.265-0.268
		C119.642,76.984,119.523,76.865,119.377,76.865z"/>
	<path d="M115.881,76.822c-0.17,0-0.308,0.138-0.308,0.308c0,0.173,0.138,0.311,0.308,0.311c0.173,0,0.311-0.138,0.311-0.311
		C116.191,76.96,116.054,76.822,115.881,76.822z"/>
	<path d="M112.386,76.779c-0.197,0-0.354,0.157-0.354,0.351c0,0.194,0.157,0.354,0.354,0.354c0.195,0,0.351-0.16,0.351-0.354
		C112.738,76.936,112.581,76.779,112.386,76.779z"/>
	<path d="M108.89,76.733c-0.219,0-0.397,0.178-0.397,0.397c0,0.219,0.178,0.397,0.397,0.397s0.397-0.178,0.397-0.397
		C109.287,76.911,109.109,76.733,108.89,76.733z"/>
	<circle cx="105.393" cy="77.13" r="0.44"/>
	<circle cx="101.896" cy="77.13" r="0.484"/>
	<path d="M98.402,76.603c-0.292,0-0.53,0.238-0.53,0.527c0,0.292,0.238,0.527,0.53,0.527c0.289,0,0.527-0.235,0.527-0.527
		C98.929,76.841,98.691,76.603,98.402,76.603z"/>
	<path d="M94.905,76.56c-0.316,0-0.57,0.257-0.57,0.57c0,0.316,0.254,0.573,0.57,0.573s0.57-0.257,0.57-0.573
		C95.475,76.817,95.221,76.56,94.905,76.56z"/>
	<path d="M91.408,76.517c-0.34,0-0.613,0.276-0.613,0.613c0,0.34,0.273,0.616,0.613,0.616c0.341,0,0.613-0.276,0.613-0.616
		C92.022,76.792,91.749,76.517,91.408,76.517z"/>
	<path d="M87.912,76.474c-0.362,0-0.657,0.295-0.657,0.657c0,0.365,0.295,0.659,0.657,0.659c0.365,0,0.659-0.295,0.659-0.659
		C88.571,76.768,88.277,76.474,87.912,76.474z"/>
	<path d="M84.418,76.43c-0.389,0-0.703,0.314-0.703,0.7c0,0.389,0.314,0.702,0.703,0.702c0.386,0,0.7-0.313,0.7-0.702
		C85.118,76.744,84.804,76.43,84.418,76.43z"/>
	<path d="M80.921,76.387c-0.413,0-0.746,0.333-0.746,0.743c0,0.414,0.332,0.746,0.746,0.746c0.411,0,0.746-0.332,0.746-0.746
		C81.667,76.719,81.332,76.387,80.921,76.387z"/>
	<circle cx="77.424" cy="77.13" r="0.789"/>
	<circle cx="73.927" cy="77.13" r="0.832"/>
	<path d="M70.433,76.255c-0.486,0-0.878,0.392-0.878,0.876s0.392,0.878,0.878,0.878c0.484,0,0.876-0.395,0.876-0.878
		S70.917,76.255,70.433,76.255z"/>
	<path d="M66.936,76.211c-0.508,0-0.922,0.411-0.922,0.919s0.414,0.922,0.922,0.922s0.919-0.414,0.919-0.922
		S67.444,76.211,66.936,76.211z"/>
	<path d="M63.44,76.168c-0.532,0-0.965,0.43-0.965,0.962s0.432,0.965,0.965,0.965c0.532,0,0.962-0.433,0.962-0.965
		S63.972,76.168,63.44,76.168z"/>
	<path d="M59.943,76.125c-0.554,0-1.005,0.449-1.005,1.005c0,0.557,0.451,1.008,1.005,1.008c0.557,0,1.008-0.451,1.008-1.008
		C60.951,76.574,60.5,76.125,59.943,76.125z"/>
	<path d="M56.449,76.082c-0.581,0-1.051,0.47-1.051,1.048c0,0.581,0.47,1.051,1.051,1.051c0.578,0,1.049-0.47,1.049-1.051
		C57.497,76.552,57.027,76.082,56.449,76.082z"/>
	<path d="M52.952,76.036c-0.605,0-1.094,0.492-1.094,1.094c0,0.605,0.489,1.094,1.094,1.094c0.603,0,1.095-0.489,1.095-1.094
		C54.046,76.528,53.555,76.036,52.952,76.036z"/>
	<circle cx="49.455" cy="77.13" r="1.138"/>
	<circle cx="45.958" cy="77.13" r="1.181"/>
	<path d="M42.464,75.906c-0.678,0-1.227,0.549-1.227,1.224c0,0.678,0.549,1.227,1.227,1.227c0.676,0,1.224-0.549,1.224-1.227
		C43.688,76.455,43.14,75.906,42.464,75.906z"/>
	<path d="M38.967,75.863c-0.703,0-1.27,0.567-1.27,1.267s0.567,1.27,1.27,1.27c0.7,0,1.267-0.57,1.267-1.27
		S39.667,75.863,38.967,75.863z"/>
	<path d="M35.471,75.82c-0.724,0-1.313,0.586-1.313,1.311c0,0.727,0.589,1.313,1.313,1.313s1.311-0.586,1.311-1.313
		C36.781,76.406,36.195,75.82,35.471,75.82z"/>
	<path d="M31.974,75.776c-0.749,0-1.354,0.605-1.354,1.354c0,0.749,0.605,1.357,1.354,1.357s1.357-0.608,1.357-1.357
		C33.331,76.382,32.722,75.776,31.974,75.776z"/>
	<path d="M28.48,75.733c-0.775,0-1.4,0.624-1.4,1.397s0.624,1.4,1.4,1.4c0.77,0,1.397-0.627,1.397-1.4S29.25,75.733,28.48,75.733z"
		/>
	<path d="M24.983,75.69c-0.797,0-1.443,0.643-1.443,1.44s0.646,1.443,1.443,1.443c0.797,0,1.443-0.646,1.443-1.443
		S25.78,75.69,24.983,75.69z"/>
	<circle cx="21.486" cy="77.13" r="1.486"/>
	<circle cx="129.865" cy="81.39" r="0.135"/>
	<path d="M126.371,81.212c-0.1,0-0.181,0.081-0.181,0.178c0,0.1,0.081,0.178,0.181,0.178c0.097,0,0.178-0.078,0.178-0.178
		C126.549,81.293,126.468,81.212,126.371,81.212z"/>
	<path d="M122.874,81.169c-0.124,0-0.222,0.1-0.222,0.222c0,0.124,0.097,0.224,0.222,0.224c0.121,0,0.221-0.1,0.221-0.224
		C123.096,81.269,122.996,81.169,122.874,81.169z"/>
	<path d="M119.377,81.126c-0.146,0-0.265,0.119-0.265,0.265c0,0.149,0.119,0.268,0.265,0.268s0.265-0.119,0.265-0.268
		C119.642,81.244,119.523,81.126,119.377,81.126z"/>
	<path d="M115.881,81.082c-0.17,0-0.308,0.138-0.308,0.308c0,0.173,0.138,0.311,0.308,0.311c0.173,0,0.311-0.138,0.311-0.311
		C116.191,81.22,116.054,81.082,115.881,81.082z"/>
	<path d="M112.386,81.039c-0.197,0-0.354,0.157-0.354,0.351c0,0.194,0.157,0.354,0.354,0.354c0.195,0,0.351-0.16,0.351-0.354
		C112.738,81.196,112.581,81.039,112.386,81.039z"/>
	<path d="M108.89,80.993c-0.219,0-0.397,0.178-0.397,0.397c0,0.219,0.178,0.397,0.397,0.397s0.397-0.178,0.397-0.397
		C109.287,81.172,109.109,80.993,108.89,80.993z"/>
	<circle cx="105.393" cy="81.39" r="0.44"/>
	<circle cx="101.896" cy="81.39" r="0.484"/>
	<path d="M98.402,80.863c-0.292,0-0.53,0.238-0.53,0.527c0,0.292,0.238,0.527,0.53,0.527c0.289,0,0.527-0.235,0.527-0.527
		C98.929,81.101,98.691,80.863,98.402,80.863z"/>
	<path d="M94.905,80.82c-0.316,0-0.57,0.257-0.57,0.57c0,0.316,0.254,0.573,0.57,0.573s0.57-0.257,0.57-0.573
		C95.475,81.077,95.221,80.82,94.905,80.82z"/>
	<path d="M91.408,80.777c-0.34,0-0.613,0.276-0.613,0.613c0,0.34,0.273,0.616,0.613,0.616c0.341,0,0.613-0.276,0.613-0.616
		C92.022,81.053,91.749,80.777,91.408,80.777z"/>
	<path d="M87.912,80.734c-0.362,0-0.657,0.295-0.657,0.657c0,0.365,0.295,0.659,0.657,0.659c0.365,0,0.659-0.295,0.659-0.659
		C88.571,81.028,88.277,80.734,87.912,80.734z"/>
	<path d="M84.418,80.69c-0.389,0-0.703,0.314-0.703,0.7c0,0.389,0.314,0.702,0.703,0.702c0.386,0,0.7-0.313,0.7-0.702
		C85.118,81.004,84.804,80.69,84.418,80.69z"/>
	<path d="M80.921,80.647c-0.413,0-0.746,0.333-0.746,0.743c0,0.414,0.332,0.746,0.746,0.746c0.411,0,0.746-0.332,0.746-0.746
		C81.667,80.98,81.332,80.647,80.921,80.647z"/>
	<circle cx="77.424" cy="81.39" r="0.789"/>
	<circle cx="73.927" cy="81.39" r="0.832"/>
	<path d="M70.433,80.515c-0.486,0-0.878,0.392-0.878,0.876c0,0.484,0.392,0.878,0.878,0.878c0.484,0,0.876-0.395,0.876-0.878
		C71.309,80.907,70.917,80.515,70.433,80.515z"/>
	<path d="M66.936,80.471c-0.508,0-0.922,0.411-0.922,0.919s0.414,0.922,0.922,0.922s0.919-0.414,0.919-0.922
		S67.444,80.471,66.936,80.471z"/>
	<path d="M63.44,80.428c-0.532,0-0.965,0.43-0.965,0.962s0.432,0.965,0.965,0.965c0.532,0,0.962-0.433,0.962-0.965
		S63.972,80.428,63.44,80.428z"/>
	<path d="M59.943,80.385c-0.554,0-1.005,0.449-1.005,1.005c0,0.557,0.451,1.008,1.005,1.008c0.557,0,1.008-0.451,1.008-1.008
		C60.951,80.834,60.5,80.385,59.943,80.385z"/>
	<path d="M56.449,80.342c-0.581,0-1.051,0.47-1.051,1.048c0,0.581,0.47,1.051,1.051,1.051c0.578,0,1.049-0.47,1.049-1.051
		C57.497,80.812,57.027,80.342,56.449,80.342z"/>
	<path d="M52.952,80.296c-0.605,0-1.094,0.492-1.094,1.094c0,0.605,0.489,1.094,1.094,1.094c0.603,0,1.095-0.489,1.095-1.094
		C54.046,80.788,53.555,80.296,52.952,80.296z"/>
	<circle cx="49.455" cy="81.39" r="1.138"/>
	<circle cx="45.958" cy="81.39" r="1.181"/>
	<path d="M42.464,80.166c-0.678,0-1.227,0.549-1.227,1.224c0,0.678,0.549,1.227,1.227,1.227c0.676,0,1.224-0.549,1.224-1.227
		C43.688,80.715,43.14,80.166,42.464,80.166z"/>
	<path d="M38.967,80.123c-0.703,0-1.27,0.567-1.27,1.267c0,0.7,0.567,1.27,1.27,1.27c0.7,0,1.267-0.57,1.267-1.27
		C40.235,80.69,39.667,80.123,38.967,80.123z"/>
	<path d="M35.471,80.08c-0.724,0-1.313,0.586-1.313,1.311c0,0.727,0.589,1.313,1.313,1.313s1.311-0.586,1.311-1.313
		C36.781,80.666,36.195,80.08,35.471,80.08z"/>
	<path d="M31.974,80.037c-0.749,0-1.354,0.605-1.354,1.354c0,0.749,0.605,1.357,1.354,1.357s1.357-0.608,1.357-1.357
		C33.331,80.642,32.722,80.037,31.974,80.037z"/>
	<path d="M28.48,79.993c-0.775,0-1.4,0.624-1.4,1.397s0.624,1.4,1.4,1.4c0.77,0,1.397-0.627,1.397-1.4S29.25,79.993,28.48,79.993z"
		/>
	<path d="M24.983,79.95c-0.797,0-1.443,0.643-1.443,1.44s0.646,1.443,1.443,1.443c0.797,0,1.443-0.646,1.443-1.443
		S25.78,79.95,24.983,79.95z"/>
	<circle cx="21.486" cy="81.39" r="1.486"/>
</g>
</svg>
