<?xml version="1.0" encoding="iso-8859-1"?>
<!-- Generator: Adobe Illustrator 27.9.0, SVG Export Plug-In . SVG Version: 6.00 Build 0)  -->
<svg version="1.1" id="shapes" xmlns="http://www.w3.org/2000/svg" xmlns:xlink="http://www.w3.org/1999/xlink" x="0px" y="0px"
	 width="150px" height="150px" viewBox="0 0 150 150" enable-background="new 0 0 150 150" xml:space="preserve">
<g>
	<ellipse transform="matrix(0.7071 -0.7071 0.7071 0.7071 -6.0858 46.1967)" cx="52.721" cy="30.445" rx="10.445" ry="10.445"/>
	<ellipse transform="matrix(0.7071 -0.7071 0.7071 0.7071 0.4395 61.95)" cx="75" cy="30.445" rx="10.445" ry="10.445"/>
	<ellipse transform="matrix(0.7071 -0.7071 0.7071 0.7071 6.9647 77.7033)" cx="97.279" cy="30.445" rx="10.445" ry="10.445"/>
	<path d="M119.557,40.889c5.756,0,10.441-4.686,10.441-10.445c0-5.759-4.686-10.444-10.441-10.444
		c-5.759,0-10.445,4.686-10.445,10.444C109.113,36.204,113.798,40.889,119.557,40.889z"/>
	<ellipse transform="matrix(0.7071 -0.7071 0.7071 0.7071 -8.7886 84.2286)" cx="97.279" cy="52.723" rx="10.445" ry="10.445"/>
	<path d="M119.557,42.279c-5.759,0-10.445,4.686-10.445,10.444c0,5.759,4.686,10.445,10.445,10.445
		c5.756,0,10.441-4.686,10.441-10.445C129.998,46.964,125.313,42.279,119.557,42.279z"/>
	<ellipse transform="matrix(0.7071 -0.7071 0.7071 0.7071 -31.0672 75.0005)" cx="75" cy="75.002" rx="10.445" ry="10.445"/>
	<path d="M119.557,64.557c-5.759,0-10.445,4.686-10.445,10.444c0,5.759,4.686,10.445,10.445,10.445
		c5.756,0,10.441-4.686,10.441-10.445C129.998,69.243,125.313,64.557,119.557,64.557z"/>
	<path d="M52.721,86.836c-5.759,0-10.445,4.686-10.445,10.441c0,5.759,4.686,10.445,10.445,10.445
		c5.759,0,10.444-4.686,10.444-10.445C63.166,91.521,58.48,86.836,52.721,86.836z"/>
	<path d="M119.557,86.836c-5.759,0-10.445,4.686-10.445,10.441c0,5.759,4.686,10.445,10.445,10.445
		c5.756,0,10.441-4.686,10.441-10.445C129.998,91.521,125.313,86.836,119.557,86.836z"/>
	<path d="M30.443,109.111c-5.756,0-10.441,4.686-10.441,10.445c0,5.759,4.686,10.445,10.441,10.445
		c5.759,0,10.444-4.686,10.444-10.445C40.887,113.796,36.202,109.111,30.443,109.111z"/>
</g>
</svg>
