<?xml version="1.0" encoding="UTF-8" ?>
<!DOCTYPE svg PUBLIC "-//W3C//DTD SVG 1.1//EN" "http://www.w3.org/Graphics/SVG/1.1/DTD/svg11.dtd">
<svg width="707pt" height="1000pt" viewBox="0 0 707 1000" version="1.1" xmlns="http://www.w3.org/2000/svg">
<g id="#f1e3c4ff">
<path fill="#f1e3c4" opacity="1.00" d=" M 71.10 87.58 C 80.38 87.46 89.66 87.52 98.95 87.55 C 97.37 92.65 97.11 98.33 99.61 103.19 C 103.24 110.79 111.60 115.76 120.00 115.48 C 129.37 115.88 138.75 109.66 141.58 100.64 C 143.02 96.37 142.35 91.78 141.27 87.52 C 149.51 87.57 157.75 87.45 165.99 87.57 C 164.86 92.82 164.85 98.60 167.73 103.32 C 171.69 110.45 179.90 114.76 188.00 114.46 C 196.26 114.49 204.51 109.71 208.07 102.15 C 210.39 97.64 210.22 92.37 209.13 87.55 C 217.09 87.51 225.05 87.50 233.01 87.55 C 231.71 92.17 231.41 97.15 233.44 101.62 C 236.86 110.02 246.03 115.48 255.03 114.86 C 264.44 115.06 273.63 108.40 276.09 99.27 C 277.13 95.43 276.60 91.40 275.82 87.56 C 283.90 87.48 291.98 87.54 300.05 87.55 C 299.27 91.99 299.14 96.73 301.08 100.92 C 304.53 108.97 313.29 114.23 322.00 113.80 C 331.70 114.21 341.41 107.38 343.68 97.82 C 344.68 94.46 344.13 90.93 343.57 87.54 C 351.98 87.51 360.39 87.52 368.79 87.53 C 366.73 93.08 366.27 99.57 369.10 104.94 C 373.54 113.86 384.50 118.58 394.11 116.42 C 402.50 114.91 409.94 108.15 411.45 99.64 C 412.30 95.55 411.31 91.43 409.97 87.58 C 418.58 87.44 427.20 87.58 435.81 87.50 C 434.37 92.30 433.81 97.59 435.90 102.31 C 438.66 109.27 445.39 114.26 452.72 115.46 C 463.11 117.59 474.92 111.51 478.27 101.23 C 479.88 96.78 479.25 91.98 477.96 87.55 C 486.23 87.51 494.51 87.52 502.78 87.54 C 501.09 92.80 500.56 98.80 503.13 103.87 C 507.64 113.41 519.44 118.45 529.51 115.62 C 536.91 113.82 543.46 108.09 545.38 100.59 C 546.67 96.27 545.83 91.75 544.49 87.56 C 552.97 87.49 561.44 87.51 569.92 87.56 C 568.87 91.49 568.05 95.69 569.46 99.66 C 571.96 109.07 581.51 115.27 591.00 115.38 C 599.50 115.37 608.12 110.58 611.73 102.72 C 614.06 97.99 613.87 92.52 612.45 87.55 C 620.37 87.51 628.29 87.49 636.21 87.56 C 636.10 93.48 636.52 99.41 635.97 105.32 C 628.46 105.61 621.17 109.92 617.58 116.57 C 614.11 122.72 614.46 130.76 618.40 136.62 C 622.16 142.61 629.10 145.98 636.01 146.59 C 636.39 153.59 636.34 160.63 636.02 167.64 C 628.81 168.70 621.86 172.80 618.49 179.42 C 614.46 186.88 616.26 196.79 622.43 202.54 C 626.10 206.24 631.14 208.16 636.20 209.04 C 636.15 215.87 636.41 222.72 636.05 229.55 C 630.56 230.01 625.20 232.36 621.42 236.41 C 616.70 241.13 614.67 248.36 616.35 254.83 C 618.31 262.61 625.25 268.71 633.07 270.18 C 634.08 270.64 636.52 270.27 636.21 272.03 C 636.24 278.67 636.27 285.32 636.16 291.97 C 629.73 293.01 623.54 296.42 620.04 302.03 C 615.89 308.21 615.90 316.78 620.00 322.98 C 623.44 328.67 629.71 332.00 636.12 333.15 C 636.21 340.22 636.47 347.32 635.98 354.39 C 626.74 354.06 617.56 360.20 614.66 369.04 C 613.68 371.90 613.68 374.94 613.72 377.92 C 611.94 379.25 609.55 380.14 608.46 382.14 C 608.96 383.42 609.65 384.62 610.28 385.84 C 609.37 385.85 608.46 385.86 607.57 385.88 C 606.13 387.87 604.28 389.51 601.85 390.10 C 601.00 391.66 600.05 393.15 599.00 394.57 C 596.25 389.10 597.43 382.81 597.17 376.93 C 596.87 373.37 598.88 370.33 600.71 367.48 C 598.79 366.23 596.80 364.64 597.21 362.05 C 597.27 343.37 597.25 324.68 597.26 306.00 C 597.93 294.65 596.77 283.30 597.30 271.95 C 597.58 268.85 598.39 265.72 597.64 262.63 C 598.57 262.51 599.49 262.39 600.43 262.29 C 600.63 261.77 601.02 260.73 601.21 260.22 C 599.75 258.65 597.23 257.44 597.33 254.99 C 597.03 241.33 597.48 227.65 597.16 213.99 C 596.89 209.76 598.91 205.63 597.87 201.43 C 596.75 196.35 597.37 191.14 597.30 186.00 C 597.23 171.80 597.12 157.59 597.55 143.40 C 597.68 139.66 597.49 135.92 597.00 132.22 L 596.11 131.91 C 578.09 131.31 560.03 131.92 542.00 131.70 C 417.67 131.71 293.34 131.69 169.01 131.66 C 149.96 131.84 130.89 131.37 111.85 131.88 C 111.59 136.92 111.58 141.96 111.65 147.00 C 111.69 356.00 111.62 565.00 111.69 774.00 C 111.82 806.65 111.36 839.30 111.92 871.95 C 135.94 872.70 159.98 871.93 184.01 872.22 C 229.29 872.19 274.57 872.25 319.85 872.31 C 394.23 872.27 468.61 872.33 542.99 872.27 C 560.70 872.02 578.43 872.70 596.12 871.98 L 597.08 871.86 C 597.77 865.53 596.37 859.07 598.09 852.86 C 599.39 848.90 597.00 845.03 597.23 841.04 C 597.42 836.66 596.66 831.92 599.05 827.99 C 600.96 825.34 597.26 823.00 597.54 820.39 C 598.48 818.42 600.46 817.21 601.99 815.73 C 604.32 818.08 605.49 821.17 606.11 824.37 C 610.21 820.91 611.57 815.58 613.79 810.92 C 614.64 811.61 615.50 812.30 616.37 813.00 C 617.59 821.38 624.11 828.60 632.35 830.60 C 633.57 831.15 635.39 830.82 636.16 832.12 C 636.32 839.42 636.21 846.73 636.17 854.03 C 628.31 854.51 620.50 858.75 616.89 865.92 C 613.06 872.98 614.43 882.28 619.95 888.06 C 624.00 892.66 630.00 895.09 636.04 895.50 C 636.42 901.01 636.17 906.54 636.20 912.07 C 627.89 912.09 619.57 912.16 611.26 912.02 C 611.22 906.66 609.44 901.22 605.56 897.42 C 598.86 890.27 587.41 888.34 578.66 892.66 C 571.33 896.01 566.05 903.71 566.42 911.88 C 558.84 912.20 551.25 912.25 543.68 911.85 C 543.63 902.68 536.50 894.62 527.81 892.34 C 518.32 889.52 507.05 893.37 501.86 901.93 C 499.92 904.88 499.25 908.40 498.81 911.85 C 491.52 912.26 484.21 912.12 476.91 911.98 C 477.15 903.52 471.26 895.70 463.52 892.70 C 459.60 890.98 455.22 890.91 451.04 891.26 C 440.82 892.38 432.02 901.49 432.05 911.93 C 424.54 912.17 417.02 912.25 409.53 911.85 C 408.96 905.95 406.09 900.23 401.24 896.73 C 393.15 890.48 380.87 890.48 372.81 896.77 C 367.97 900.26 365.15 905.99 364.56 911.86 C 357.10 912.32 349.61 912.01 342.14 912.07 C 342.07 906.43 340.65 900.54 336.58 896.42 C 328.95 887.77 314.68 886.69 305.57 893.59 C 299.77 897.74 296.51 904.91 297.21 912.02 C 289.57 912.23 281.94 912.03 274.31 911.88 C 274.90 904.76 270.93 897.77 265.00 893.98 C 256.96 888.55 245.52 888.92 237.83 894.83 C 232.52 898.74 229.31 905.32 229.64 911.93 C 222.34 912.22 215.03 912.10 207.72 912.03 C 207.90 906.24 205.91 900.36 201.68 896.32 C 194.19 888.62 181.29 887.44 172.39 893.39 C 166.06 897.26 162.54 904.65 162.75 911.98 C 155.26 912.15 147.77 912.17 140.29 911.97 C 140.14 905.23 136.87 898.57 131.18 894.84 C 123.26 889.20 111.87 889.33 104.03 895.05 C 98.58 898.87 95.30 905.30 95.22 911.94 C 87.20 912.17 79.15 912.20 71.12 911.93 C 71.14 906.45 71.11 900.98 71.16 895.52 C 77.46 895.23 83.85 892.91 88.09 888.09 C 94.28 881.77 95.23 871.10 90.10 863.86 C 86.02 857.48 78.45 854.28 71.10 853.81 C 71.18 846.36 71.11 838.92 71.14 831.47 C 79.78 831.99 88.87 827.62 92.88 819.77 C 96.23 813.66 95.80 805.81 91.89 800.06 C 87.50 793.13 79.13 789.75 71.14 789.97 C 71.15 783.05 71.11 776.13 71.14 769.22 C 77.62 768.84 84.28 766.67 88.66 761.66 C 95.02 755.15 95.71 744.05 90.19 736.82 C 85.92 730.70 78.43 727.67 71.15 727.46 C 71.10 720.75 71.15 714.04 71.11 707.34 C 77.49 707.30 84.04 705.23 88.56 700.56 C 94.79 694.65 96.41 684.46 91.99 677.03 C 87.95 669.57 79.36 665.68 71.10 665.71 C 71.16 658.79 71.11 651.87 71.13 644.95 C 78.96 644.60 86.87 640.74 90.77 633.73 C 95.31 626.19 93.66 615.73 87.15 609.85 C 82.95 605.55 76.98 603.69 71.12 603.24 C 71.13 596.28 71.15 589.32 71.11 582.37 C 77.72 582.34 84.44 579.91 88.93 574.95 C 93.55 569.87 95.69 562.32 93.29 555.73 C 90.43 546.41 80.61 540.45 71.07 540.89 C 71.19 533.88 71.08 526.87 71.15 519.86 C 80.48 519.73 89.77 513.59 92.33 504.41 C 94.57 497.37 91.88 489.40 86.51 484.51 C 82.37 480.64 76.77 478.65 71.16 478.39 C 71.08 471.64 71.18 464.89 71.09 458.14 C 79.52 458.07 88.07 453.51 91.69 445.70 C 95.40 438.39 93.53 428.96 87.64 423.36 C 83.37 418.91 77.21 416.76 71.12 416.60 C 71.15 409.60 71.09 402.61 71.17 395.61 C 77.92 395.26 84.52 392.06 88.56 386.57 C 93.20 380.52 93.78 371.72 89.81 365.19 C 86.09 358.51 78.61 354.70 71.15 354.17 C 71.12 347.20 71.17 340.22 71.13 333.25 C 78.06 333.52 85.32 331.30 90.10 326.09 C 96.23 319.95 97.46 309.60 92.75 302.27 C 88.31 294.91 79.50 291.21 71.10 291.74 C 71.16 284.77 71.16 277.80 71.13 270.83 C 78.81 270.89 86.73 267.57 91.06 261.04 C 95.96 254.22 95.54 244.27 90.19 237.82 C 85.70 231.99 78.30 229.31 71.13 229.08 C 71.13 222.39 71.16 215.70 71.13 209.01 C 77.97 209.20 85.02 206.83 89.67 201.66 C 95.72 195.51 96.73 185.20 92.08 177.97 C 87.80 170.87 79.27 167.11 71.14 167.54 C 71.14 160.60 71.14 153.66 71.13 146.72 C 78.42 146.36 85.96 143.40 90.20 137.19 C 95.33 130.32 95.03 120.07 89.50 113.51 C 85.14 107.91 78.09 105.21 71.15 104.93 C 71.10 99.14 71.17 93.36 71.10 87.58 Z" />
</g>
<g id="#f7cb74ff">
<path fill="#f7cb74" opacity="1.00" d=" M 111.85 131.88 C 130.89 131.37 149.96 131.84 169.01 131.66 C 293.34 131.69 417.67 131.71 542.00 131.70 C 560.03 131.92 578.09 131.31 596.11 131.91 C 596.60 143.68 596.25 155.46 596.27 167.24 C 594.98 167.35 593.71 167.47 592.44 167.60 C 592.56 165.15 592.79 162.70 593.13 160.27 C 591.01 163.97 585.33 164.18 584.90 169.01 C 583.36 168.91 581.82 168.84 580.30 168.80 C 580.09 167.75 579.89 166.70 579.70 165.66 C 580.52 165.91 581.35 166.16 582.19 166.42 C 582.85 165.24 583.50 164.05 584.17 162.88 C 583.05 161.78 582.18 160.31 580.75 159.62 C 577.53 159.74 574.02 160.35 571.74 162.85 C 574.41 163.83 577.01 165.06 579.28 166.81 C 575.28 168.18 570.80 168.26 566.81 166.86 C 563.91 165.06 562.61 161.63 560.77 158.90 C 560.36 159.10 559.52 159.51 559.10 159.71 C 559.94 161.12 560.78 162.55 561.62 163.98 C 558.28 166.48 555.37 169.77 551.19 170.84 C 551.76 167.19 549.04 164.79 547.00 162.21 C 546.24 159.36 546.28 156.38 546.03 153.46 C 544.19 154.08 542.34 154.66 540.49 155.20 C 543.11 158.16 544.73 161.82 545.14 165.75 C 543.00 164.88 540.89 163.95 538.80 162.99 C 539.38 161.27 539.98 159.55 540.58 157.84 C 539.72 157.49 538.87 157.14 538.02 156.80 C 536.08 159.30 535.43 162.39 535.43 165.50 C 531.55 166.21 527.56 166.04 523.70 166.77 C 520.47 168.94 519.13 172.84 517.90 176.35 C 519.74 176.60 521.58 176.83 523.43 177.03 C 519.84 178.61 516.01 179.54 512.15 180.17 C 513.39 178.73 514.66 177.32 515.95 175.92 C 514.85 174.15 513.81 172.35 512.85 170.51 C 510.10 172.20 507.86 174.53 505.92 177.08 C 505.23 177.02 503.86 176.88 503.17 176.81 C 503.12 176.18 503.03 174.93 502.99 174.30 C 504.71 172.90 508.96 171.77 507.21 168.83 C 505.86 165.64 502.12 166.28 499.39 166.68 C 500.96 169.17 501.79 172.00 501.74 174.95 C 499.78 175.33 497.73 176.11 495.75 175.38 C 495.07 173.56 496.91 172.05 497.40 170.39 C 498.43 168.77 497.57 166.89 497.37 165.16 C 495.45 166.53 493.43 167.97 490.96 167.90 C 490.67 165.91 490.37 163.92 490.03 161.94 C 488.01 163.28 486.03 164.69 484.23 166.31 C 483.04 165.37 481.87 164.42 480.70 163.47 C 480.13 164.89 479.65 166.35 479.26 167.84 C 477.38 167.00 475.50 166.15 473.65 165.27 C 473.36 166.78 473.44 168.45 472.67 169.83 C 470.40 172.56 467.08 174.04 464.11 175.85 C 462.60 174.75 461.06 173.70 459.50 172.68 C 460.24 174.10 461.00 175.50 461.77 176.91 C 458.90 178.21 455.83 179.08 452.65 178.71 C 452.47 177.18 452.31 175.65 452.15 174.13 C 448.22 173.69 444.49 174.93 441.66 177.70 C 441.41 177.56 440.89 177.29 440.63 177.16 C 441.32 174.92 441.61 172.59 441.83 170.27 C 437.54 169.01 432.73 172.83 434.05 177.36 C 430.67 177.09 429.11 174.13 427.31 171.71 C 425.57 169.36 422.45 169.37 419.82 169.29 C 420.84 170.28 421.87 171.28 422.91 172.27 C 422.51 173.13 422.11 173.98 421.72 174.84 C 419.18 174.40 416.67 173.75 414.27 172.81 C 414.38 171.25 414.50 169.70 414.63 168.15 C 413.17 168.84 411.73 169.54 410.28 170.25 C 410.19 173.34 412.70 174.75 415.15 175.90 C 418.07 177.15 417.94 180.72 418.70 183.32 C 417.27 183.43 415.85 183.71 414.48 184.12 C 414.33 182.11 414.45 180.04 413.83 178.10 C 410.56 175.53 406.72 173.61 402.60 172.93 C 402.21 174.57 401.82 176.21 401.45 177.86 C 398.10 178.46 394.72 178.07 391.44 177.28 C 390.73 179.62 390.19 182.04 389.08 184.24 C 387.02 186.22 384.42 183.30 382.81 181.96 C 383.47 179.94 385.94 180.05 387.59 179.31 C 388.11 176.12 388.20 172.37 384.84 170.69 C 384.54 173.18 384.84 175.68 385.49 178.09 C 382.69 177.14 380.06 175.79 377.58 174.21 C 380.82 172.07 383.95 169.54 385.25 165.74 C 383.46 165.26 381.69 164.71 379.96 164.06 C 380.12 169.63 375.13 172.99 373.05 177.72 C 371.10 175.04 371.25 171.88 372.31 168.90 C 372.07 168.71 371.59 168.32 371.35 168.13 C 369.82 169.79 368.28 171.44 366.68 173.03 L 365.92 172.34 C 364.10 171.74 362.22 171.35 360.36 170.93 C 359.20 174.06 358.22 177.27 357.61 180.56 C 353.74 198.93 345.42 215.88 337.77 232.88 C 331.22 247.76 321.20 261.75 319.84 278.38 C 319.13 282.58 317.92 286.70 317.68 290.98 C 316.95 297.66 317.72 304.37 318.07 311.05 C 318.67 323.37 322.47 335.19 324.87 347.21 C 327.00 357.87 330.38 368.25 332.08 379.00 C 333.36 387.28 334.14 395.64 334.27 404.02 C 334.63 422.39 336.45 440.81 334.77 459.16 C 331.62 451.20 329.77 442.82 327.39 434.62 C 322.44 412.97 322.31 390.63 320.41 368.60 C 318.35 346.86 312.34 325.54 302.37 306.10 C 294.99 291.96 287.84 277.55 278.17 264.81 C 272.28 255.36 264.75 247.11 258.19 238.15 C 253.12 231.46 247.75 225.02 242.29 218.65 C 232.46 207.75 223.45 196.16 214.31 184.69 C 210.58 180.07 207.26 174.83 201.96 171.83 C 201.41 171.49 200.30 170.80 199.75 170.46 C 198.93 169.94 198.11 169.43 197.29 168.92 C 197.15 174.28 197.29 179.64 197.35 185.00 C 197.32 203.07 200.81 220.89 201.63 238.91 C 202.55 256.62 205.59 274.15 209.65 291.39 C 215.46 314.99 223.45 338.08 234.11 359.94 C 244.61 384.06 260.09 405.80 278.69 424.33 C 287.05 433.30 296.36 441.56 303.01 451.98 C 309.98 463.39 315.83 475.58 319.74 488.40 C 326.14 507.54 326.46 528.03 326.15 548.01 C 325.98 556.71 327.05 565.46 325.80 574.12 C 323.64 569.79 322.05 565.09 322.19 560.20 C 321.21 542.26 316.32 524.79 310.83 507.77 C 309.03 501.24 307.12 494.75 305.10 488.29 C 305.02 487.97 304.87 487.31 304.79 486.99 C 303.83 483.17 303.18 479.15 301.11 475.75 C 299.71 474.91 298.05 474.69 296.50 474.25 C 296.24 478.19 296.22 482.14 296.14 486.09 C 294.99 492.97 293.37 499.91 294.06 506.93 C 294.66 514.41 294.96 522.09 297.78 529.15 C 302.06 538.83 307.13 548.15 313.01 556.96 C 318.33 564.88 320.26 574.40 321.45 583.71 C 323.48 597.19 323.90 610.88 323.10 624.47 C 319.75 619.66 317.82 614.08 314.77 609.11 C 311.79 604.21 309.81 598.81 307.50 593.60 C 305.43 585.12 302.02 577.08 299.12 568.87 C 295.07 558.36 292.50 547.39 289.30 536.61 C 286.84 528.27 284.92 519.70 281.26 511.77 C 278.86 504.50 275.61 497.55 272.40 490.62 C 267.43 480.07 260.41 470.70 253.67 461.25 C 248.55 454.13 242.33 447.93 236.87 441.10 C 231.52 435.07 226.42 428.82 221.02 422.82 C 220.03 421.44 219.04 420.06 218.01 418.71 C 213.79 413.66 209.89 407.08 202.69 406.30 C 202.51 407.77 202.21 409.26 202.36 410.76 C 204.45 422.06 207.71 433.08 210.71 444.16 C 211.64 447.55 212.50 450.96 213.48 454.34 C 217.95 470.78 223.59 486.88 230.50 502.45 C 236.82 517.20 243.14 532.17 252.35 545.40 C 254.25 548.97 256.36 552.43 258.57 555.83 C 262.84 561.96 267.43 567.96 272.99 572.99 C 280.88 580.05 288.32 587.59 295.73 595.15 C 300.99 601.48 306.07 608.13 309.25 615.79 C 311.04 620.16 312.96 624.52 315.88 628.28 C 316.27 629.15 316.65 630.04 317.04 630.93 C 318.90 637.49 319.92 644.28 319.95 651.11 C 314.32 645.82 307.92 641.40 300.92 638.13 C 299.53 640.42 297.96 642.98 299.12 645.74 C 302.64 657.82 312.13 667.08 322.24 674.03 C 321.77 677.05 322.02 680.42 320.08 683.00 C 317.87 686.11 315.18 688.87 313.15 692.12 C 309.18 698.32 307.37 705.60 306.12 712.77 C 307.80 713.49 309.46 714.27 311.08 715.13 C 312.50 712.17 313.81 709.16 315.26 706.22 C 317.87 701.35 321.70 697.30 324.86 692.80 C 327.75 723.95 328.20 755.29 328.56 786.55 C 329.55 798.34 329.59 810.18 330.10 821.99 C 330.25 827.60 329.51 833.21 329.81 838.82 C 331.07 840.26 333.10 840.66 334.80 841.41 C 337.85 841.74 340.93 841.56 343.96 841.14 C 342.30 842.02 340.71 843.02 339.11 844.00 C 339.34 844.83 339.59 845.67 339.83 846.52 C 341.21 845.61 342.58 844.69 343.94 843.76 C 346.01 845.32 348.03 846.96 350.04 848.61 C 348.34 849.20 346.71 849.97 345.15 850.88 C 347.82 851.76 350.30 853.14 353.03 853.87 C 352.43 854.92 351.84 856.00 351.25 857.08 C 350.10 856.15 348.96 855.24 347.81 854.34 C 348.56 856.41 349.35 858.47 350.21 860.52 C 346.59 858.08 342.18 857.92 337.97 857.96 C 339.50 859.89 341.13 861.74 342.96 863.39 C 342.08 864.24 341.21 865.10 340.35 865.97 C 337.31 862.62 332.12 858.01 327.61 861.55 C 329.38 862.63 331.19 863.66 333.06 864.57 C 331.58 865.11 330.11 865.69 328.66 866.30 C 331.48 867.32 334.49 867.47 337.42 866.85 C 337.47 867.76 337.54 868.67 337.51 869.60 C 334.17 871.23 330.11 870.87 326.88 869.18 C 325.28 868.06 324.01 866.55 322.46 865.38 C 320.99 864.83 319.37 865.12 317.84 865.03 C 318.31 867.50 318.90 869.96 319.85 872.31 C 274.57 872.25 229.29 872.19 184.01 872.22 C 159.98 871.93 135.94 872.70 111.92 871.95 C 111.36 839.30 111.82 806.65 111.69 774.00 C 111.62 565.00 111.69 356.00 111.65 147.00 C 111.58 141.96 111.59 136.92 111.85 131.88 M 130.26 827.24 C 127.01 830.02 126.94 835.94 130.64 838.38 C 134.22 840.77 138.85 840.42 142.61 842.41 C 146.06 844.05 145.30 849.70 141.89 850.93 C 138.71 852.24 134.75 852.22 131.88 850.18 C 130.51 848.75 129.64 846.95 128.66 845.27 C 128.03 845.26 126.76 845.23 126.13 845.22 C 126.78 847.54 127.21 850.17 129.19 851.80 C 132.80 855.03 138.27 854.86 142.65 853.55 C 147.45 852.07 149.60 845.58 146.42 841.63 C 142.89 837.85 137.15 838.51 132.84 836.20 C 130.01 834.51 130.42 829.60 133.46 828.36 C 135.99 827.23 139.08 826.98 141.60 828.28 C 143.93 829.80 144.09 833.65 147.18 834.20 C 147.11 832.60 147.40 830.88 146.59 829.44 C 143.51 823.82 134.82 823.10 130.26 827.24 M 161.22 827.16 C 157.58 836.11 153.96 845.08 150.26 854.02 C 151.34 853.86 152.42 853.72 153.50 853.59 C 154.43 851.50 155.36 849.41 156.30 847.33 C 161.09 847.19 165.90 846.89 170.69 847.33 C 172.12 849.35 173.06 851.67 174.11 853.91 C 174.80 853.90 176.20 853.86 176.90 853.85 C 175.30 848.76 172.96 843.96 171.01 839.01 C 169.06 834.25 167.45 829.33 164.80 824.90 C 163.33 825.14 161.63 825.46 161.22 827.16 M 181.62 829.62 C 175.39 837.10 178.09 851.38 188.22 853.85 C 193.47 855.70 198.97 853.52 202.95 850.00 C 203.12 851.23 203.29 852.47 203.47 853.72 C 204.06 853.77 205.24 853.87 205.83 853.91 C 206.14 848.91 206.14 843.89 205.93 838.89 C 201.98 838.62 197.98 838.28 194.06 838.98 C 193.97 839.51 193.78 840.57 193.69 841.10 C 196.79 841.22 199.90 841.34 203.00 841.38 C 203.48 848.88 194.80 854.03 188.24 850.89 C 181.01 848.12 180.00 838.41 183.32 832.33 C 186.28 827.25 193.31 826.52 198.27 828.80 C 200.41 830.30 201.76 832.65 203.31 834.72 C 203.97 834.74 205.27 834.77 205.93 834.78 C 205.06 832.32 204.17 829.71 202.09 828.00 C 196.33 823.10 186.36 823.43 181.62 829.62 M 213.90 825.24 C 213.40 834.78 213.55 844.37 213.84 853.93 C 220.17 854.01 226.50 854.12 232.83 853.83 C 232.81 853.17 232.78 851.85 232.76 851.19 C 227.46 850.96 222.16 851.26 216.87 850.95 C 216.52 847.64 216.51 844.32 216.86 841.03 C 221.86 840.82 226.87 840.96 231.87 840.84 C 231.89 840.15 231.91 838.78 231.93 838.09 C 226.91 837.85 221.89 837.99 216.87 837.88 C 216.49 834.65 216.46 831.40 216.93 828.19 C 222.23 827.96 227.55 828.10 232.85 827.83 C 232.84 827.18 232.82 825.88 232.81 825.23 C 226.51 825.07 220.20 825.20 213.90 825.24 Z" />
</g>
<g id="#f0e1c0ff">
<path fill="#f0e1c0" opacity="1.00" d=" M 596.11 131.91 L 597.00 132.22 C 597.49 135.92 597.68 139.66 597.55 143.40 C 597.12 157.59 597.23 171.80 597.30 186.00 C 597.37 191.14 596.75 196.35 597.87 201.43 C 598.91 205.63 596.89 209.76 597.16 213.99 C 597.48 227.65 597.03 241.33 597.33 254.99 C 597.23 257.44 599.75 258.65 601.21 260.22 C 601.02 260.73 600.63 261.77 600.43 262.29 C 599.49 262.39 598.57 262.51 597.64 262.63 C 598.39 265.72 597.58 268.85 597.30 271.95 C 596.77 283.30 597.93 294.65 597.26 306.00 C 597.25 324.68 597.27 343.37 597.21 362.05 C 596.80 364.64 598.79 366.23 600.71 367.48 C 598.88 370.33 596.87 373.37 597.17 376.93 C 597.43 382.81 596.25 389.10 599.00 394.57 C 600.05 393.15 601.00 391.66 601.85 390.10 C 604.28 389.51 606.13 387.87 607.57 385.88 C 608.46 385.86 609.37 385.85 610.28 385.84 C 609.65 384.62 608.96 383.42 608.46 382.14 C 609.55 380.14 611.94 379.25 613.72 377.92 C 615.73 388.20 625.53 395.94 635.97 395.66 C 636.48 402.64 636.21 409.66 636.11 416.65 C 629.67 417.26 623.21 419.98 619.21 425.22 C 614.70 430.78 613.47 438.87 616.60 445.38 C 619.94 453.01 628.02 457.73 636.19 458.15 C 636.19 464.93 636.37 471.71 636.08 478.48 C 629.02 478.76 621.99 482.09 617.94 487.98 C 613.86 493.60 613.13 501.42 616.29 507.63 C 619.82 515.16 628.00 519.71 636.17 519.92 C 636.27 526.90 636.23 533.88 636.20 540.85 C 627.95 541.71 619.75 546.65 616.81 554.67 C 613.85 561.75 615.94 570.32 621.39 575.61 C 625.22 579.66 630.65 581.73 636.10 582.37 C 636.27 589.40 636.37 596.45 636.05 603.48 C 628.05 603.80 620.18 608.34 616.64 615.64 C 613.26 622.14 614.27 630.49 618.81 636.19 C 622.86 641.67 629.57 644.38 636.19 645.06 C 636.23 652.03 636.28 659.00 636.16 665.97 C 628.62 666.68 621.28 671.01 617.87 677.91 C 614.61 684.10 615.25 691.99 619.26 697.68 C 623.00 703.33 629.51 706.55 636.12 707.32 C 636.29 714.11 636.30 720.90 636.12 727.69 C 628.21 728.25 620.53 732.85 617.12 740.13 C 613.43 747.51 615.38 757.03 621.40 762.60 C 625.26 766.57 630.69 768.48 636.09 769.17 C 636.41 776.14 636.10 783.11 636.26 790.09 C 629.60 791.16 623.00 794.51 619.42 800.43 C 616.95 804.12 616.24 808.63 616.37 813.00 C 615.50 812.30 614.64 811.61 613.79 810.92 C 611.57 815.58 610.21 820.91 606.11 824.37 C 605.49 821.17 604.32 818.08 601.99 815.73 C 600.46 817.21 598.48 818.42 597.54 820.39 C 597.26 823.00 600.96 825.34 599.05 827.99 C 596.66 831.92 597.42 836.66 597.23 841.04 C 597.00 845.03 599.39 848.90 598.09 852.86 C 596.37 859.07 597.77 865.53 597.08 871.86 L 596.12 871.98 C 596.62 833.33 596.18 794.66 596.32 756.01 C 596.25 559.75 596.40 363.49 596.27 167.24 C 596.25 155.46 596.60 143.68 596.11 131.91 Z" />
</g>
<g id="#f9ce76ff">
<path fill="#f9ce76" opacity="1.00" d=" M 540.49 155.20 C 542.34 154.66 544.19 154.08 546.03 153.46 C 546.28 156.38 546.24 159.36 547.00 162.21 C 549.04 164.79 551.76 167.19 551.19 170.84 C 555.37 169.77 558.28 166.48 561.62 163.98 C 560.78 162.55 559.94 161.12 559.10 159.71 C 559.52 159.51 560.36 159.10 560.77 158.90 C 562.61 161.63 563.91 165.06 566.81 166.86 C 570.80 168.26 575.28 168.18 579.28 166.81 C 577.01 165.06 574.41 163.83 571.74 162.85 C 574.02 160.35 577.53 159.74 580.75 159.62 C 582.18 160.31 583.05 161.78 584.17 162.88 C 583.50 164.05 582.85 165.24 582.19 166.42 C 581.35 166.16 580.52 165.91 579.70 165.66 C 579.89 166.70 580.09 167.75 580.30 168.80 C 581.82 168.84 583.36 168.91 584.90 169.01 C 585.33 164.18 591.01 163.97 593.13 160.27 C 592.79 162.70 592.56 165.15 592.44 167.60 C 593.71 167.47 594.98 167.35 596.27 167.24 C 596.40 363.49 596.25 559.75 596.32 756.01 C 596.18 794.66 596.62 833.33 596.12 871.98 C 578.43 872.70 560.70 872.02 542.99 872.27 C 468.61 872.33 394.23 872.27 319.85 872.31 C 318.90 869.96 318.31 867.50 317.84 865.03 C 319.37 865.12 320.99 864.83 322.46 865.38 C 324.01 866.55 325.28 868.06 326.88 869.18 C 330.11 870.87 334.17 871.23 337.51 869.60 C 337.54 868.67 337.47 867.76 337.42 866.85 C 334.49 867.47 331.48 867.32 328.66 866.30 C 330.11 865.69 331.58 865.11 333.06 864.57 C 331.19 863.66 329.38 862.63 327.61 861.55 C 332.12 858.01 337.31 862.62 340.35 865.97 C 341.21 865.10 342.08 864.24 342.96 863.39 C 341.13 861.74 339.50 859.89 337.97 857.96 C 342.18 857.92 346.59 858.08 350.21 860.52 C 349.35 858.47 348.56 856.41 347.81 854.34 C 348.96 855.24 350.10 856.15 351.25 857.08 C 351.84 856.00 352.43 854.92 353.03 853.87 C 350.30 853.14 347.82 851.76 345.15 850.88 C 346.71 849.97 348.34 849.20 350.04 848.61 C 348.03 846.96 346.01 845.32 343.94 843.76 C 342.58 844.69 341.21 845.61 339.83 846.52 C 339.59 845.67 339.34 844.83 339.11 844.00 C 340.71 843.02 342.30 842.02 343.96 841.14 C 345.83 840.14 348.47 839.78 349.50 837.73 C 349.44 835.61 348.89 833.54 348.53 831.47 C 345.87 817.81 346.97 803.79 345.23 790.03 C 343.01 770.63 343.38 751.00 340.45 731.68 C 340.24 729.54 339.97 727.41 339.70 725.29 C 339.66 720.86 339.68 716.44 339.48 712.02 C 339.22 703.57 337.77 695.06 339.35 686.65 C 343.18 694.22 345.48 702.51 350.37 709.55 C 351.05 709.62 352.40 709.76 353.08 709.83 C 351.14 705.28 349.63 700.58 347.97 695.93 C 345.75 690.30 342.95 684.85 341.56 678.94 C 340.96 674.78 344.28 671.63 346.84 668.86 C 351.39 664.25 353.50 658.01 356.43 652.39 C 358.69 648.27 359.77 643.49 358.25 638.92 C 364.48 629.85 370.11 620.28 374.05 609.99 C 381.14 598.60 388.37 587.26 396.80 576.81 C 400.50 572.48 405.42 569.48 409.93 566.08 C 409.42 565.22 408.92 564.37 408.42 563.52 C 409.01 563.23 409.61 562.94 410.21 562.67 C 410.74 563.09 411.79 563.95 412.32 564.38 C 418.32 561.18 423.80 557.12 429.67 553.70 C 436.47 549.69 443.54 545.88 449.06 540.13 C 464.72 526.78 475.91 508.59 482.00 489.01 C 485.83 474.28 490.41 459.10 488.26 443.73 C 488.04 440.56 484.57 439.92 482.24 438.78 C 481.47 440.11 480.71 441.45 479.96 442.79 C 467.30 459.96 452.91 475.80 440.57 493.21 C 432.10 504.70 423.95 516.44 416.75 528.77 C 412.61 535.09 409.40 541.94 405.33 548.30 C 402.02 553.75 398.24 558.94 395.64 564.79 C 390.88 571.58 385.88 578.18 380.55 584.52 C 368.07 600.55 359.12 618.89 348.25 635.97 C 349.86 625.76 350.09 615.36 352.45 605.27 C 356.54 586.35 358.19 566.51 367.03 548.98 C 369.81 543.13 373.47 537.78 376.96 532.35 C 384.23 521.65 389.01 509.58 395.32 498.34 C 397.15 494.68 399.03 490.88 402.35 488.33 C 410.62 481.13 420.49 476.21 430.23 471.35 C 442.48 466.12 452.57 457.19 462.49 448.53 C 477.26 435.58 489.37 419.64 497.86 401.93 C 507.93 378.62 512.15 353.24 514.32 328.09 C 513.31 327.52 512.32 326.95 511.32 326.39 C 512.43 326.11 513.54 325.84 514.66 325.57 C 515.69 320.11 516.01 314.55 516.54 309.03 C 516.93 304.22 518.62 299.14 516.31 294.56 C 517.18 291.82 518.98 288.26 517.19 285.70 C 512.81 283.39 512.37 290.23 511.01 292.89 C 506.11 302.34 500.60 311.47 496.17 321.16 C 489.38 336.24 480.44 350.28 470.32 363.32 C 457.54 379.47 444.06 395.05 430.79 410.80 C 421.52 421.71 411.53 432.49 405.83 445.81 C 402.10 454.29 399.38 463.17 395.73 471.69 C 391.54 481.32 387.00 490.79 382.12 500.10 C 379.31 505.71 376.04 511.10 373.68 516.93 C 371.89 519.89 370.09 522.84 368.64 525.99 C 363.71 536.00 356.54 544.71 351.92 554.88 C 348.96 561.33 349.04 568.56 347.55 575.39 C 344.92 587.66 344.21 600.23 343.53 612.74 C 343.23 618.34 341.28 623.64 340.13 629.08 C 339.48 632.24 338.48 635.30 337.27 638.29 C 336.82 624.59 336.62 610.83 338.53 597.22 C 341.41 583.83 344.01 570.37 346.07 556.84 C 348.47 544.10 353.07 531.85 354.92 518.99 C 355.93 511.71 357.19 504.47 358.28 497.21 C 359.30 491.29 359.33 485.11 361.81 479.54 C 363.43 476.02 363.19 471.84 365.46 468.62 C 368.31 464.41 369.60 459.42 372.03 455.00 C 381.04 439.03 393.80 425.48 408.01 414.04 C 421.57 403.42 435.34 392.93 447.03 380.20 C 468.26 359.52 486.11 334.09 493.00 304.90 C 497.13 290.12 499.95 275.00 501.91 259.79 C 502.78 255.37 503.48 250.92 504.28 246.48 C 504.72 242.92 506.75 238.97 504.33 235.69 C 504.49 234.76 504.65 233.82 504.82 232.89 C 504.39 232.74 503.53 232.46 503.10 232.31 C 495.30 238.42 487.99 245.15 479.96 250.98 C 471.97 256.71 462.72 260.25 454.27 265.19 C 449.24 267.91 444.27 270.74 439.33 273.61 C 431.55 277.69 423.86 282.30 417.78 288.74 C 405.93 298.45 397.14 311.20 388.98 324.01 C 384.29 331.46 379.35 338.83 376.00 347.02 C 371.77 357.16 368.31 367.62 363.66 377.60 C 356.61 395.12 350.91 413.27 347.85 431.94 C 347.30 435.44 346.42 438.89 345.24 442.23 C 345.13 441.38 344.90 439.67 344.78 438.81 C 345.87 418.50 347.85 398.14 352.35 378.26 C 354.41 369.38 356.42 360.41 360.20 352.07 C 367.41 336.72 371.88 320.26 375.75 303.79 C 379.21 286.76 381.77 269.45 381.76 252.03 C 382.45 237.16 380.74 222.24 377.15 207.81 C 375.43 199.96 373.86 192.03 370.89 184.52 C 369.75 180.60 368.51 176.69 366.68 173.03 C 368.28 171.44 369.82 169.79 371.35 168.13 C 371.59 168.32 372.07 168.71 372.31 168.90 C 371.25 171.88 371.10 175.04 373.05 177.72 C 375.13 172.99 380.12 169.63 379.96 164.06 C 381.69 164.71 383.46 165.26 385.25 165.74 C 383.95 169.54 380.82 172.07 377.58 174.21 C 380.06 175.79 382.69 177.14 385.49 178.09 C 384.84 175.68 384.54 173.18 384.84 170.69 C 388.20 172.37 388.11 176.12 387.59 179.31 C 385.94 180.05 383.47 179.94 382.81 181.96 C 384.42 183.30 387.02 186.22 389.08 184.24 C 390.19 182.04 390.73 179.62 391.44 177.28 C 394.72 178.07 398.10 178.46 401.45 177.86 C 401.82 176.21 402.21 174.57 402.60 172.93 C 406.72 173.61 410.56 175.53 413.83 178.10 C 414.45 180.04 414.33 182.11 414.48 184.12 C 415.85 183.71 417.27 183.43 418.70 183.32 C 417.94 180.72 418.07 177.15 415.15 175.90 C 412.70 174.75 410.19 173.34 410.28 170.25 C 411.73 169.54 413.17 168.84 414.63 168.15 C 414.50 169.70 414.38 171.25 414.27 172.81 C 416.67 173.75 419.18 174.40 421.72 174.84 C 422.11 173.98 422.51 173.13 422.91 172.27 C 421.87 171.28 420.84 170.28 419.82 169.29 C 422.45 169.37 425.57 169.36 427.31 171.71 C 429.11 174.13 430.67 177.09 434.05 177.36 C 432.73 172.83 437.54 169.01 441.83 170.27 C 441.61 172.59 441.32 174.92 440.63 177.16 C 440.89 177.29 441.41 177.56 441.66 177.70 C 444.49 174.93 448.22 173.69 452.15 174.13 C 452.31 175.65 452.47 177.18 452.65 178.71 C 455.83 179.08 458.90 178.21 461.77 176.91 C 461.00 175.50 460.24 174.10 459.50 172.68 C 461.06 173.70 462.60 174.75 464.11 175.85 C 467.08 174.04 470.40 172.56 472.67 169.83 C 473.44 168.45 473.36 166.78 473.65 165.27 C 475.50 166.15 477.38 167.00 479.26 167.84 C 479.65 166.35 480.13 164.89 480.70 163.47 C 481.87 164.42 483.04 165.37 484.23 166.31 C 486.03 164.69 488.01 163.28 490.03 161.94 C 490.37 163.92 490.67 165.91 490.96 167.90 C 493.43 167.97 495.45 166.53 497.37 165.16 C 497.57 166.89 498.43 168.77 497.40 170.39 C 496.91 172.05 495.07 173.56 495.75 175.38 C 497.73 176.11 499.78 175.33 501.74 174.95 C 501.79 172.00 500.96 169.17 499.39 166.68 C 502.12 166.28 505.86 165.64 507.21 168.83 C 508.96 171.77 504.71 172.90 502.99 174.30 C 503.03 174.93 503.12 176.18 503.17 176.81 C 503.86 176.88 505.23 177.02 505.92 177.08 C 507.86 174.53 510.10 172.20 512.85 170.51 C 513.81 172.35 514.85 174.15 515.95 175.92 C 514.66 177.32 513.39 178.73 512.15 180.17 C 516.01 179.54 519.84 178.61 523.43 177.03 C 521.58 176.83 519.74 176.60 517.90 176.35 C 519.13 172.84 520.47 168.94 523.70 166.77 C 527.56 166.04 531.55 166.21 535.43 165.50 C 535.43 162.39 536.08 159.30 538.02 156.80 C 538.87 157.14 539.72 157.49 540.58 157.84 C 539.98 159.55 539.38 161.27 538.80 162.99 C 540.89 163.95 543.00 164.88 545.14 165.75 C 544.73 161.82 543.11 158.16 540.49 155.20 M 538.81 816.71 C 534.44 817.56 531.64 821.86 531.65 826.16 C 533.08 826.19 534.52 826.25 535.96 826.32 C 537.15 824.73 538.25 823.03 539.79 821.76 C 543.36 819.96 548.22 822.83 547.82 827.00 C 548.06 830.77 543.73 831.52 540.99 832.38 C 541.11 833.74 541.12 835.12 541.05 836.51 C 543.71 837.20 547.84 837.45 548.07 841.05 C 549.40 845.31 545.57 850.19 541.03 849.23 C 538.11 849.30 537.01 846.33 535.40 844.50 C 533.85 843.52 531.85 844.11 530.13 843.92 C 530.79 846.35 531.17 849.07 533.08 850.92 C 538.90 857.38 552.04 854.64 553.61 845.67 C 554.76 841.43 552.66 837.45 550.20 834.17 C 551.92 831.42 553.84 828.39 553.14 824.98 C 552.60 818.30 544.71 814.85 538.81 816.71 M 567.61 816.57 C 562.09 817.31 558.99 822.83 558.88 828.00 C 560.46 827.87 562.06 827.83 563.67 827.87 C 564.95 825.56 565.89 822.48 568.68 821.60 C 571.81 820.54 575.30 822.43 576.73 825.30 C 577.58 827.93 576.20 830.54 574.73 832.67 C 569.59 840.08 563.25 846.57 557.93 853.85 C 566.03 853.93 574.14 854.12 582.24 853.91 C 582.27 852.02 582.19 850.15 581.99 848.29 C 577.90 848.40 573.80 848.40 569.72 848.12 C 573.61 841.23 581.48 836.38 582.37 828.01 C 583.16 820.31 574.67 814.64 567.61 816.57 Z" />
</g>
<g id="#3d7676ff">
<path fill="#3d7676" opacity="1.00" d=" M 197.29 168.92 C 198.11 169.43 198.93 169.94 199.75 170.46 C 198.93 171.48 198.18 172.66 198.15 174.02 C 197.73 178.53 198.02 183.06 198.74 187.53 C 199.22 187.54 200.19 187.57 200.67 187.59 C 198.29 195.44 202.70 202.97 204.76 210.35 C 207.39 219.71 210.06 229.10 211.52 238.73 C 212.31 243.49 215.18 247.78 215.08 252.70 C 214.53 262.82 214.57 273.13 217.08 283.02 C 218.59 289.31 219.73 295.69 221.09 302.02 C 222.58 308.91 225.62 315.30 228.00 321.90 C 228.75 328.34 232.34 333.88 234.12 340.02 C 235.49 344.59 238.40 348.47 239.99 352.95 C 241.15 356.14 241.99 359.45 243.39 362.56 C 245.19 366.65 247.99 370.22 249.67 374.37 C 251.65 379.15 253.62 384.06 256.97 388.07 C 259.36 390.67 262.33 392.69 264.53 395.47 C 270.34 402.97 278.29 408.39 284.33 415.68 C 288.64 421.02 293.88 425.55 297.74 431.26 C 303.04 438.78 308.67 446.19 312.46 454.62 C 313.77 457.43 315.47 460.04 317.42 462.44 C 318.24 458.55 315.72 455.13 314.38 451.68 C 311.32 444.12 306.71 437.36 302.60 430.36 C 298.54 424.24 294.01 418.39 288.78 413.23 C 284.83 409.17 281.34 404.63 276.81 401.17 C 272.01 397.57 268.96 392.33 265.37 387.64 C 261.96 383.23 260.25 377.86 258.04 372.82 C 254.36 364.23 250.82 355.58 248.26 346.59 C 245.16 339.15 243.30 331.31 241.06 323.59 C 239.08 315.86 235.82 308.48 234.46 300.59 C 233.20 293.30 230.57 286.29 229.98 278.88 C 235.17 283.96 238.31 290.62 242.70 296.33 C 246.42 301.87 251.47 306.42 254.72 312.29 C 256.30 315.04 257.90 317.78 259.57 320.48 C 262.40 324.98 264.35 330.03 267.89 334.06 C 267.09 327.77 264.95 321.78 263.20 315.73 C 268.45 322.15 272.55 329.38 277.40 336.10 C 286.96 349.64 292.83 365.21 299.71 380.17 C 303.71 388.06 307.23 396.20 310.51 404.41 C 312.98 414.10 316.96 423.28 321.02 432.38 C 320.70 441.60 325.11 449.94 326.22 458.94 C 327.14 464.26 329.60 469.21 330.18 474.60 C 330.50 477.62 330.91 480.63 331.62 483.59 C 332.87 488.16 331.63 492.94 332.55 497.57 C 333.50 502.67 334.05 507.84 334.00 513.04 C 332.69 512.81 331.38 512.60 330.08 512.38 C 330.83 510.33 331.60 508.29 332.38 506.25 C 331.53 505.29 330.69 504.32 329.85 503.36 C 332.82 499.18 329.86 494.15 327.79 490.28 C 325.54 488.70 322.38 489.02 319.74 488.40 C 315.83 475.58 309.98 463.39 303.01 451.98 C 296.36 441.56 287.05 433.30 278.69 424.33 C 260.09 405.80 244.61 384.06 234.11 359.94 C 223.45 338.08 215.46 314.99 209.65 291.39 C 205.59 274.15 202.55 256.62 201.63 238.91 C 200.81 220.89 197.32 203.07 197.35 185.00 C 197.29 179.64 197.15 174.28 197.29 168.92 Z" />
</g>
<g id="#225962ff">
<path fill="#225962" opacity="1.00" d=" M 198.15 174.02 C 198.18 172.66 198.93 171.48 199.75 170.46 C 200.30 170.80 201.41 171.49 201.96 171.83 C 203.93 177.45 206.87 182.68 208.59 188.39 C 211.59 196.97 213.37 205.93 216.61 214.43 C 219.81 223.19 222.56 232.11 224.97 241.12 C 228.36 251.52 233.01 261.46 237.97 271.19 C 244.36 281.10 249.83 291.55 255.48 301.89 C 258.12 306.47 260.60 311.13 263.20 315.73 C 264.95 321.78 267.09 327.77 267.89 334.06 C 264.35 330.03 262.40 324.98 259.57 320.48 C 257.90 317.78 256.30 315.04 254.72 312.29 C 251.47 306.42 246.42 301.87 242.70 296.33 C 238.31 290.62 235.17 283.96 229.98 278.88 C 230.57 286.29 233.20 293.30 234.46 300.59 C 235.82 308.48 239.08 315.86 241.06 323.59 C 239.91 328.97 241.08 334.36 241.73 339.71 C 240.33 339.72 238.91 339.88 237.53 339.58 C 233.68 334.08 231.98 327.36 228.00 321.90 C 225.62 315.30 222.58 308.91 221.09 302.02 C 219.73 295.69 218.59 289.31 217.08 283.02 C 214.57 273.13 214.53 262.82 215.08 252.70 C 215.18 247.78 212.31 243.49 211.52 238.73 C 210.06 229.10 207.39 219.71 204.76 210.35 C 202.70 202.97 198.29 195.44 200.67 187.59 C 200.19 187.57 199.22 187.54 198.74 187.53 C 198.02 183.06 197.73 178.53 198.15 174.02 Z" />
</g>
<g id="#619284ff">
<path fill="#619284" opacity="1.00" d=" M 360.36 170.93 C 362.22 171.35 364.10 171.74 365.92 172.34 C 364.15 174.02 363.31 176.32 363.53 178.75 C 364.41 197.40 366.36 216.46 361.92 234.84 C 360.92 239.07 359.54 243.19 358.32 247.36 C 357.58 246.00 356.85 244.65 356.14 243.28 C 354.84 243.59 353.55 243.90 352.26 244.21 C 350.99 242.37 349.55 240.65 348.13 238.93 C 347.72 239.85 347.32 240.79 346.92 241.72 C 348.70 243.53 350.67 245.37 351.15 247.99 C 349.00 247.16 346.88 246.29 344.77 245.40 C 346.86 237.18 349.12 228.99 351.94 220.99 C 353.78 215.31 355.83 209.65 356.65 203.71 C 353.98 206.68 352.71 210.50 350.97 214.01 C 347.02 221.52 343.73 229.36 340.16 237.06 C 339.36 235.66 338.56 234.27 337.77 232.88 C 345.42 215.88 353.74 198.93 357.61 180.56 C 358.22 177.27 359.20 174.06 360.36 170.93 Z" />
</g>
<g id="#5f9285ff">
<path fill="#5f9285" opacity="1.00" d=" M 201.96 171.83 C 207.26 174.83 210.58 180.07 214.31 184.69 C 223.45 196.16 232.46 207.75 242.29 218.65 C 247.75 225.02 253.12 231.46 258.19 238.15 C 257.44 238.72 256.68 239.29 255.93 239.86 C 254.11 239.01 252.27 238.19 250.42 237.39 C 250.99 239.07 251.09 241.16 252.66 242.26 C 254.98 243.41 257.54 243.96 260.01 244.72 C 260.82 247.39 262.21 249.84 264.54 251.46 C 263.09 252.99 261.93 254.76 260.71 256.48 C 261.87 257.49 263.04 258.50 264.21 259.52 C 262.83 259.84 261.34 261.30 259.96 260.32 C 259.54 259.17 259.25 257.99 258.94 256.83 C 257.70 258.81 256.42 260.77 255.14 262.73 C 256.16 263.68 257.18 264.64 258.21 265.61 C 258.24 267.15 258.27 268.69 258.30 270.24 C 260.27 270.58 262.98 269.95 264.13 271.99 C 262.96 275.08 257.87 276.00 256.46 272.66 C 252.89 266.56 246.89 262.53 240.84 259.20 C 239.78 260.07 238.37 260.68 237.68 261.90 C 237.80 263.68 238.33 265.39 238.71 267.12 C 240.27 265.96 241.86 264.86 243.48 263.80 C 243.48 265.72 243.57 267.64 243.75 269.55 C 241.82 270.09 239.89 270.64 237.97 271.19 C 233.01 261.46 228.36 251.52 224.97 241.12 C 222.56 232.11 219.81 223.19 216.61 214.43 C 213.37 205.93 211.59 196.97 208.59 188.39 C 206.87 182.68 203.93 177.45 201.96 171.83 Z" />
</g>
<g id="#296066ff">
<path fill="#296066" opacity="1.00" d=" M 363.53 178.75 C 363.31 176.32 364.15 174.02 365.92 172.34 L 366.68 173.03 C 368.51 176.69 369.75 180.60 370.89 184.52 C 370.47 187.14 369.56 189.89 370.53 192.50 C 371.86 196.42 374.12 200.00 375.09 204.05 C 376.00 207.52 375.48 211.15 376.19 214.65 C 376.87 218.14 378.02 221.54 378.25 225.11 C 378.99 235.75 376.60 246.38 377.72 257.02 C 378.50 264.05 376.90 271.03 376.90 278.05 C 376.90 283.54 375.78 288.95 374.16 294.18 C 372.22 300.39 371.32 306.91 368.79 312.94 C 365.63 320.47 363.14 328.44 358.13 335.02 C 359.78 327.37 362.68 320.10 365.30 312.76 C 366.26 305.38 370.22 298.87 371.24 291.53 C 373.28 280.18 374.24 268.48 372.89 256.99 C 371.09 247.70 372.50 238.13 370.49 228.86 C 367.51 232.30 366.65 236.81 365.89 241.15 C 364.77 240.86 363.66 240.58 362.55 240.29 C 362.33 238.47 362.09 236.66 361.92 234.84 C 366.36 216.46 364.41 197.40 363.53 178.75 Z" />
</g>
<g id="#477c7bff">
<path fill="#477c7b" opacity="1.00" d=" M 370.53 192.50 C 369.56 189.89 370.47 187.14 370.89 184.52 C 373.86 192.03 375.43 199.96 377.15 207.81 C 380.74 222.24 382.45 237.16 381.76 252.03 C 381.77 269.45 379.21 286.76 375.75 303.79 C 371.88 320.26 367.41 336.72 360.20 352.07 C 356.42 360.41 354.41 369.38 352.35 378.26 C 347.85 398.14 345.87 418.50 344.78 438.81 C 344.01 445.84 344.95 452.90 344.34 459.94 C 344.03 465.93 343.46 471.92 343.83 477.92 C 344.07 488.73 342.63 499.54 343.44 510.35 C 344.87 508.47 345.30 506.10 345.77 503.85 C 346.35 504.93 346.94 506.02 347.53 507.11 C 351.14 502.75 355.75 499.17 358.04 493.82 C 358.10 494.67 358.22 496.36 358.28 497.21 C 357.19 504.47 355.93 511.71 354.92 518.99 C 353.07 531.85 348.47 544.10 346.07 556.84 C 344.01 570.37 341.41 583.83 338.53 597.22 C 336.73 589.94 337.59 582.46 337.58 575.06 C 337.69 571.61 339.31 568.44 339.55 565.01 C 339.79 561.52 340.06 558.04 340.63 554.59 C 341.27 551.19 340.05 547.87 339.90 544.50 C 340.05 540.96 341.36 537.56 341.32 534.00 C 341.06 524.64 340.51 515.29 339.89 505.95 C 339.54 499.97 337.35 494.27 337.23 488.26 C 337.93 482.80 338.66 477.31 338.30 471.79 C 337.61 462.82 339.77 453.99 340.11 445.05 C 341.54 435.38 339.38 425.70 339.90 416.01 C 339.64 402.47 338.27 388.98 337.00 375.51 C 339.68 373.49 338.98 369.91 339.11 367.01 C 339.14 359.24 338.89 351.38 336.46 343.93 C 337.01 343.83 338.13 343.65 338.69 343.56 C 339.59 336.70 340.00 329.80 341.00 322.96 C 342.75 310.49 343.65 297.77 347.79 285.79 C 347.35 291.61 347.50 297.49 346.47 303.26 C 344.87 312.17 344.50 321.30 345.34 330.31 C 347.92 326.37 347.13 321.42 347.83 316.98 C 349.87 301.30 352.96 285.74 357.63 270.62 C 361.12 261.03 364.04 251.20 365.89 241.15 C 366.65 236.81 367.51 232.30 370.49 228.86 C 372.50 238.13 371.09 247.70 372.89 256.99 C 374.24 268.48 373.28 280.18 371.24 291.53 C 370.22 298.87 366.26 305.38 365.30 312.76 C 362.68 320.10 359.78 327.37 358.13 335.02 C 363.14 328.44 365.63 320.47 368.79 312.94 C 371.32 306.91 372.22 300.39 374.16 294.18 C 375.78 288.95 376.90 283.54 376.90 278.05 C 376.90 271.03 378.50 264.05 377.72 257.02 C 376.60 246.38 378.99 235.75 378.25 225.11 C 378.02 221.54 376.87 218.14 376.19 214.65 C 375.48 211.15 376.00 207.52 375.09 204.05 C 374.12 200.00 371.86 196.42 370.53 192.50 Z" />
</g>
<g id="#327276ff">
<path fill="#327276" opacity="1.00" d=" M 350.97 214.01 C 352.71 210.50 353.98 206.68 356.65 203.71 C 355.83 209.65 353.78 215.31 351.94 220.99 C 349.12 228.99 346.86 237.18 344.77 245.40 C 341.90 255.05 339.79 264.91 336.52 274.44 C 334.52 280.29 333.83 286.46 333.49 292.61 C 333.05 300.74 331.65 308.91 332.74 317.05 C 333.31 321.46 333.67 325.88 333.83 330.33 C 332.45 327.47 331.04 324.58 330.48 321.43 C 328.12 308.32 325.53 295.05 326.45 281.66 C 324.62 283.34 323.72 285.67 323.02 287.99 C 322.82 287.13 322.57 286.28 322.58 285.40 C 325.00 268.21 333.33 252.77 340.16 237.06 C 343.73 229.36 347.02 221.52 350.97 214.01 Z" />
</g>
<g id="#609285ff">
<path fill="#609285" opacity="1.00" d=" M 503.10 232.31 C 503.53 232.46 504.39 232.74 504.82 232.89 C 504.65 233.82 504.49 234.76 504.33 235.69 C 501.75 236.78 499.11 238.09 497.67 240.63 C 493.09 247.65 488.20 254.46 483.15 261.15 C 475.69 270.95 466.33 279.03 457.19 287.19 C 454.98 289.10 452.49 290.64 450.10 292.30 C 450.17 290.67 450.36 289.04 450.16 287.42 C 448.01 283.77 442.04 285.70 440.77 281.05 C 443.56 279.15 446.09 276.90 448.55 274.60 C 445.45 274.36 442.73 276.13 439.83 276.91 C 439.66 275.81 439.49 274.71 439.33 273.61 C 444.27 270.74 449.24 267.91 454.27 265.19 C 462.72 260.25 471.97 256.71 479.96 250.98 C 487.99 245.15 495.30 238.42 503.10 232.31 Z" />
</g>
<g id="#79a18fff">
<path fill="#79a18f" opacity="1.00" d=" M 319.84 278.38 C 321.20 261.75 331.22 247.76 337.77 232.88 C 338.56 234.27 339.36 235.66 340.16 237.06 C 333.33 252.77 325.00 268.21 322.58 285.40 C 322.57 286.28 322.82 287.13 323.02 287.99 C 321.44 296.95 322.46 306.15 323.94 315.05 C 324.90 321.05 325.38 327.15 327.03 333.02 C 331.12 346.98 334.86 361.10 337.00 375.51 C 338.27 388.98 339.64 402.47 339.90 416.01 C 339.38 425.70 341.54 435.38 340.11 445.05 C 339.77 453.99 337.61 462.82 338.30 471.79 C 338.66 477.31 337.93 482.80 337.23 488.26 C 335.73 479.68 333.60 471.20 331.12 462.86 C 327.52 452.77 326.41 441.80 321.02 432.38 C 316.96 423.28 312.98 414.10 310.51 404.41 C 307.23 396.20 303.71 388.06 299.71 380.17 C 292.83 365.21 286.96 349.64 277.40 336.10 C 278.60 332.51 280.62 329.29 282.86 326.27 C 284.54 329.06 286.67 331.53 288.72 334.05 C 289.00 333.14 289.29 332.23 289.58 331.32 C 288.42 330.13 287.26 328.95 286.10 327.77 C 286.13 327.05 286.20 325.61 286.23 324.89 C 288.01 325.50 289.80 326.09 291.61 326.63 C 293.22 324.64 295.16 322.75 295.79 320.18 C 295.82 318.66 294.93 317.29 294.84 315.78 C 295.16 313.77 296.07 311.93 296.79 310.05 C 299.14 309.51 301.35 308.42 302.37 306.10 C 312.34 325.54 318.35 346.86 320.41 368.60 C 322.31 390.63 322.44 412.97 327.39 434.62 C 329.77 442.82 331.62 451.20 334.77 459.16 C 336.45 440.81 334.63 422.39 334.27 404.02 C 334.14 395.64 333.36 387.28 332.08 379.00 C 330.38 368.25 327.00 357.87 324.87 347.21 C 322.47 335.19 318.67 323.37 318.07 311.05 C 317.72 304.37 316.95 297.66 317.68 290.98 C 317.92 286.70 319.13 282.58 319.84 278.38 Z" />
</g>
<g id="#327075ff">
<path fill="#327075" opacity="1.00" d=" M 358.32 247.36 C 359.54 243.19 360.92 239.07 361.92 234.84 C 362.09 236.66 362.33 238.47 362.55 240.29 C 363.66 240.58 364.77 240.86 365.89 241.15 C 364.04 251.20 361.12 261.03 357.63 270.62 C 352.96 285.74 349.87 301.30 347.83 316.98 C 347.13 321.42 347.92 326.37 345.34 330.31 C 344.50 321.30 344.87 312.17 346.47 303.26 C 347.50 297.49 347.35 291.61 347.79 285.79 C 350.55 272.78 354.63 260.12 358.32 247.36 Z" />
</g>
<g id="#4a7e7cff">
<path fill="#4a7e7c" opacity="1.00" d=" M 497.67 240.63 C 499.11 238.09 501.75 236.78 504.33 235.69 C 506.75 238.97 504.72 242.92 504.28 246.48 C 502.48 245.45 500.71 244.39 498.95 243.29 C 497.56 244.80 496.14 246.29 494.89 247.92 C 486.98 258.84 478.83 269.70 469.03 279.02 C 462.00 286.33 455.37 294.18 446.92 299.94 C 439.32 306.16 431.77 312.60 422.80 316.80 C 427.58 311.58 432.47 306.33 438.45 302.45 C 442.77 299.57 445.80 295.19 450.10 292.30 C 452.49 290.64 454.98 289.10 457.19 287.19 C 466.33 279.03 475.69 270.95 483.15 261.15 C 488.20 254.46 493.09 247.65 497.67 240.63 Z" />
</g>
<g id="#699889ff">
<path fill="#699889" opacity="1.00" d=" M 250.42 237.39 C 252.27 238.19 254.11 239.01 255.93 239.86 C 256.68 239.29 257.44 238.72 258.19 238.15 C 264.75 247.11 272.28 255.36 278.17 264.81 C 278.84 268.07 279.85 271.36 279.69 274.72 C 279.01 276.11 277.62 276.98 276.55 278.07 C 277.02 279.08 277.48 280.08 277.96 281.10 C 276.48 283.11 274.38 284.44 272.00 285.11 C 272.94 286.42 273.88 287.72 274.83 289.04 C 273.96 289.37 273.09 289.70 272.22 290.04 C 272.41 292.27 272.67 294.49 272.92 296.72 C 269.75 294.32 267.50 290.99 264.61 288.32 C 262.89 287.28 261.48 290.03 262.53 291.41 C 264.75 295.60 270.85 298.76 269.12 304.23 C 265.96 302.76 263.80 299.04 259.98 299.38 C 258.08 299.21 256.84 300.86 255.48 301.89 C 249.83 291.55 244.36 281.10 237.97 271.19 C 239.89 270.64 241.82 270.09 243.75 269.55 C 243.57 267.64 243.48 265.72 243.48 263.80 C 241.86 264.86 240.27 265.96 238.71 267.12 C 238.33 265.39 237.80 263.68 237.68 261.90 C 238.37 260.68 239.78 260.07 240.84 259.20 C 246.89 262.53 252.89 266.56 256.46 272.66 C 257.87 276.00 262.96 275.08 264.13 271.99 C 262.98 269.95 260.27 270.58 258.30 270.24 C 258.27 268.69 258.24 267.15 258.21 265.61 C 257.18 264.64 256.16 263.68 255.14 262.73 C 256.42 260.77 257.70 258.81 258.94 256.83 C 259.25 257.99 259.54 259.17 259.96 260.32 C 261.34 261.30 262.83 259.84 264.21 259.52 C 263.04 258.50 261.87 257.49 260.71 256.48 C 261.93 254.76 263.09 252.99 264.54 251.46 C 262.21 249.84 260.82 247.39 260.01 244.72 C 257.54 243.96 254.98 243.41 252.66 242.26 C 251.09 241.16 250.99 239.07 250.42 237.39 Z" />
</g>
<g id="#76a08fff">
<path fill="#76a08f" opacity="1.00" d=" M 348.13 238.93 C 349.55 240.65 350.99 242.37 352.26 244.21 C 353.55 243.90 354.84 243.59 356.14 243.28 C 356.85 244.65 357.58 246.00 358.32 247.36 C 354.63 260.12 350.55 272.78 347.79 285.79 C 343.65 297.77 342.75 310.49 341.00 322.96 C 340.00 329.80 339.59 336.70 338.69 343.56 C 338.13 343.65 337.01 343.83 336.46 343.93 C 335.32 339.44 334.63 334.87 333.83 330.33 C 333.67 325.88 333.31 321.46 332.74 317.05 C 331.65 308.91 333.05 300.74 333.49 292.61 C 333.83 286.46 334.52 280.29 336.52 274.44 C 339.79 264.91 341.90 255.05 344.77 245.40 C 346.88 246.29 349.00 247.16 351.15 247.99 C 350.67 245.37 348.70 243.53 346.92 241.72 C 347.32 240.79 347.72 239.85 348.13 238.93 Z" />
</g>
<g id="#286466ff">
<path fill="#286466" opacity="1.00" d=" M 498.95 243.29 C 500.71 244.39 502.48 245.45 504.28 246.48 C 503.48 250.92 502.78 255.37 501.91 259.79 C 498.76 265.73 495.83 271.78 492.87 277.81 C 490.31 282.92 489.91 288.72 488.18 294.10 C 485.58 303.05 481.09 311.30 478.13 320.13 C 475.64 326.81 474.38 333.92 471.48 340.46 C 466.35 351.56 459.11 361.96 449.06 369.13 C 441.33 375.33 435.64 383.70 427.89 389.92 C 423.78 393.15 420.83 397.77 416.06 400.16 C 418.85 391.95 425.96 386.43 430.15 379.03 C 434.35 373.95 438.22 368.59 442.77 363.80 C 452.37 354.01 459.36 341.89 464.30 329.16 C 469.12 317.55 475.63 306.72 479.89 294.87 C 482.58 288.05 486.05 281.41 486.94 274.02 C 479.31 280.68 472.60 288.31 465.16 295.17 C 459.29 300.55 451.97 303.89 445.68 308.68 C 437.03 315.27 427.94 321.51 420.88 329.88 C 416.16 335.48 411.58 341.22 406.12 346.12 C 398.76 352.78 394.37 361.82 388.95 369.96 C 385.76 374.50 382.09 378.79 379.99 384.00 C 375.61 394.37 371.28 404.77 367.11 415.23 C 365.45 419.21 363.42 423.04 362.20 427.19 C 358.97 438.19 355.62 449.16 351.86 459.97 C 351.47 461.67 348.76 463.99 348.00 461.28 C 349.67 455.82 349.97 450.07 351.54 444.58 C 355.51 425.21 361.40 406.16 370.27 388.44 C 372.83 381.32 376.89 374.93 380.27 368.20 C 386.28 358.14 394.09 349.32 400.69 339.65 C 404.86 333.65 410.24 328.69 415.21 323.38 C 417.97 321.47 420.54 319.30 422.80 316.80 C 431.77 312.60 439.32 306.16 446.92 299.94 C 455.37 294.18 462.00 286.33 469.03 279.02 C 478.83 269.70 486.98 258.84 494.89 247.92 C 496.14 246.29 497.56 244.80 498.95 243.29 Z" />
<path fill="#286466" opacity="1.00" d=" M 228.00 321.90 C 231.98 327.36 233.68 334.08 237.53 339.58 C 238.91 339.88 240.33 339.72 241.73 339.71 C 241.08 334.36 239.91 328.97 241.06 323.59 C 243.30 331.31 245.16 339.15 248.26 346.59 C 250.82 355.58 254.36 364.23 258.04 372.82 C 260.25 377.86 261.96 383.23 265.37 387.64 C 268.96 392.33 272.01 397.57 276.81 401.17 C 281.34 404.63 284.83 409.17 288.78 413.23 C 294.01 418.39 298.54 424.24 302.60 430.36 C 306.71 437.36 311.32 444.12 314.38 451.68 C 315.72 455.13 318.24 458.55 317.42 462.44 C 315.47 460.04 313.77 457.43 312.46 454.62 C 308.67 446.19 303.04 438.78 297.74 431.26 C 293.88 425.55 288.64 421.02 284.33 415.68 C 278.29 408.39 270.34 402.97 264.53 395.47 C 262.33 392.69 259.36 390.67 256.97 388.07 C 253.62 384.06 251.65 379.15 249.67 374.37 C 247.99 370.22 245.19 366.65 243.39 362.56 C 241.99 359.45 241.15 356.14 239.99 352.95 C 238.40 348.47 235.49 344.59 234.12 340.02 C 232.34 333.88 228.75 328.34 228.00 321.90 Z" />
<path fill="#286466" opacity="1.00" d=" M 479.67 443.55 C 481.13 443.50 482.59 443.46 484.06 443.43 C 483.18 449.39 480.09 454.67 478.45 460.42 C 476.97 465.99 472.70 470.39 471.99 476.23 C 467.84 487.78 462.82 499.05 456.83 509.79 C 449.40 518.04 441.99 526.32 434.68 534.67 C 430.73 538.45 427.45 543.31 422.16 545.31 C 423.99 540.21 427.85 536.33 431.39 532.39 C 436.66 526.62 441.82 520.74 446.59 514.55 C 448.19 512.53 449.04 510.08 449.93 507.70 C 450.76 505.75 451.59 503.80 452.43 501.85 C 456.26 492.71 458.56 482.99 462.98 474.09 C 465.26 472.04 467.97 470.21 469.23 467.29 C 471.33 462.58 472.93 457.66 475.18 453.01 C 477.21 450.14 478.60 446.89 479.67 443.55 Z" />
</g>
<g id="#4b7e7cff">
<path fill="#4b7e7c" opacity="1.00" d=" M 492.87 277.81 C 495.83 271.78 498.76 265.73 501.91 259.79 C 499.95 275.00 497.13 290.12 493.00 304.90 C 486.11 334.09 468.26 359.52 447.03 380.20 C 447.00 376.40 447.71 372.66 449.06 369.13 C 459.11 361.96 466.35 351.56 471.48 340.46 C 474.38 333.92 475.64 326.81 478.13 320.13 C 481.09 311.30 485.58 303.05 488.18 294.10 C 489.91 288.72 490.31 282.92 492.87 277.81 Z" />
</g>
<g id="#729d8dff">
<path fill="#729d8d" opacity="1.00" d=" M 278.17 264.81 C 287.84 277.55 294.99 291.96 302.37 306.10 C 301.35 308.42 299.14 309.51 296.79 310.05 C 296.07 311.93 295.16 313.77 294.84 315.78 C 294.93 317.29 295.82 318.66 295.79 320.18 C 295.16 322.75 293.22 324.64 291.61 326.63 C 289.80 326.09 288.01 325.50 286.23 324.89 C 286.20 325.61 286.13 327.05 286.10 327.77 C 287.26 328.95 288.42 330.13 289.58 331.32 C 289.29 332.23 289.00 333.14 288.72 334.05 C 286.67 331.53 284.54 329.06 282.86 326.27 C 280.62 329.29 278.60 332.51 277.40 336.10 C 272.55 329.38 268.45 322.15 263.20 315.73 C 260.60 311.13 258.12 306.47 255.48 301.89 C 256.84 300.86 258.08 299.21 259.98 299.38 C 263.80 299.04 265.96 302.76 269.12 304.23 C 270.85 298.76 264.75 295.60 262.53 291.41 C 261.48 290.03 262.89 287.28 264.61 288.32 C 267.50 290.99 269.75 294.32 272.92 296.72 C 272.67 294.49 272.41 292.27 272.22 290.04 C 273.09 289.70 273.96 289.37 274.83 289.04 C 273.88 287.72 272.94 286.42 272.00 285.11 C 274.38 284.44 276.48 283.11 277.96 281.10 C 277.48 280.08 277.02 279.08 276.55 278.07 C 277.62 276.98 279.01 276.11 279.69 274.72 C 279.85 271.36 278.84 268.07 278.17 264.81 Z" />
</g>
<g id="#6f9b8bff">
<path fill="#6f9b8b" opacity="1.00" d=" M 417.78 288.74 C 423.86 282.30 431.55 277.69 439.33 273.61 C 439.49 274.71 439.66 275.81 439.83 276.91 C 442.73 276.13 445.45 274.36 448.55 274.60 C 446.09 276.90 443.56 279.15 440.77 281.05 C 442.04 285.70 448.01 283.77 450.16 287.42 C 450.36 289.04 450.17 290.67 450.10 292.30 C 445.80 295.19 442.77 299.57 438.45 302.45 C 432.47 306.33 427.58 311.58 422.80 316.80 C 420.54 319.30 417.97 321.47 415.21 323.38 C 416.70 321.14 418.24 318.93 419.96 316.86 C 417.78 313.88 415.38 311.08 412.85 308.40 C 415.37 307.07 417.68 308.88 419.77 310.15 C 418.58 308.49 417.43 306.81 416.27 305.14 C 418.36 304.52 420.43 303.85 422.46 303.08 C 420.83 300.22 416.33 300.64 415.55 297.17 C 414.79 294.22 416.81 291.42 417.78 288.74 Z" />
</g>
<g id="#487d7cff">
<path fill="#487d7c" opacity="1.00" d=" M 465.16 295.17 C 472.60 288.31 479.31 280.68 486.94 274.02 C 486.05 281.41 482.58 288.05 479.89 294.87 C 475.63 306.72 469.12 317.55 464.30 329.16 C 459.36 341.89 452.37 354.01 442.77 363.80 C 438.22 368.59 434.35 373.95 430.15 379.03 C 426.37 381.60 423.58 385.28 420.03 388.10 C 418.76 389.34 417.01 388.58 415.53 388.35 C 417.38 386.83 419.31 385.39 421.26 383.98 C 419.39 383.27 417.53 382.57 415.67 381.87 C 415.97 380.59 416.27 379.32 416.58 378.05 C 416.07 378.11 415.05 378.25 414.54 378.32 C 413.91 379.34 413.29 380.37 412.67 381.40 C 409.04 381.15 404.82 381.85 402.02 379.00 C 400.38 377.12 398.05 376.83 395.71 377.05 C 395.13 379.54 394.70 382.15 393.34 384.37 C 391.23 386.47 387.76 385.93 385.37 384.62 C 384.94 383.15 385.63 381.67 385.83 380.22 C 386.66 379.81 387.50 379.42 388.34 379.02 C 389.64 376.16 389.66 372.98 388.95 369.96 C 394.37 361.82 398.76 352.78 406.12 346.12 C 411.58 341.22 416.16 335.48 420.88 329.88 C 427.94 321.51 437.03 315.27 445.68 308.68 C 451.97 303.89 459.29 300.55 465.16 295.17 Z" />
</g>
<g id="#296567ff">
<path fill="#296567" opacity="1.00" d=" M 323.02 287.99 C 323.72 285.67 324.62 283.34 326.45 281.66 C 325.53 295.05 328.12 308.32 330.48 321.43 C 331.04 324.58 332.45 327.47 333.83 330.33 C 334.63 334.87 335.32 339.44 336.46 343.93 C 338.89 351.38 339.14 359.24 339.11 367.01 C 338.98 369.91 339.68 373.49 337.00 375.51 C 334.86 361.10 331.12 346.98 327.03 333.02 C 325.38 327.15 324.90 321.05 323.94 315.05 C 322.46 306.15 321.44 296.95 323.02 287.99 Z" />
</g>
<g id="#3a797cff">
<path fill="#3a797c" opacity="1.00" d=" M 511.01 292.89 C 512.37 290.23 512.81 283.39 517.19 285.70 C 518.98 288.26 517.18 291.82 516.31 294.56 C 518.62 299.14 516.93 304.22 516.54 309.03 C 514.98 310.36 513.27 311.54 511.30 312.13 C 510.45 318.54 507.20 324.23 505.24 330.31 C 504.22 333.42 504.23 336.73 503.87 339.95 C 502.89 349.01 500.14 357.75 497.31 366.37 C 495.42 371.98 493.89 377.78 490.88 382.92 C 486.22 390.99 482.07 399.34 477.35 407.38 C 470.20 418.58 461.95 429.15 452.44 438.43 C 450.02 441.39 448.98 445.56 445.12 447.15 C 445.87 448.20 446.62 449.26 447.38 450.33 C 440.65 453.66 436.75 460.33 434.14 467.09 C 433.54 465.98 432.95 464.86 432.37 463.76 C 431.28 466.17 430.50 468.71 430.23 471.35 C 420.49 476.21 410.62 481.13 402.35 488.33 C 399.03 490.88 397.15 494.68 395.32 498.34 C 389.01 509.58 384.23 521.65 376.96 532.35 C 375.95 531.92 374.96 531.51 373.96 531.09 C 373.70 529.69 373.42 528.29 373.15 526.90 C 374.78 523.93 376.44 520.99 377.97 517.97 C 374.62 520.36 371.73 523.30 368.64 525.99 C 370.09 522.84 371.89 519.89 373.68 516.93 C 375.24 516.38 376.88 515.75 377.76 514.24 C 380.99 509.38 385.54 505.61 388.83 500.80 C 391.89 496.58 394.07 491.81 396.15 487.05 C 399.05 480.51 399.65 473.20 402.81 466.74 C 406.61 458.70 410.12 450.48 414.95 442.98 C 417.91 438.38 419.78 433.20 422.49 428.47 C 427.33 419.96 432.94 411.83 439.72 404.75 C 444.95 399.28 451.31 395.02 456.32 389.32 C 462.40 382.59 468.28 375.50 472.48 367.41 C 475.56 361.07 479.37 355.14 483.10 349.16 C 487.34 341.53 492.09 334.20 496.76 326.82 C 499.75 320.61 504.31 315.27 506.88 308.83 C 509.06 303.76 512.42 298.69 511.01 292.89 M 472.15 377.14 C 465.20 384.53 458.66 392.31 451.23 399.23 C 444.42 405.56 439.19 413.29 433.78 420.79 C 425.77 430.37 420.53 441.84 414.94 452.89 C 425.62 443.81 437.47 436.24 448.20 427.21 C 457.76 420.20 466.24 411.72 473.13 402.06 C 477.06 396.58 478.48 389.86 480.62 383.58 C 482.39 377.94 485.12 372.68 487.30 367.20 C 490.20 359.41 494.57 352.14 496.06 343.87 C 486.89 354.04 480.45 366.29 472.15 377.14 Z" />
</g>
<g id="#7aa290ff">
<path fill="#7aa290" opacity="1.00" d=" M 388.98 324.01 C 397.14 311.20 405.93 298.45 417.78 288.74 C 416.81 291.42 414.79 294.22 415.55 297.17 C 416.33 300.64 420.83 300.22 422.46 303.08 C 420.43 303.85 418.36 304.52 416.27 305.14 C 417.43 306.81 418.58 308.49 419.77 310.15 C 417.68 308.88 415.37 307.07 412.85 308.40 C 415.38 311.08 417.78 313.88 419.96 316.86 C 418.24 318.93 416.70 321.14 415.21 323.38 C 410.24 328.69 404.86 333.65 400.69 339.65 C 394.09 349.32 386.28 358.14 380.27 368.20 C 376.89 374.93 372.83 381.32 370.27 388.44 C 361.40 406.16 355.51 425.21 351.54 444.58 C 349.97 450.07 349.67 455.82 348.00 461.28 C 346.93 464.28 346.18 467.39 345.96 470.58 C 347.24 470.49 348.53 470.41 349.83 470.33 C 348.62 481.51 348.57 492.90 345.77 503.85 C 345.30 506.10 344.87 508.47 343.44 510.35 C 342.63 499.54 344.07 488.73 343.83 477.92 C 343.46 471.92 344.03 465.93 344.34 459.94 C 344.95 452.90 344.01 445.84 344.78 438.81 C 344.90 439.67 345.13 441.38 345.24 442.23 C 346.42 438.89 347.30 435.44 347.85 431.94 C 350.91 413.27 356.61 395.12 363.66 377.60 C 368.31 367.62 371.77 357.16 376.00 347.02 C 379.35 338.83 384.29 331.46 388.98 324.01 Z" />
<path fill="#7aa290" opacity="1.00" d=" M 368.64 525.99 C 371.73 523.30 374.62 520.36 377.97 517.97 C 376.44 520.99 374.78 523.93 373.15 526.90 C 367.21 537.54 361.38 548.50 358.96 560.56 C 357.82 566.83 354.80 572.60 354.13 578.98 C 353.26 586.06 351.27 592.93 350.17 599.97 C 349.11 609.32 347.43 618.57 345.80 627.83 C 345.34 633.69 342.24 638.77 339.94 644.04 C 338.64 645.75 337.30 647.42 336.04 649.16 C 336.20 645.51 336.34 641.84 337.27 638.29 C 338.48 635.30 339.48 632.24 340.13 629.08 C 341.28 623.64 343.23 618.34 343.53 612.74 C 344.21 600.23 344.92 587.66 347.55 575.39 C 349.04 568.56 348.96 561.33 351.92 554.88 C 356.54 544.71 363.71 536.00 368.64 525.99 Z" />
</g>
<g id="#7ba28fff">
<path fill="#7ba28f" opacity="1.00" d=" M 496.17 321.16 C 500.60 311.47 506.11 302.34 511.01 292.89 C 512.42 298.69 509.06 303.76 506.88 308.83 C 504.31 315.27 499.75 320.61 496.76 326.82 C 492.09 334.20 487.34 341.53 483.10 349.16 C 479.37 355.14 475.56 361.07 472.48 367.41 C 468.28 375.50 462.40 382.59 456.32 389.32 C 451.31 395.02 444.95 399.28 439.72 404.75 C 432.94 411.83 427.33 419.96 422.49 428.47 C 419.78 433.20 417.91 438.38 414.95 442.98 C 410.12 450.48 406.61 458.70 402.81 466.74 C 399.65 473.20 399.05 480.51 396.15 487.05 C 394.07 491.81 391.89 496.58 388.83 500.80 C 385.54 505.61 380.99 509.38 377.76 514.24 C 376.88 515.75 375.24 516.38 373.68 516.93 C 376.04 511.10 379.31 505.71 382.12 500.10 C 387.00 490.79 391.54 481.32 395.73 471.69 C 399.38 463.17 402.10 454.29 405.83 445.81 C 411.53 432.49 421.52 421.71 430.79 410.80 C 444.06 395.05 457.54 379.47 470.32 363.32 C 480.44 350.28 489.38 336.24 496.17 321.16 Z" />
</g>
<g id="#4a7d7cff">
<path fill="#4a7d7c" opacity="1.00" d=" M 511.30 312.13 C 513.27 311.54 514.98 310.36 516.54 309.03 C 516.01 314.55 515.69 320.11 514.66 325.57 C 513.54 325.84 512.43 326.11 511.32 326.39 C 512.32 326.95 513.31 327.52 514.32 328.09 C 512.15 353.24 507.93 378.62 497.86 401.93 C 489.37 419.64 477.26 435.58 462.49 448.53 C 452.57 457.19 442.48 466.12 430.23 471.35 C 430.50 468.71 431.28 466.17 432.37 463.76 C 432.95 464.86 433.54 465.98 434.14 467.09 C 436.75 460.33 440.65 453.66 447.38 450.33 C 446.62 449.26 445.87 448.20 445.12 447.15 C 448.98 445.56 450.02 441.39 452.44 438.43 C 461.95 429.15 470.20 418.58 477.35 407.38 C 482.07 399.34 486.22 390.99 490.88 382.92 C 493.89 377.78 495.42 371.98 497.31 366.37 C 500.14 357.75 502.89 349.01 503.87 339.95 C 504.23 336.73 504.22 333.42 505.24 330.31 C 507.20 324.23 510.45 318.54 511.30 312.13 Z" />
</g>
<g id="#729d8cff">
<path fill="#729d8c" opacity="1.00" d=" M 472.15 377.14 C 480.45 366.29 486.89 354.04 496.06 343.87 C 494.57 352.14 490.20 359.41 487.30 367.20 C 485.12 372.68 482.39 377.94 480.62 383.58 C 478.48 389.86 477.06 396.58 473.13 402.06 C 466.24 411.72 457.76 420.20 448.20 427.21 C 437.47 436.24 425.62 443.81 414.94 452.89 C 420.53 441.84 425.77 430.37 433.78 420.79 C 439.19 413.29 444.42 405.56 451.23 399.23 C 458.66 392.31 465.20 384.53 472.15 377.14 Z" />
</g>
<g id="#3f7675ff">
<path fill="#3f7675" opacity="1.00" d=" M 427.89 389.92 C 435.64 383.70 441.33 375.33 449.06 369.13 C 447.71 372.66 447.00 376.40 447.03 380.20 C 435.34 392.93 421.57 403.42 408.01 414.04 C 393.80 425.48 381.04 439.03 372.03 455.00 C 369.60 459.42 368.31 464.41 365.46 468.62 C 363.19 471.84 363.43 476.02 361.81 479.54 C 359.33 485.11 359.30 491.29 358.28 497.21 C 358.22 496.36 358.10 494.67 358.04 493.82 C 355.75 499.17 351.14 502.75 347.53 507.11 C 346.94 506.02 346.35 504.93 345.77 503.85 C 348.57 492.90 348.62 481.51 349.83 470.33 C 348.53 470.41 347.24 470.49 345.96 470.58 C 346.18 467.39 346.93 464.28 348.00 461.28 C 348.76 463.99 351.47 461.67 351.86 459.97 C 355.62 449.16 358.97 438.19 362.20 427.19 C 363.42 423.04 365.45 419.21 367.11 415.23 C 371.28 404.77 375.61 394.37 379.99 384.00 C 382.09 378.79 385.76 374.50 388.95 369.96 C 389.66 372.98 389.64 376.16 388.34 379.02 C 387.50 379.42 386.66 379.81 385.83 380.22 C 385.63 381.67 384.94 383.15 385.37 384.62 C 387.76 385.93 391.23 386.47 393.34 384.37 C 394.70 382.15 395.13 379.54 395.71 377.05 C 398.05 376.83 400.38 377.12 402.02 379.00 C 404.82 381.85 409.04 381.15 412.67 381.40 C 413.29 380.37 413.91 379.34 414.54 378.32 C 415.05 378.25 416.07 378.11 416.58 378.05 C 416.27 379.32 415.97 380.59 415.67 381.87 C 417.53 382.57 419.39 383.27 421.26 383.98 C 419.31 385.39 417.38 386.83 415.53 388.35 C 417.01 388.58 418.76 389.34 420.03 388.10 C 423.58 385.28 426.37 381.60 430.15 379.03 C 425.96 386.43 418.85 391.95 416.06 400.16 C 420.83 397.77 423.78 393.15 427.89 389.92 Z" />
</g>
<g id="#437977ff">
<path fill="#437977" opacity="1.00" d=" M 202.69 406.30 C 209.89 407.08 213.79 413.66 218.01 418.71 C 217.34 418.89 215.99 419.27 215.31 419.45 C 215.00 421.66 214.10 424.00 215.02 426.18 C 216.02 429.01 217.44 431.74 217.63 434.79 C 217.84 439.94 220.79 444.39 221.62 449.42 C 222.91 456.24 224.69 463.02 227.72 469.30 C 230.56 475.27 232.69 481.54 235.58 487.48 C 237.68 491.83 240.95 495.45 243.42 499.58 C 249.47 510.04 257.40 519.33 262.79 530.18 C 265.21 535.14 267.63 540.11 269.90 545.14 C 274.66 556.84 280.37 568.13 285.30 579.76 C 285.88 581.85 287.74 582.78 289.70 583.26 C 288.48 572.09 283.68 561.82 280.99 551.00 C 283.06 554.51 285.50 557.78 287.88 561.08 C 288.37 559.66 288.85 558.24 289.34 556.82 C 292.53 563.78 296.78 570.32 298.72 577.78 C 299.67 580.71 302.14 582.79 303.54 585.49 C 305.19 588.26 305.49 591.54 305.51 594.70 C 306.01 594.42 307.01 593.87 307.50 593.60 C 309.81 598.81 311.79 604.21 314.77 609.11 C 317.82 614.08 319.75 619.66 323.10 624.47 C 323.90 610.88 323.48 597.19 321.45 583.71 C 320.26 574.40 318.33 564.88 313.01 556.96 C 307.13 548.15 302.06 538.83 297.78 529.15 C 294.96 522.09 294.66 514.41 294.06 506.93 C 293.37 499.91 294.99 492.97 296.14 486.09 C 296.37 485.69 296.84 484.87 297.07 484.47 C 299.43 485.89 302.10 486.57 304.79 486.99 C 304.87 487.31 305.02 487.97 305.10 488.29 C 302.70 492.48 303.12 497.36 303.19 501.99 C 303.44 508.23 302.73 514.53 303.59 520.74 C 306.20 533.76 315.01 544.15 320.03 556.20 C 319.45 556.33 318.29 556.59 317.71 556.72 C 319.20 557.87 320.70 559.03 322.19 560.20 C 322.05 565.09 323.64 569.79 325.80 574.12 C 327.05 565.46 325.98 556.71 326.15 548.01 C 326.46 528.03 326.14 507.54 319.74 488.40 C 322.38 489.02 325.54 488.70 327.79 490.28 C 329.86 494.15 332.82 499.18 329.85 503.36 C 330.69 504.32 331.53 505.29 332.38 506.25 C 331.60 508.29 330.83 510.33 330.08 512.38 C 331.38 512.60 332.69 512.81 334.00 513.04 C 333.98 520.08 334.92 527.10 334.45 534.14 C 333.76 543.85 336.22 553.56 334.48 563.24 C 334.00 562.67 333.06 561.54 332.59 560.97 C 331.59 561.84 330.02 562.44 329.88 563.95 C 329.33 568.35 329.71 572.81 329.14 577.22 C 328.43 582.55 330.71 587.70 330.27 593.04 C 329.99 597.35 329.91 601.68 330.12 606.00 C 330.93 605.19 331.74 604.37 332.56 603.57 C 332.94 607.75 333.09 611.95 332.67 616.13 C 332.68 613.78 332.29 611.43 331.15 609.35 C 330.43 614.67 330.94 620.05 332.05 625.29 C 332.48 630.65 331.14 635.91 330.69 641.23 C 330.15 647.60 328.65 653.84 327.66 660.15 C 326.20 658.02 324.63 655.98 323.02 653.97 C 321.32 646.23 320.71 638.08 317.04 630.93 C 316.65 630.04 316.27 629.15 315.88 628.28 C 314.42 621.49 311.29 615.24 307.42 609.52 C 303.79 604.30 301.48 598.29 297.54 593.27 C 297.09 593.74 296.19 594.68 295.73 595.15 C 288.32 587.59 280.88 580.05 272.99 572.99 C 267.43 567.96 262.84 561.96 258.57 555.83 C 259.37 555.17 260.21 554.58 261.06 553.99 C 256.46 547.09 252.49 539.79 247.76 532.99 C 248.54 537.43 252.10 540.84 252.35 545.40 C 243.14 532.17 236.82 517.20 230.50 502.45 C 223.59 486.88 217.95 470.78 213.48 454.34 C 214.34 453.17 215.20 452.00 216.06 450.83 C 215.06 447.75 214.46 444.51 215.23 441.31 C 213.76 442.31 212.25 443.25 210.71 444.16 C 207.71 433.08 204.45 422.06 202.36 410.76 C 202.21 409.26 202.51 407.77 202.69 406.30 Z" />
</g>
<g id="#276365ff">
<path fill="#276365" opacity="1.00" d=" M 215.31 419.45 C 215.99 419.27 217.34 418.89 218.01 418.71 C 219.04 420.06 220.03 421.44 221.02 422.82 C 222.46 426.73 223.97 430.78 227.02 433.75 C 227.16 437.53 228.10 441.19 229.29 444.76 C 230.03 447.77 230.53 450.83 231.09 453.88 C 231.72 461.28 233.37 468.64 236.66 475.34 C 239.29 480.66 241.17 486.41 244.79 491.19 C 250.31 498.59 256.36 505.64 263.07 511.99 C 270.47 524.28 275.99 537.58 280.99 551.00 C 283.68 561.82 288.48 572.09 289.70 583.26 C 287.74 582.78 285.88 581.85 285.30 579.76 C 280.37 568.13 274.66 556.84 269.90 545.14 C 267.63 540.11 265.21 535.14 262.79 530.18 C 257.40 519.33 249.47 510.04 243.42 499.58 C 240.95 495.45 237.68 491.83 235.58 487.48 C 232.69 481.54 230.56 475.27 227.72 469.30 C 224.69 463.02 222.91 456.24 221.62 449.42 C 220.79 444.39 217.84 439.94 217.63 434.79 C 217.44 431.74 216.02 429.01 215.02 426.18 C 214.10 424.00 215.00 421.66 215.31 419.45 Z" />
</g>
<g id="#6a9889ff">
<path fill="#6a9889" opacity="1.00" d=" M 221.02 422.82 C 226.42 428.82 231.52 435.07 236.87 441.10 C 242.33 447.93 248.55 454.13 253.67 461.25 C 260.41 470.70 267.43 480.07 272.40 490.62 C 275.61 497.55 278.86 504.50 281.26 511.77 C 281.14 514.18 281.00 516.61 281.02 519.04 C 280.57 519.17 280.13 519.31 279.69 519.45 C 279.01 518.58 278.33 517.72 277.66 516.86 C 277.43 519.41 277.11 521.95 276.83 524.51 C 272.45 516.84 270.80 508.03 266.80 500.20 C 263.58 493.50 259.40 487.27 256.68 480.33 C 251.68 467.31 245.42 454.47 235.93 444.10 C 233.11 440.52 230.80 436.46 227.02 433.75 C 223.97 430.78 222.46 426.73 221.02 422.82 Z" />
</g>
<g id="#265f64ff">
<path fill="#265f64" opacity="1.00" d=" M 326.22 458.94 C 325.11 449.94 320.70 441.60 321.02 432.38 C 326.41 441.80 327.52 452.77 331.12 462.86 C 333.60 471.20 335.73 479.68 337.23 488.26 C 337.35 494.27 339.54 499.97 339.89 505.95 C 340.51 515.29 341.06 524.64 341.32 534.00 C 341.36 537.56 340.05 540.96 339.90 544.50 C 340.05 547.87 341.27 551.19 340.63 554.59 C 340.06 558.04 339.79 561.52 339.55 565.01 C 339.31 568.44 337.69 571.61 337.58 575.06 C 337.59 582.46 336.73 589.94 338.53 597.22 C 336.62 610.83 336.82 624.59 337.27 638.29 C 336.34 641.84 336.20 645.51 336.04 649.16 C 334.29 654.56 332.85 660.04 331.11 665.44 C 329.97 663.66 328.84 661.88 327.66 660.15 C 328.65 653.84 330.15 647.60 330.69 641.23 C 331.14 635.91 332.48 630.65 332.05 625.29 C 332.14 622.22 332.47 619.18 332.67 616.13 C 333.09 611.95 332.94 607.75 332.56 603.57 C 332.62 590.12 332.30 576.55 334.48 563.24 C 336.22 553.56 333.76 543.85 334.45 534.14 C 334.92 527.10 333.98 520.08 334.00 513.04 C 334.05 507.84 333.50 502.67 332.55 497.57 C 331.63 492.94 332.87 488.16 331.62 483.59 C 330.91 480.63 330.50 477.62 330.18 474.60 C 329.60 469.21 327.14 464.26 326.22 458.94 Z" />
</g>
<g id="#377a7cff">
<path fill="#377a7c" opacity="1.00" d=" M 227.02 433.75 C 230.80 436.46 233.11 440.52 235.93 444.10 C 245.42 454.47 251.68 467.31 256.68 480.33 C 259.40 487.27 263.58 493.50 266.80 500.20 C 270.80 508.03 272.45 516.84 276.83 524.51 C 276.93 525.13 277.11 526.37 277.21 526.99 C 272.62 522.77 270.80 516.61 267.71 511.37 C 265.19 504.92 260.78 499.54 257.52 493.49 C 253.01 485.97 248.36 478.52 244.18 470.81 C 240.41 462.44 237.06 453.81 231.88 446.17 C 231.30 445.28 230.25 445.00 229.29 444.76 C 228.10 441.19 227.16 437.53 227.02 433.75 Z" />
</g>
<g id="#497d7cff">
<path fill="#497d7c" opacity="1.00" d=" M 482.24 438.78 C 484.57 439.92 488.04 440.56 488.26 443.73 C 490.41 459.10 485.83 474.28 482.00 489.01 C 475.91 508.59 464.72 526.78 449.06 540.13 C 450.30 537.96 451.38 535.70 452.49 533.47 C 451.72 532.34 450.95 531.20 450.18 530.08 C 451.25 527.86 452.00 525.39 453.65 523.51 C 455.18 522.59 457.07 522.68 458.79 522.41 C 457.11 521.23 455.44 520.03 453.76 518.86 C 454.74 515.82 455.63 512.75 456.83 509.79 C 462.82 499.05 467.84 487.78 471.99 476.23 C 472.70 470.39 476.97 465.99 478.45 460.42 C 480.09 454.67 483.18 449.39 484.06 443.43 C 482.59 443.46 481.13 443.50 479.67 443.55 L 479.96 442.79 C 480.71 441.45 481.47 440.11 482.24 438.78 Z" />
<path fill="#497d7c" opacity="1.00" d=" M 340.45 731.68 C 343.38 751.00 343.01 770.63 345.23 790.03 C 346.97 803.79 345.87 817.81 348.53 831.47 C 348.89 833.54 349.44 835.61 349.50 837.73 C 348.47 839.78 345.83 840.14 343.96 841.14 C 340.93 841.56 337.85 841.74 334.80 841.41 C 336.19 841.15 337.60 840.92 339.01 840.70 C 337.54 839.48 336.00 838.30 334.89 836.74 C 334.57 833.84 335.40 830.98 336.03 828.18 C 339.48 813.71 342.87 798.99 342.04 784.00 C 342.07 766.53 338.37 749.14 340.45 731.68 Z" />
</g>
<g id="#568277ff">
<path fill="#568277" opacity="1.00" d=" M 210.71 444.16 C 212.25 443.25 213.76 442.31 215.23 441.31 C 214.46 444.51 215.06 447.75 216.06 450.83 C 215.20 452.00 214.34 453.17 213.48 454.34 C 212.50 450.96 211.64 447.55 210.71 444.16 Z" />
</g>
<g id="#6c998aff">
<path fill="#6c998a" opacity="1.00" d=" M 440.57 493.21 C 452.91 475.80 467.30 459.96 479.96 442.79 L 479.67 443.55 C 478.60 446.89 477.21 450.14 475.18 453.01 C 473.47 454.35 471.55 455.56 470.48 457.51 C 467.37 462.74 465.05 468.39 462.98 474.09 C 458.56 482.99 456.26 492.71 452.43 501.85 C 448.87 498.29 442.71 498.33 440.57 493.21 Z" />
</g>
<g id="#699789ff">
<path fill="#699789" opacity="1.00" d=" M 229.29 444.76 C 230.25 445.00 231.30 445.28 231.88 446.17 C 237.06 453.81 240.41 462.44 244.18 470.81 C 248.36 478.52 253.01 485.97 257.52 493.49 C 260.78 499.54 265.19 504.92 267.71 511.37 C 270.80 516.61 272.62 522.77 277.21 526.99 C 281.11 532.57 280.21 539.85 283.36 545.74 C 285.34 549.44 287.51 553.04 289.34 556.82 C 288.85 558.24 288.37 559.66 287.88 561.08 C 285.50 557.78 283.06 554.51 280.99 551.00 C 275.99 537.58 270.47 524.28 263.07 511.99 C 259.66 502.96 253.98 495.10 249.12 486.84 C 242.56 476.15 238.58 464.02 231.09 453.88 C 230.53 450.83 230.03 447.77 229.29 444.76 Z" />
</g>
<g id="#387a7cff">
<path fill="#387a7c" opacity="1.00" d=" M 470.48 457.51 C 471.55 455.56 473.47 454.35 475.18 453.01 C 472.93 457.66 471.33 462.58 469.23 467.29 C 467.97 470.21 465.26 472.04 462.98 474.09 C 465.05 468.39 467.37 462.74 470.48 457.51 Z" />
</g>
<g id="#38797bff">
<path fill="#38797b" opacity="1.00" d=" M 231.09 453.88 C 238.58 464.02 242.56 476.15 249.12 486.84 C 253.98 495.10 259.66 502.96 263.07 511.99 C 256.36 505.64 250.31 498.59 244.79 491.19 C 241.17 486.41 239.29 480.66 236.66 475.34 C 233.37 468.64 231.72 461.28 231.09 453.88 Z" />
</g>
<g id="#6e9a89ff">
<path fill="#6e9a89" opacity="1.00" d=" M 296.50 474.25 C 298.05 474.69 299.71 474.91 301.11 475.75 C 303.18 479.15 303.83 483.17 304.79 486.99 C 302.10 486.57 299.43 485.89 297.07 484.47 C 296.84 484.87 296.37 485.69 296.14 486.09 C 296.22 482.14 296.24 478.19 296.50 474.25 Z" />
</g>
<g id="#79a08dff">
<path fill="#79a08d" opacity="1.00" d=" M 303.19 501.99 C 303.12 497.36 302.70 492.48 305.10 488.29 C 307.12 494.75 309.03 501.24 310.83 507.77 C 316.32 524.79 321.21 542.26 322.19 560.20 C 320.70 559.03 319.20 557.87 317.71 556.72 C 318.29 556.59 319.45 556.33 320.03 556.20 C 315.01 544.15 306.20 533.76 303.59 520.74 C 302.73 514.53 303.44 508.23 303.19 501.99 Z" />
</g>
<g id="#78a08fff">
<path fill="#78a08f" opacity="1.00" d=" M 416.75 528.77 C 423.95 516.44 432.10 504.70 440.57 493.21 C 442.71 498.33 448.87 498.29 452.43 501.85 C 451.59 503.80 450.76 505.75 449.93 507.70 C 445.27 511.78 441.40 516.65 436.87 520.87 C 428.30 529.00 421.22 538.58 412.21 546.25 C 405.87 551.67 401.02 558.49 395.64 564.79 C 398.24 558.94 402.02 553.75 405.33 548.30 C 409.40 541.94 412.61 535.09 416.75 528.77 Z" />
</g>
<g id="#3d7675ff">
<path fill="#3d7675" opacity="1.00" d=" M 436.87 520.87 C 441.40 516.65 445.27 511.78 449.93 507.70 C 449.04 510.08 448.19 512.53 446.59 514.55 C 441.82 520.74 436.66 526.62 431.39 532.39 C 427.85 536.33 423.99 540.21 422.16 545.31 C 427.45 543.31 430.73 538.45 434.68 534.67 C 441.99 526.32 449.40 518.04 456.83 509.79 C 455.63 512.75 454.74 515.82 453.76 518.86 C 455.44 520.03 457.11 521.23 458.79 522.41 C 457.07 522.68 455.18 522.59 453.65 523.51 C 452.00 525.39 451.25 527.86 450.18 530.08 C 450.95 531.20 451.72 532.34 452.49 533.47 C 451.38 535.70 450.30 537.96 449.06 540.13 C 443.54 545.88 436.47 549.69 429.67 553.70 C 423.80 557.12 418.32 561.18 412.32 564.38 C 411.79 563.95 410.74 563.09 410.21 562.67 C 409.61 562.94 409.01 563.23 408.42 563.52 C 408.92 564.37 409.42 565.22 409.93 566.08 C 405.42 569.48 400.50 572.48 396.80 576.81 C 388.37 587.26 381.14 598.60 374.05 609.99 C 369.19 616.12 364.29 622.23 358.81 627.83 C 356.13 630.68 353.95 634.02 350.87 636.47 C 346.72 638.19 343.06 640.83 339.94 644.04 C 342.24 638.77 345.34 633.69 345.80 627.83 C 347.43 618.57 349.11 609.32 350.17 599.97 C 351.27 592.93 353.26 586.06 354.13 578.98 C 354.80 572.60 357.82 566.83 358.96 560.56 C 361.38 548.50 367.21 537.54 373.15 526.90 C 373.42 528.29 373.70 529.69 373.96 531.09 C 374.96 531.51 375.95 531.92 376.96 532.35 C 373.47 537.78 369.81 543.13 367.03 548.98 C 358.19 566.51 356.54 586.35 352.45 605.27 C 350.09 615.36 349.86 625.76 348.25 635.97 C 359.12 618.89 368.07 600.55 380.55 584.52 C 385.88 578.18 390.88 571.58 395.64 564.79 C 401.02 558.49 405.87 551.67 412.21 546.25 C 421.22 538.58 428.30 529.00 436.87 520.87 Z" />
</g>
<g id="#78a08dff">
<path fill="#78a08d" opacity="1.00" d=" M 281.26 511.77 C 284.92 519.70 286.84 528.27 289.30 536.61 C 292.50 547.39 295.07 558.36 299.12 568.87 C 302.02 577.08 305.43 585.12 307.50 593.60 C 307.01 593.87 306.01 594.42 305.51 594.70 C 305.49 591.54 305.19 588.26 303.54 585.49 C 302.14 582.79 299.67 580.71 298.72 577.78 C 296.78 570.32 292.53 563.78 289.34 556.82 C 287.51 553.04 285.34 549.44 283.36 545.74 C 280.21 539.85 281.11 532.57 277.21 526.99 C 277.11 526.37 276.93 525.13 276.83 524.51 C 277.11 521.95 277.43 519.41 277.66 516.86 C 278.33 517.72 279.01 518.58 279.69 519.45 C 280.13 519.31 280.57 519.17 281.02 519.04 C 281.00 516.61 281.14 514.18 281.26 511.77 Z" />
</g>
<g id="#6f9780ff">
<path fill="#6f9780" opacity="1.00" d=" M 247.76 532.99 C 252.49 539.79 256.46 547.09 261.06 553.99 C 260.21 554.58 259.37 555.17 258.57 555.83 C 256.36 552.43 254.25 548.97 252.35 545.40 C 252.10 540.84 248.54 537.43 247.76 532.99 Z" />
</g>
<g id="#5f8f84ff">
<path fill="#5f8f84" opacity="1.00" d=" M 329.88 563.95 C 330.02 562.44 331.59 561.84 332.59 560.97 C 333.06 561.54 334.00 562.67 334.48 563.24 C 332.30 576.55 332.62 590.12 332.56 603.57 C 331.74 604.37 330.93 605.19 330.12 606.00 C 329.91 601.68 329.99 597.35 330.27 593.04 C 330.71 587.70 328.43 582.55 329.14 577.22 C 329.71 572.81 329.33 568.35 329.88 563.95 Z" />
</g>
<g id="#84a389ff">
<path fill="#84a389" opacity="1.00" d=" M 297.54 593.27 C 301.48 598.29 303.79 604.30 307.42 609.52 C 311.29 615.24 314.42 621.49 315.88 628.28 C 312.96 624.52 311.04 620.16 309.25 615.79 C 306.07 608.13 300.99 601.48 295.73 595.15 C 296.19 594.68 297.09 593.74 297.54 593.27 Z" />
</g>
<g id="#6d988aff">
<path fill="#6d988a" opacity="1.00" d=" M 331.15 609.35 C 332.29 611.43 332.68 613.78 332.67 616.13 C 332.47 619.18 332.14 622.22 332.05 625.29 C 330.94 620.05 330.43 614.67 331.15 609.35 Z" />
</g>
<g id="#78a08eff">
<path fill="#78a08e" opacity="1.00" d=" M 358.81 627.83 C 364.29 622.23 369.19 616.12 374.05 609.99 C 370.11 620.28 364.48 629.85 358.25 638.92 C 355.77 638.15 353.31 637.32 350.87 636.47 C 353.95 634.02 356.13 630.68 358.81 627.83 Z" />
</g>
<g id="#839d85ff">
<path fill="#839d85" opacity="1.00" d=" M 317.04 630.93 C 320.71 638.08 321.32 646.23 323.02 653.97 C 322.02 652.98 320.99 652.04 319.95 651.11 C 319.92 644.28 318.90 637.49 317.04 630.93 Z" />
</g>
<g id="#be5980ff">
<path fill="#be5980" opacity="1.00" d=" M 339.94 644.04 C 343.06 640.83 346.72 638.19 350.87 636.47 C 353.31 637.32 355.77 638.15 358.25 638.92 C 359.77 643.49 358.69 648.27 356.43 652.39 C 353.50 658.01 351.39 664.25 346.84 668.86 C 344.28 671.63 340.96 674.78 341.56 678.94 C 342.95 684.85 345.75 690.30 347.97 695.93 C 349.63 700.58 351.14 705.28 353.08 709.83 C 352.40 709.76 351.05 709.62 350.37 709.55 C 345.48 702.51 343.18 694.22 339.35 686.65 C 339.35 685.51 339.35 684.37 339.36 683.24 C 337.02 682.70 334.66 682.30 332.27 682.13 C 331.40 683.32 330.53 684.53 329.66 685.74 C 327.99 688.04 326.47 690.45 324.86 692.80 C 321.70 697.30 317.87 701.35 315.26 706.22 C 313.81 709.16 312.50 712.17 311.08 715.13 C 309.46 714.27 307.80 713.49 306.12 712.77 C 307.37 705.60 309.18 698.32 313.15 692.12 C 315.18 688.87 317.87 686.11 320.08 683.00 C 322.02 680.42 321.77 677.05 322.24 674.03 C 312.13 667.08 302.64 657.82 299.12 645.74 C 297.96 642.98 299.53 640.42 300.92 638.13 C 307.92 641.40 314.32 645.82 319.95 651.11 C 320.99 652.04 322.02 652.98 323.02 653.97 C 324.63 655.98 326.20 658.02 327.66 660.15 C 328.84 661.88 329.97 663.66 331.11 665.44 C 332.85 660.04 334.29 654.56 336.04 649.16 C 337.30 647.42 338.64 645.75 339.94 644.04 M 349.28 643.01 C 343.72 644.71 343.04 651.93 337.83 654.12 C 338.50 656.05 338.64 658.09 338.61 660.13 C 341.55 657.54 343.71 654.25 345.64 650.88 C 346.14 650.99 347.12 651.21 347.61 651.32 C 345.66 655.10 343.57 658.80 341.43 662.49 C 340.50 663.90 340.53 665.63 340.42 667.26 C 345.41 662.79 346.88 655.88 350.47 650.42 C 352.76 647.09 354.17 643.26 353.90 639.17 C 352.30 640.34 350.26 641.18 349.28 643.01 M 303.89 642.79 C 304.31 646.03 305.15 649.26 306.91 652.06 C 311.05 658.96 316.03 665.68 322.87 670.10 C 321.14 667.18 318.36 665.15 316.25 662.55 C 314.92 661.16 316.72 659.90 317.74 659.13 C 316.52 659.15 315.31 659.16 314.10 659.17 C 313.13 656.19 311.53 652.79 313.69 649.94 C 310.79 647.10 307.81 644.14 303.89 642.79 Z" />
</g>
<g id="#779d8dff">
<path fill="#779d8d" opacity="1.00" d=" M 349.28 643.01 C 350.26 641.18 352.30 640.34 353.90 639.17 C 354.17 643.26 352.76 647.09 350.47 650.42 C 346.88 655.88 345.41 662.79 340.42 667.26 C 340.53 665.63 340.50 663.90 341.43 662.49 C 343.57 658.80 345.66 655.10 347.61 651.32 C 347.12 651.21 346.14 650.99 345.64 650.88 C 347.08 648.36 348.06 645.62 349.28 643.01 Z" />
</g>
<g id="#f6ca75ff">
<path fill="#f6ca75" opacity="1.00" d=" M 303.89 642.79 C 307.81 644.14 310.79 647.10 313.69 649.94 C 311.53 652.79 313.13 656.19 314.10 659.17 C 315.31 659.16 316.52 659.15 317.74 659.13 C 316.72 659.90 314.92 661.16 316.25 662.55 C 318.36 665.15 321.14 667.18 322.87 670.10 C 316.03 665.68 311.05 658.96 306.91 652.06 C 305.15 649.26 304.31 646.03 303.89 642.79 Z" />
</g>
<g id="#497578ff">
<path fill="#497578" opacity="1.00" d=" M 337.83 654.12 C 343.04 651.93 343.72 644.71 349.28 643.01 C 348.06 645.62 347.08 648.36 345.64 650.88 C 343.71 654.25 341.55 657.54 338.61 660.13 C 338.64 658.09 338.50 656.05 337.83 654.12 Z" />
</g>
<g id="#477b7aff">
<path fill="#477b7a" opacity="1.00" d=" M 332.27 682.13 C 334.66 682.30 337.02 682.70 339.36 683.24 C 339.35 684.37 339.35 685.51 339.35 686.65 C 337.77 695.06 339.22 703.57 339.48 712.02 C 339.68 716.44 339.66 720.86 339.70 725.29 C 337.25 718.81 334.95 712.02 335.24 705.00 C 335.48 698.68 335.32 692.34 334.85 686.04 C 334.92 684.26 333.31 683.28 332.27 682.13 Z" />
</g>
<g id="#286265ff">
<path fill="#286265" opacity="1.00" d=" M 329.66 685.74 C 330.53 684.53 331.40 683.32 332.27 682.13 C 333.31 683.28 334.92 684.26 334.85 686.04 C 335.32 692.34 335.48 698.68 335.24 705.00 C 334.95 712.02 337.25 718.81 339.70 725.29 C 339.97 727.41 340.24 729.54 340.45 731.68 C 338.37 749.14 342.07 766.53 342.04 784.00 C 342.87 798.99 339.48 813.71 336.03 828.18 C 335.40 830.98 334.57 833.84 334.89 836.74 C 336.00 838.30 337.54 839.48 339.01 840.70 C 337.60 840.92 336.19 841.15 334.80 841.41 C 333.49 839.94 331.73 838.71 331.02 836.83 C 330.76 833.19 331.76 829.62 332.32 826.06 C 333.56 819.43 333.98 812.68 334.12 805.94 C 334.18 799.54 336.05 793.21 335.28 786.79 C 333.86 776.61 333.81 766.30 333.22 756.05 C 332.66 744.38 335.05 732.67 333.19 721.04 C 331.17 709.37 330.14 697.57 329.66 685.74 Z" />
</g>
<g id="#568780ff">
<path fill="#568780" opacity="1.00" d=" M 324.86 692.80 C 326.47 690.45 327.99 688.04 329.66 685.74 C 330.14 697.57 331.17 709.37 333.19 721.04 C 335.05 732.67 332.66 744.38 333.22 756.05 C 333.81 766.30 333.86 776.61 335.28 786.79 C 336.05 793.21 334.18 799.54 334.12 805.94 C 333.98 812.68 333.56 819.43 332.32 826.06 C 331.76 829.62 330.76 833.19 331.02 836.83 C 331.73 838.71 333.49 839.94 334.80 841.41 C 333.10 840.66 331.07 840.26 329.81 838.82 C 329.51 833.21 330.25 827.60 330.10 821.99 C 329.59 810.18 329.55 798.34 328.56 786.55 C 328.20 755.29 327.75 723.95 324.86 692.80 Z" />
</g>
<g id="#cf7b7aff">
<path fill="#cf7b7a" opacity="1.00" d=" M 538.81 816.71 C 544.71 814.85 552.60 818.30 553.14 824.98 C 553.84 828.39 551.92 831.42 550.20 834.17 C 552.66 837.45 554.76 841.43 553.61 845.67 C 552.04 854.64 538.90 857.38 533.08 850.92 C 531.17 849.07 530.79 846.35 530.13 843.92 C 531.85 844.11 533.85 843.52 535.40 844.50 C 537.01 846.33 538.11 849.30 541.03 849.23 C 545.57 850.19 549.40 845.31 548.07 841.05 C 547.84 837.45 543.71 837.20 541.05 836.51 C 541.12 835.12 541.11 833.74 540.99 832.38 C 543.73 831.52 548.06 830.77 547.82 827.00 C 548.22 822.83 543.36 819.96 539.79 821.76 C 538.25 823.03 537.15 824.73 535.96 826.32 C 534.52 826.25 533.08 826.19 531.65 826.16 C 531.64 821.86 534.44 817.56 538.81 816.71 Z" />
</g>
<g id="#cf7a7aff">
<path fill="#cf7a7a" opacity="1.00" d=" M 567.61 816.57 C 574.67 814.64 583.16 820.31 582.37 828.01 C 581.48 836.38 573.61 841.23 569.72 848.12 C 573.80 848.40 577.90 848.40 581.99 848.29 C 582.19 850.15 582.27 852.02 582.24 853.91 C 574.14 854.12 566.03 853.93 557.93 853.85 C 563.25 846.57 569.59 840.08 574.73 832.67 C 576.20 830.54 577.58 827.93 576.73 825.30 C 575.30 822.43 571.81 820.54 568.68 821.60 C 565.89 822.48 564.95 825.56 563.67 827.87 C 562.06 827.83 560.46 827.87 558.88 828.00 C 558.99 822.83 562.09 817.31 567.61 816.57 Z" />
</g>
<g id="#d17e7aff">
<path fill="#d17e7a" opacity="1.00" d=" M 130.26 827.24 C 134.82 823.10 143.51 823.82 146.59 829.44 C 147.40 830.88 147.11 832.60 147.18 834.20 C 144.09 833.65 143.93 829.80 141.60 828.28 C 139.08 826.98 135.99 827.23 133.46 828.36 C 130.42 829.60 130.01 834.51 132.84 836.20 C 137.15 838.51 142.89 837.85 146.42 841.63 C 149.60 845.58 147.45 852.07 142.65 853.55 C 138.27 854.86 132.80 855.03 129.19 851.80 C 127.21 850.17 126.78 847.54 126.13 845.22 C 126.76 845.23 128.03 845.26 128.66 845.27 C 129.64 846.95 130.51 848.75 131.88 850.18 C 134.75 852.22 138.71 852.24 141.89 850.93 C 145.30 849.70 146.06 844.05 142.61 842.41 C 138.85 840.42 134.22 840.77 130.64 838.38 C 126.94 835.94 127.01 830.02 130.26 827.24 Z" />
</g>
<g id="#d07d7aff">
<path fill="#d07d7a" opacity="1.00" d=" M 161.22 827.16 C 161.63 825.46 163.33 825.14 164.80 824.90 C 167.45 829.33 169.06 834.25 171.01 839.01 C 172.96 843.96 175.30 848.76 176.90 853.85 C 176.20 853.86 174.80 853.90 174.11 853.91 C 173.06 851.67 172.12 849.35 170.69 847.33 C 165.90 846.89 161.09 847.19 156.30 847.33 C 155.36 849.41 154.43 851.50 153.50 853.59 C 152.42 853.72 151.34 853.86 150.26 854.02 C 153.96 845.08 157.58 836.11 161.22 827.16 M 157.79 844.06 C 161.80 844.52 165.85 844.51 169.86 844.12 C 168.01 839.25 166.16 834.37 163.78 829.74 C 161.08 834.18 159.26 839.09 157.79 844.06 Z" />
<path fill="#d07d7a" opacity="1.00" d=" M 181.62 829.62 C 186.36 823.43 196.33 823.10 202.09 828.00 C 204.17 829.71 205.06 832.32 205.93 834.78 C 205.27 834.77 203.97 834.74 203.31 834.72 C 201.76 832.65 200.41 830.30 198.27 828.80 C 193.31 826.52 186.28 827.25 183.32 832.33 C 180.00 838.41 181.01 848.12 188.24 850.89 C 194.80 854.03 203.48 848.88 203.00 841.38 C 199.90 841.34 196.79 841.22 193.69 841.10 C 193.78 840.57 193.97 839.51 194.06 838.98 C 197.98 838.28 201.98 838.62 205.93 838.89 C 206.14 843.89 206.14 848.91 205.83 853.91 C 205.24 853.87 204.06 853.77 203.47 853.72 C 203.29 852.47 203.12 851.23 202.95 850.00 C 198.97 853.52 193.47 855.70 188.22 853.85 C 178.09 851.38 175.39 837.10 181.62 829.62 Z" />
</g>
<g id="#d27f7aff">
<path fill="#d27f7a" opacity="1.00" d=" M 213.90 825.24 C 220.20 825.20 226.51 825.07 232.81 825.23 C 232.82 825.88 232.84 827.18 232.85 827.83 C 227.55 828.10 222.23 827.96 216.93 828.19 C 216.46 831.40 216.49 834.65 216.87 837.88 C 221.89 837.99 226.91 837.85 231.93 838.09 C 231.91 838.78 231.89 840.15 231.87 840.84 C 226.87 840.96 221.86 840.82 216.86 841.03 C 216.51 844.32 216.52 847.64 216.87 850.95 C 222.16 851.26 227.46 850.96 232.76 851.19 C 232.78 851.85 232.81 853.17 232.83 853.83 C 226.50 854.12 220.17 854.01 213.84 853.93 C 213.55 844.37 213.40 834.78 213.90 825.24 Z" />
</g>
<g id="#f6ca74ff">
<path fill="#f6ca74" opacity="1.00" d=" M 157.79 844.06 C 159.26 839.09 161.08 834.18 163.78 829.74 C 166.16 834.37 168.01 839.25 169.86 844.12 C 165.85 844.51 161.80 844.52 157.79 844.06 Z" />
</g>
</svg>
