<?xml version="1.0" encoding="UTF-8" ?>
<!DOCTYPE svg PUBLIC "-//W3C//DTD SVG 1.1//EN" "http://www.w3.org/Graphics/SVG/1.1/DTD/svg11.dtd">
<svg width="707pt" height="1000pt" viewBox="0 0 707 1000" version="1.1" xmlns="http://www.w3.org/2000/svg">
<g id="#618f78fb">
<path fill="#618f78" opacity="1.00" d=" M 71.06 307.00 C 71.43 305.60 82.74 304.54 82.73 307.02 C 78.83 307.01 74.94 307.00 71.06 307.00 Z" />
<path fill="#618f78" opacity="1.00" d=" M 111.28 307.01 C 111.87 305.31 125.14 305.26 125.73 307.01 C 120.91 307.00 116.10 307.01 111.28 307.01 Z" />
<path fill="#618f78" opacity="1.00" d=" M 154.35 307.03 C 154.66 305.78 166.94 304.66 167.65 307.06 C 163.21 307.02 158.78 307.01 154.35 307.03 Z" />
<path fill="#618f78" opacity="1.00" d=" M 196.13 307.92 C 195.55 303.40 210.45 306.46 210.63 307.01 C 205.83 307.35 200.70 305.98 196.13 307.92 Z" />
<path fill="#618f78" opacity="1.00" d=" M 239.35 306.98 C 239.68 306.48 254.22 303.46 253.91 307.83 C 249.09 307.06 244.22 306.98 239.35 306.98 Z" />
<path fill="#618f78" opacity="1.00" d=" M 282.40 307.20 C 282.29 304.77 286.60 305.16 287.87 306.48 C 286.50 306.66 283.76 307.02 282.40 307.20 Z" />
<path fill="#618f78" opacity="1.00" d=" M 288.65 306.38 C 291.08 306.98 297.54 303.90 296.95 307.88 C 294.29 306.92 291.42 306.69 288.65 306.38 Z" />
<path fill="#618f78" opacity="1.00" d=" M 325.33 307.03 C 325.77 305.74 337.66 304.68 338.72 307.02 C 334.25 307.01 329.78 307.01 325.33 307.03 Z" />
<path fill="#618f78" opacity="1.00" d=" M 367.22 307.00 C 368.00 305.21 381.08 305.35 381.70 307.01 C 376.87 307.01 372.03 306.99 367.22 307.00 Z" />
<path fill="#618f78" opacity="1.00" d=" M 410.33 307.01 C 410.85 306.99 427.34 302.06 424.77 309.22 C 422.23 304.20 414.66 308.26 410.33 307.01 Z" />
<path fill="#618f78" opacity="1.00" d=" M 455.74 306.21 C 459.04 307.66 466.61 302.98 467.84 308.05 C 463.84 307.26 459.76 306.80 455.74 306.21 Z" />
<path fill="#618f78" opacity="1.00" d=" M 495.24 309.24 C 492.64 302.06 508.98 306.98 509.71 306.98 C 505.01 307.79 497.86 304.57 495.24 309.24 Z" />
<path fill="#618f78" opacity="1.00" d=" M 538.40 307.14 C 538.38 304.77 542.72 305.22 543.86 306.70 C 542.50 306.81 539.77 307.03 538.40 307.14 Z" />
<path fill="#618f78" opacity="1.00" d=" M 581.24 307.10 C 583.67 305.76 587.36 305.48 592.32 306.28 C 588.62 306.60 584.92 306.87 581.24 307.10 Z" />
<path fill="#618f78" opacity="1.00" d=" M 593.99 306.26 C 595.62 304.83 598.12 307.60 596.54 309.09 C 595.60 308.23 594.74 307.29 593.99 306.26 Z" />
<path fill="#618f78" opacity="1.00" d=" M 233.38 317.10 C 233.09 315.34 235.34 313.10 237.10 313.36 C 236.79 315.31 235.26 316.69 233.38 317.10 Z" />
<path fill="#618f78" opacity="1.00" d=" M 190.37 318.10 C 190.10 316.33 192.34 314.10 194.10 314.37 C 193.77 316.29 192.28 317.74 190.37 318.10 Z" />
<path fill="#618f78" opacity="1.00" d=" M 213.86 314.35 C 215.29 313.62 217.38 315.74 216.64 317.17 C 215.18 316.91 214.08 315.81 213.86 314.35 Z" />
<path fill="#618f78" opacity="1.00" d=" M 383.96 314.37 C 385.91 313.80 388.18 316.07 387.64 318.02 C 385.94 317.48 384.54 316.04 383.96 314.37 Z" />
<path fill="#618f78" opacity="1.00" d=" M 511.86 314.04 C 514.45 314.63 516.34 316.51 516.96 319.10 C 514.73 318.14 512.98 316.16 511.86 314.04 Z" />
<path fill="#618f78" opacity="1.00" d=" M 531.03 319.09 C 531.66 316.51 533.55 314.63 536.14 314.04 C 535.03 316.16 533.26 318.13 531.03 319.09 Z" />
<path fill="#618f78" opacity="1.00" d=" M 276.22 318.92 C 275.53 317.00 278.48 315.26 280.08 315.38 C 279.89 317.44 277.90 318.27 276.22 318.92 Z" />
<path fill="#618f78" opacity="1.00" d=" M 318.37 319.04 C 317.87 317.22 319.79 314.25 321.88 315.22 C 320.94 316.65 320.19 318.55 318.37 319.04 Z" />
<path fill="#618f78" opacity="1.00" d=" M 404.33 318.13 C 403.64 316.70 405.73 314.64 407.16 315.36 C 406.89 316.80 405.83 317.98 404.33 318.13 Z" />
<path fill="#618f78" opacity="1.00" d=" M 618.37 319.04 C 617.87 317.22 619.78 314.25 621.88 315.22 C 620.93 316.65 620.19 318.55 618.37 319.04 Z" />
<path fill="#618f78" opacity="1.00" d=" M 427.86 316.35 C 429.28 315.64 431.35 317.72 430.65 319.15 C 429.16 318.97 428.09 317.80 427.86 316.35 Z" />
<path fill="#618f78" opacity="1.00" d=" M 599.86 316.35 C 601.28 315.64 603.35 317.72 602.65 319.15 C 601.16 318.97 600.09 317.80 599.86 316.35 Z" />
<path fill="#618f78" opacity="1.00" d=" M 223.01 319.65 C 224.09 318.10 226.94 318.07 228.01 319.65 C 226.76 319.65 224.26 319.65 223.01 319.65 Z" />
<path fill="#618f78" opacity="1.00" d=" M 393.94 320.53 C 395.31 319.41 396.68 319.41 398.05 320.52 C 396.81 321.37 395.19 321.37 393.94 320.53 Z" />
<path fill="#618f78" opacity="1.00" d=" M 521.04 320.59 C 522.56 319.14 525.48 319.17 527.01 320.63 C 525.07 321.45 523.08 321.44 521.04 320.59 Z" />
<path fill="#618f78" opacity="1.00" d=" M 632.01 323.58 C 633.06 322.71 634.49 322.81 635.78 322.98 C 635.90 324.75 632.86 324.60 632.01 323.58 Z" />
<path fill="#618f78" opacity="1.00" d=" M 100.95 333.05 C 270.29 332.98 439.64 332.95 608.99 333.06 L 608.96 334.02 C 439.67 333.98 270.38 334.00 101.09 334.01 L 100.95 333.05 Z" />
<path fill="#618f78" opacity="1.00" d=" M 127.46 351.35 C 126.55 349.79 128.84 347.54 130.38 348.47 C 129.81 349.77 128.78 350.80 127.46 351.35 Z" />
<path fill="#618f78" opacity="1.00" d=" M 131.25 348.07 C 133.91 347.17 133.59 352.30 131.22 351.80 C 131.25 350.55 131.27 349.31 131.25 348.07 Z" />
<path fill="#618f78" opacity="1.00" d=" M 623.92 348.36 C 625.66 348.11 627.89 350.34 627.63 352.10 C 625.69 351.78 624.25 350.27 623.92 348.36 Z" />
<path fill="#618f78" opacity="1.00" d=" M 153.82 349.50 C 155.62 348.97 158.02 351.37 157.58 353.17 C 155.73 352.69 154.38 351.30 153.82 349.50 Z" />
<path fill="#618f78" opacity="1.00" d=" M 73.04 352.58 C 74.11 351.02 76.99 351.07 78.02 352.67 C 76.77 352.65 74.28 352.60 73.04 352.58 Z" />
<path fill="#618f78" opacity="1.00" d=" M 124.31 355.16 C 123.16 353.56 125.58 351.57 127.09 352.21 C 126.82 353.69 125.47 354.43 124.31 355.16 Z" />
<path fill="#618f78" opacity="1.00" d=" M 158.04 355.18 C 159.83 354.93 159.84 359.04 158.05 358.79 C 157.97 357.58 157.97 356.38 158.04 355.18 Z" />
<path fill="#618f78" opacity="1.00" d=" M 121.46 359.10 C 120.16 357.60 122.53 355.52 124.02 356.13 C 123.94 357.64 122.58 358.37 121.46 359.10 Z" />
<path fill="#618f78" opacity="1.00" d=" M 152.52 361.25 C 151.69 360.24 152.67 357.76 154.11 358.22 C 154.45 359.51 153.76 360.78 152.52 361.25 Z" />
<path fill="#618f78" opacity="1.00" d=" M 129.69 359.31 C 132.87 357.93 133.90 360.98 134.72 363.39 C 133.03 362.04 131.44 360.58 129.69 359.31 Z" />
<path fill="#618f78" opacity="1.00" d=" M 153.97 364.71 C 154.13 363.21 155.52 362.57 156.69 361.97 C 157.86 363.50 155.39 365.49 153.97 364.71 Z" />
<path fill="#618f78" opacity="1.00" d=" M 128.82 363.39 C 130.26 362.59 132.40 364.74 131.60 366.18 C 130.17 365.90 129.09 364.82 128.82 363.39 Z" />
<path fill="#618f78" opacity="1.00" d=" M 148.27 366.01 C 147.15 364.47 149.61 362.52 151.02 363.28 C 150.89 364.80 149.47 365.43 148.27 366.01 Z" />
<path fill="#618f78" opacity="1.00" d=" M 117.99 370.86 C 116.15 370.33 116.12 365.76 117.93 365.25 C 118.02 367.11 118.04 368.98 117.99 370.86 Z" />
<path fill="#618f78" opacity="1.00" d=" M 121.97 369.88 C 120.20 370.07 120.16 365.98 121.96 366.25 C 122.03 367.45 122.03 368.66 121.97 369.88 Z" />
<path fill="#618f78" opacity="1.00" d=" M 148.95 370.66 C 149.14 368.60 151.04 367.71 152.73 367.06 C 153.47 368.96 150.54 370.76 148.95 370.66 Z" />
<path fill="#618f78" opacity="1.00" d=" M 144.29 371.03 C 143.13 369.48 145.61 367.51 147.03 368.29 C 146.87 369.79 145.47 370.42 144.29 371.03 Z" />
<path fill="#618f78" opacity="1.00" d=" M 128.83 372.60 C 129.09 371.17 130.17 370.09 131.61 369.82 C 132.40 371.25 130.26 373.40 128.83 372.60 Z" />
<path fill="#618f78" opacity="1.00" d=" M 122.07 370.93 C 123.11 371.39 124.10 371.98 125.00 372.71 C 123.86 374.10 120.93 372.67 122.07 370.93 Z" />
<path fill="#618f78" opacity="1.00" d=" M 118.39 371.76 C 120.23 372.30 121.58 373.69 122.18 375.50 C 120.34 376.00 117.97 373.57 118.39 371.76 Z" />
<path fill="#618f78" opacity="1.00" d=" M 157.98 375.94 C 160.70 368.85 146.50 376.84 148.67 371.52 C 151.91 373.39 162.47 368.63 159.00 376.95 C 152.64 376.99 146.28 377.24 139.93 376.91 C 139.69 374.91 141.62 373.97 142.93 372.91 C 139.64 380.48 154.49 373.97 157.98 375.94 Z" />
<path fill="#618f78" opacity="1.00" d=" M 407.31 373.26 C 410.11 374.00 412.32 372.23 414.97 371.89 C 412.27 391.44 409.13 411.68 396.93 427.96 C 393.35 433.41 389.39 438.61 385.80 444.06 C 383.26 441.98 380.28 440.85 376.98 441.38 C 379.10 431.19 379.81 420.72 382.74 410.71 C 388.24 396.65 397.32 384.43 407.31 373.26 Z" />
<path fill="#618f78" opacity="1.00" d=" M 131.97 375.68 C 132.74 374.65 133.66 373.74 134.68 372.97 C 136.11 374.53 133.53 377.11 131.97 375.68 Z" />
<path fill="#618f78" opacity="1.00" d=" M 90.57 380.00 C 91.58 381.82 91.58 383.80 90.56 385.95 C 89.20 384.39 89.18 381.54 90.57 380.00 Z" />
<path fill="#618f78" opacity="1.00" d=" M 73.12 398.45 C 75.12 397.32 78.04 397.23 79.97 398.55 C 77.91 399.97 75.35 398.90 73.12 398.45 Z" />
<path fill="#618f78" opacity="1.00" d=" M 292.98 447.98 C 295.52 432.38 300.92 415.77 312.89 404.92 C 317.79 421.41 320.78 440.73 312.85 456.85 C 309.98 457.33 307.63 459.13 305.43 460.91 C 303.97 459.07 302.36 461.49 303.05 463.05 C 297.74 466.28 301.97 478.12 294.94 477.24 C 296.85 467.35 290.61 458.08 292.98 447.98 Z" />
<path fill="#618f78" opacity="1.00" d=" M 499.41 413.53 C 506.09 409.13 504.65 416.94 502.64 419.67 C 488.86 437.47 470.43 451.91 448.91 458.72 C 445.88 457.52 445.15 461.28 442.37 461.46 C 435.71 463.59 428.70 464.30 421.81 465.28 C 421.08 457.96 413.87 454.61 407.75 452.42 C 420.15 447.47 433.30 445.31 445.80 440.62 C 447.44 435.58 442.21 440.65 439.79 438.36 C 422.57 440.44 406.85 449.10 390.99 455.91 C 390.81 452.84 390.48 449.87 389.27 447.06 C 419.00 419.68 462.13 420.96 499.41 413.53 M 410.23 434.26 C 409.85 439.14 415.63 432.05 410.23 434.26 M 405.34 437.42 C 403.52 439.27 399.89 440.10 399.96 443.11 C 402.42 442.40 409.71 438.86 405.34 437.42 Z" />
<path fill="#618f78" opacity="1.00" d=" M 508.78 433.79 C 523.88 418.49 546.25 414.40 566.87 414.20 C 572.58 415.72 578.43 416.95 583.90 419.25 C 587.33 428.17 576.02 429.48 572.38 435.35 C 561.24 450.13 549.11 465.47 530.96 471.85 C 500.51 486.23 465.39 486.78 432.88 482.13 C 431.25 481.32 429.54 481.69 427.88 482.09 C 425.66 479.26 422.38 477.70 419.37 475.90 C 420.14 473.85 421.02 471.84 421.83 469.82 C 434.43 465.73 447.99 466.43 460.66 462.59 C 478.41 456.07 495.56 447.65 508.78 433.79 M 543.23 454.18 C 541.70 454.92 542.01 456.64 541.98 458.05 C 544.93 459.25 546.70 452.69 543.23 454.18 M 537.22 460.16 C 535.25 461.86 533.92 464.29 533.84 466.92 C 537.62 466.25 543.00 461.41 537.22 460.16 M 521.97 466.35 C 521.06 469.45 524.84 470.38 526.92 468.83 C 527.66 465.70 523.93 466.21 521.97 466.35 M 519.26 467.37 C 516.39 468.38 509.16 469.97 513.21 473.89 C 515.05 473.81 523.95 468.62 519.26 467.37 M 506.19 471.34 C 505.29 475.99 510.60 471.76 506.19 471.34 M 421.98 472.98 C 421.90 476.12 428.84 477.35 430.20 474.16 C 427.37 473.72 424.78 473.19 421.98 472.98 M 433.20 473.11 C 430.04 474.84 435.01 477.43 436.26 475.33 C 438.29 473.62 434.41 473.29 433.20 473.11 M 446.21 473.20 C 442.62 476.12 449.88 475.95 446.21 473.20 Z" />
<path fill="#618f78" opacity="1.00" d=" M 239.95 436.03 C 238.18 435.02 239.00 431.84 241.05 432.04 C 262.88 440.40 287.65 454.03 289.97 480.17 C 287.56 484.26 286.12 489.02 281.35 491.02 C 279.59 488.35 274.58 487.01 276.67 483.15 C 268.61 482.96 267.68 471.31 261.80 467.21 C 259.16 465.37 262.58 460.79 258.25 462.82 C 253.29 453.22 246.77 444.46 239.95 436.03 Z" />
<path fill="#618f78" opacity="1.00" d=" M 84.33 442.13 C 83.65 440.70 85.73 438.64 87.15 439.36 C 86.90 440.80 85.84 441.98 84.33 442.13 Z" />
<path fill="#618f78" opacity="1.00" d=" M 73.99 444.43 C 75.36 443.37 76.72 443.40 78.05 444.53 C 76.81 445.39 75.18 445.34 73.99 444.43 Z" />
<path fill="#618f78" opacity="1.00" d=" M 163.85 477.71 C 181.89 472.73 201.11 469.78 219.68 473.37 C 239.55 479.88 256.96 492.69 269.71 509.21 C 269.94 521.16 284.92 524.41 285.07 536.11 C 281.69 534.25 278.65 526.19 273.99 530.15 C 277.52 535.01 283.44 538.92 286.07 544.03 C 268.86 542.00 253.92 532.47 237.13 528.81 C 233.22 526.24 229.15 523.65 225.96 520.03 C 223.85 515.83 215.66 518.00 217.68 511.31 C 209.63 513.97 208.47 501.37 200.81 504.45 C 191.73 500.45 182.92 495.16 173.12 492.79 C 167.84 491.04 161.53 490.76 158.11 485.76 C 155.45 480.66 160.25 478.63 163.85 477.71 M 227.00 509.97 C 226.43 516.25 232.23 513.58 236.06 516.09 C 235.28 512.50 230.67 509.66 227.00 509.97 M 260.20 511.28 C 260.05 516.14 265.50 510.01 260.20 511.28 M 265.96 517.98 C 265.46 521.22 269.10 522.78 269.38 525.88 C 277.37 527.25 270.46 517.17 265.96 517.98 Z" />
<path fill="#618f78" opacity="1.00" d=" M 622.38 480.01 C 621.43 478.09 621.46 476.11 622.47 474.06 C 623.83 475.61 623.77 478.47 622.38 480.01 Z" />
<path fill="#618f78" opacity="1.00" d=" M 85.36 488.15 C 84.64 486.74 86.68 484.64 88.11 485.33 C 87.97 486.82 86.82 487.91 85.36 488.15 Z" />
<path fill="#618f78" opacity="1.00" d=" M 428.86 491.84 C 449.89 490.51 473.76 488.51 491.71 501.47 C 517.35 514.07 525.45 544.31 529.97 570.11 C 517.91 567.52 507.40 560.39 496.01 555.97 C 473.61 551.56 450.25 560.55 428.31 552.67 C 421.69 548.82 414.39 545.60 409.17 539.80 C 410.46 535.37 410.38 530.35 407.05 526.87 C 408.48 522.88 412.27 519.59 413.14 515.13 C 415.01 511.03 412.49 504.30 417.87 502.82 C 422.96 500.75 427.44 497.31 428.86 491.84 M 459.20 499.28 C 459.05 504.14 464.50 498.01 459.20 499.28 M 471.20 501.28 C 471.05 506.14 476.50 500.01 471.20 501.28 M 477.95 502.95 C 477.70 507.28 483.08 506.38 485.27 508.72 C 487.58 510.99 490.84 510.74 493.74 510.06 C 493.16 515.86 498.37 518.03 503.08 519.08 C 499.56 514.44 495.42 509.84 490.67 506.39 C 486.01 506.62 482.47 503.00 477.95 502.95 M 439.26 546.26 C 438.67 552.24 445.24 545.67 439.26 546.26 M 447.24 547.14 C 445.48 548.60 444.01 550.53 447.40 550.58 C 455.77 555.28 451.10 545.07 447.24 547.14 M 458.58 547.41 C 457.54 549.36 455.37 549.76 453.86 551.04 C 460.86 550.55 468.08 548.77 475.07 549.87 C 480.21 550.60 487.97 554.76 492.13 550.17 C 481.02 548.37 470.26 544.80 458.58 547.41 Z" />
<path fill="#618f78" opacity="1.00" d=" M 83.34 508.88 C 84.81 509.05 86.01 510.15 86.14 511.66 C 84.73 512.32 82.68 510.29 83.34 508.88 Z" />
<path fill="#618f78" opacity="1.00" d=" M 623.06 513.73 C 623.05 511.68 624.71 510.12 626.72 510.02 C 626.77 511.67 624.69 513.74 623.06 513.73 Z" />
<path fill="#618f78" opacity="1.00" d=" M 620.34 525.99 C 619.53 524.00 619.58 522.01 620.47 520.05 C 621.89 521.57 621.78 524.49 620.34 525.99 Z" />
<path fill="#618f78" opacity="1.00" d=" M 82.38 535.04 C 81.88 533.22 83.79 530.25 85.88 531.22 C 84.94 532.65 84.20 534.55 82.38 535.04 Z" />
<path fill="#618f78" opacity="1.00" d=" M 213.40 538.54 C 236.59 535.91 258.74 544.30 280.91 549.19 C 281.80 552.79 276.59 551.07 275.42 553.42 C 271.24 559.17 259.84 557.55 257.93 565.01 C 267.88 563.47 276.71 556.56 287.15 556.08 C 277.06 564.26 267.28 572.85 258.66 582.64 C 239.41 590.25 217.99 597.64 197.08 592.82 C 183.13 588.89 168.06 587.05 155.33 579.82 C 155.80 575.05 150.72 579.66 149.56 575.71 C 143.55 575.46 137.10 570.64 141.28 564.28 C 152.27 558.40 163.77 553.64 175.69 549.67 C 187.03 543.04 200.48 540.60 213.40 538.54 M 232.20 545.28 C 232.05 550.14 237.50 544.01 232.20 545.28 Z" />
<path fill="#618f78" opacity="1.00" d=" M 631.98 538.54 C 632.77 537.39 635.94 537.15 635.79 539.01 C 634.49 539.21 633.15 539.13 631.98 538.54 Z" />
<path fill="#618f78" opacity="1.00" d=" M 391.43 544.38 C 395.70 544.09 400.04 547.33 404.62 546.18 C 416.59 552.10 423.07 565.56 426.05 578.05 C 418.67 576.75 413.08 569.74 404.94 570.16 C 389.91 570.77 378.49 559.98 369.00 549.90 C 376.89 551.23 385.76 550.77 391.43 544.38 Z" />
<path fill="#618f78" opacity="1.00" d=" M 357.87 549.90 C 359.01 544.87 363.06 546.21 366.13 548.83 C 375.05 561.85 391.68 570.69 392.76 588.07 C 391.45 595.25 399.20 607.87 390.00 610.99 C 370.81 601.72 355.93 583.47 349.94 563.03 C 352.87 560.41 354.54 556.78 356.24 553.32 C 358.05 553.25 358.55 551.33 357.87 549.90 M 359.29 571.32 C 354.53 571.02 360.00 580.62 361.45 575.37 C 362.70 573.74 361.79 570.08 359.29 571.32 Z" />
<path fill="#618f78" opacity="1.00" d=" M 302.33 550.84 C 303.51 550.84 305.66 551.97 304.20 553.25 C 302.70 553.05 302.08 552.25 302.33 550.84 Z" />
<path fill="#618f78" opacity="1.00" d=" M 73.03 552.42 C 74.27 552.42 76.75 552.41 77.99 552.40 C 76.94 553.96 74.11 553.93 73.03 552.42 Z" />
<path fill="#618f78" opacity="1.00" d=" M 623.97 559.65 C 624.49 557.96 625.92 556.38 627.72 556.08 C 628.09 557.98 625.86 560.12 623.97 559.65 Z" />
<path fill="#618f78" opacity="1.00" d=" M 281.75 581.72 C 287.04 573.28 292.84 564.90 300.95 558.92 C 300.98 561.50 301.04 564.10 301.13 566.72 C 299.78 569.24 299.62 574.25 295.91 574.04 C 296.18 571.62 299.69 568.29 296.22 566.90 C 296.75 570.33 294.70 572.60 291.23 572.31 C 289.33 587.14 287.55 603.06 277.15 614.67 C 280.99 616.26 275.68 620.92 273.66 622.59 C 268.48 631.34 260.55 637.71 252.03 643.03 C 249.46 645.85 244.17 646.24 242.16 642.70 C 241.84 629.03 244.70 615.37 249.75 602.72 C 260.14 586.08 275.54 573.46 291.07 561.86 C 286.62 570.00 283.68 573.35 279.35 581.31 C 277.69 583.69 281.09 583.39 281.75 581.72 Z" />
<path fill="#618f78" opacity="1.00" d=" M 89.64 564.99 C 90.51 566.87 90.49 568.87 89.58 570.96 C 88.17 569.41 88.21 566.51 89.64 564.99 Z" />
<path fill="#618f78" opacity="1.00" d=" M 83.19 580.85 C 82.30 578.77 85.23 576.91 87.03 577.37 C 86.57 579.19 84.68 579.99 83.19 580.85 Z" />
<path fill="#618f78" opacity="1.00" d=" M 623.94 579.35 C 625.67 579.13 627.87 581.34 627.64 583.09 C 625.67 582.83 624.26 581.26 623.94 579.35 Z" />
<path fill="#618f78" opacity="1.00" d=" M 295.38 581.38 C 296.68 579.88 296.17 589.05 293.99 590.23 C 293.99 587.27 293.26 583.81 295.38 581.38 Z" />
<path fill="#618f78" opacity="1.00" d=" M 622.86 624.04 C 625.45 624.63 627.33 626.51 627.97 629.09 C 625.71 628.16 623.99 626.14 622.86 624.04 Z" />
<path fill="#618f78" opacity="1.00" d=" M 631.98 630.53 C 632.77 629.38 635.95 629.15 635.80 631.01 C 634.49 631.21 633.16 631.11 631.98 630.53 Z" />
<path fill="#618f78" opacity="1.00" d=" M 73.03 644.42 C 74.96 643.45 76.92 643.49 78.90 644.53 C 77.37 645.89 74.54 645.75 73.03 644.42 Z" />
<path fill="#618f78" opacity="1.00" d=" M 621.35 663.99 C 621.35 662.74 621.35 660.24 621.35 658.99 C 622.96 660.02 622.93 662.93 621.35 663.99 Z" />
<path fill="#618f78" opacity="1.00" d=" M 101.04 664.98 C 270.33 665.01 439.61 665.00 608.90 664.99 L 609.05 665.95 C 439.71 666.02 270.36 666.05 101.02 665.94 L 101.04 664.98 Z" />
<path fill="#618f78" opacity="1.00" d=" M 222.98 676.55 C 224.16 675.60 225.83 675.59 227.02 676.55 C 225.67 677.59 224.32 677.58 222.98 676.55 Z" />
<path fill="#618f78" opacity="1.00" d=" M 179.02 677.46 C 180.87 676.36 182.85 676.35 184.96 677.44 C 183.40 678.77 180.60 678.74 179.02 677.46 Z" />
<path fill="#618f78" opacity="1.00" d=" M 479.02 677.43 C 480.87 676.33 482.82 676.37 484.88 677.55 C 483.31 678.83 480.54 678.72 479.02 677.43 Z" />
<path fill="#618f78" opacity="1.00" d=" M 350.02 678.45 C 351.86 677.44 353.84 677.45 355.94 678.48 C 354.39 679.84 351.54 679.81 350.02 678.45 Z" />
<path fill="#618f78" opacity="1.00" d=" M 213.03 682.72 C 213.09 680.70 214.70 679.17 216.66 678.95 C 216.81 680.64 214.70 682.78 213.03 682.72 Z" />
<path fill="#618f78" opacity="1.00" d=" M 233.32 678.90 C 234.85 678.97 235.95 680.18 236.13 681.66 C 234.73 682.31 232.68 680.30 233.32 678.90 Z" />
<path fill="#618f78" opacity="1.00" d=" M 170.87 682.66 C 171.03 681.16 172.17 680.02 173.68 679.90 C 174.33 681.31 172.27 683.32 170.87 682.66 Z" />
<path fill="#618f78" opacity="1.00" d=" M 299.89 682.66 C 300.04 681.16 301.16 679.90 302.74 679.98 C 303.29 681.36 301.25 683.27 299.89 682.66 Z" />
<path fill="#618f78" opacity="1.00" d=" M 340.99 685.05 C 341.80 682.79 343.77 680.80 346.05 680.03 C 345.24 682.46 343.43 684.27 340.99 685.05 Z" />
<path fill="#618f78" opacity="1.00" d=" M 359.95 680.02 C 362.22 680.81 364.20 682.78 365.01 685.05 C 362.56 684.27 360.74 682.45 359.95 680.02 Z" />
<path fill="#618f78" opacity="1.00" d=" M 384.08 683.72 C 384.38 681.91 385.98 680.56 387.64 679.97 C 388.15 681.87 385.98 684.13 384.08 683.72 Z" />
<path fill="#618f78" opacity="1.00" d=" M 446.28 680.03 C 448.32 680.06 449.73 681.73 450.08 683.64 C 448.36 683.84 446.20 681.71 446.28 680.03 Z" />
<path fill="#618f78" opacity="1.00" d=" M 512.88 682.66 C 513.03 681.15 514.16 679.91 515.74 679.99 C 516.29 681.37 514.23 683.27 512.88 682.66 Z" />
<path fill="#618f78" opacity="1.00" d=" M 618.28 680.02 C 620.30 680.08 621.76 681.72 622.10 683.63 C 620.37 683.85 618.20 681.71 618.28 680.02 Z" />
<path fill="#618f78" opacity="1.00" d=" M 256.89 683.66 C 257.03 682.15 258.17 680.91 259.74 680.99 C 260.29 682.37 258.24 684.27 256.89 683.66 Z" />
<path fill="#618f78" opacity="1.00" d=" M 111.28 693.01 C 116.12 692.11 124.44 695.94 125.81 689.74 C 128.99 698.19 112.70 693.14 111.28 693.01 Z" />
<path fill="#618f78" opacity="1.00" d=" M 196.19 689.74 C 197.36 696.29 206.33 691.64 210.76 693.02 C 209.20 693.19 193.04 698.16 196.19 689.74 Z" />
<path fill="#618f78" opacity="1.00" d=" M 282.30 692.99 C 287.15 692.16 295.32 695.86 296.83 689.74 C 299.97 698.20 283.65 693.12 282.30 692.99 Z" />
<path fill="#618f78" opacity="1.00" d=" M 538.28 693.01 C 543.09 692.08 551.65 696.05 552.71 689.69 C 556.20 698.19 539.66 693.16 538.28 693.01 Z" />
<path fill="#618f78" opacity="1.00" d=" M 367.31 693.01 C 372.00 692.21 379.10 695.39 381.78 690.76 C 384.30 697.94 368.00 692.99 367.31 693.01 Z" />
<path fill="#618f78" opacity="1.00" d=" M 410.28 693.02 C 414.98 692.21 422.10 695.40 424.77 690.76 C 427.31 697.93 411.02 693.00 410.28 693.02 Z" />
<path fill="#618f78" opacity="1.00" d=" M 496.23 693.00 C 500.57 692.14 507.43 695.36 509.76 690.75 C 512.16 697.09 497.63 694.49 496.23 693.00 Z" />
<path fill="#618f78" opacity="1.00" d=" M 239.23 693.04 C 244.12 693.01 249.02 692.93 253.86 692.15 C 254.24 696.48 239.94 693.62 239.23 693.04 Z" />
<path fill="#618f78" opacity="1.00" d=" M 71.04 692.99 C 74.93 692.97 78.82 692.97 82.71 692.99 C 82.84 694.12 71.78 695.64 71.04 692.99 Z" />
<path fill="#618f78" opacity="1.00" d=" M 154.28 692.98 C 158.75 692.98 163.22 692.96 167.71 692.99 C 167.11 694.25 155.36 695.31 154.28 692.98 Z" />
<path fill="#618f78" opacity="1.00" d=" M 325.19 692.97 C 329.69 693.00 334.18 692.96 338.69 692.99 C 338.04 694.22 326.53 695.36 325.19 692.97 Z" />
<path fill="#618f78" opacity="1.00" d=" M 453.32 692.97 C 457.84 692.99 462.36 692.97 466.91 692.99 C 465.62 694.41 454.37 695.24 453.32 692.97 Z" />
<path fill="#618f78" opacity="1.00" d=" M 581.23 692.98 C 586.09 693.00 590.93 692.97 595.81 693.01 C 594.89 694.67 582.07 694.72 581.23 692.98 Z" />
<path fill="#618f78" opacity="1.00" d=" M 625.17 693.00 C 628.78 693.02 632.32 692.96 635.96 693.00 C 636.25 694.33 624.58 695.48 625.17 693.00 Z" />
</g>
<g id="#ebd1b5fe">
<path fill="#ebd1b5" opacity="1.00" d=" M 287.87 306.48 L 288.65 306.38 C 291.42 306.69 294.29 306.92 296.95 307.88 C 296.72 318.13 309.98 324.70 318.37 319.04 C 320.19 318.55 320.94 316.65 321.88 315.22 C 323.71 312.81 324.58 309.91 325.33 307.03 C 329.78 307.01 334.25 307.01 338.72 307.02 C 339.11 316.62 349.64 324.98 359.00 319.97 C 364.33 318.10 367.16 312.44 367.22 307.00 C 372.03 306.99 376.87 307.01 381.70 307.01 C 382.07 309.57 382.88 312.02 383.96 314.37 C 384.54 316.04 385.94 317.48 387.64 318.02 C 389.74 318.86 391.84 319.69 393.94 320.53 C 395.19 321.37 396.81 321.37 398.05 320.52 C 400.13 319.68 402.20 318.83 404.33 318.13 C 405.83 317.98 406.89 316.80 407.16 315.36 C 408.48 312.68 409.63 309.92 410.33 307.01 C 414.66 308.26 422.23 304.20 424.77 309.22 C 425.26 311.81 426.79 313.99 427.86 316.35 C 428.09 317.80 429.16 318.97 430.65 319.15 C 438.22 323.40 448.95 320.47 451.91 312.00 C 453.20 310.36 452.54 305.22 455.74 306.21 C 459.76 306.80 463.84 307.26 467.84 308.05 C 468.75 323.16 493.52 324.77 495.24 309.24 C 497.86 304.57 505.01 307.79 509.71 306.98 C 510.08 309.42 510.65 311.86 511.86 314.04 C 512.98 316.16 514.73 318.14 516.96 319.10 C 518.28 319.68 519.66 320.12 521.04 320.59 C 523.08 321.44 525.07 321.45 527.01 320.63 C 528.34 320.11 529.71 319.66 531.03 319.09 C 533.26 318.13 535.03 316.16 536.14 314.04 C 537.29 311.88 537.86 309.50 538.40 307.14 C 539.77 307.03 542.50 306.81 543.86 306.70 C 546.68 307.45 550.92 304.41 552.60 307.31 C 553.72 315.72 562.95 322.68 571.34 319.37 C 577.22 317.94 579.88 312.47 581.24 307.10 C 584.92 306.87 588.62 306.60 592.32 306.28 C 592.74 306.28 593.58 306.27 593.99 306.26 C 594.74 307.29 595.60 308.23 596.54 309.09 C 597.31 311.66 598.73 313.94 599.86 316.35 C 600.09 317.80 601.16 318.97 602.65 319.15 C 607.62 321.41 613.57 321.96 618.37 319.04 C 620.19 318.55 620.93 316.65 621.88 315.22 C 623.93 312.58 624.82 309.35 625.32 306.09 C 627.98 306.08 633.30 306.04 635.96 306.02 C 635.97 311.66 636.32 317.35 635.78 322.98 C 634.49 322.81 633.06 322.71 632.01 323.58 C 621.85 327.01 618.77 339.71 623.92 348.36 C 624.25 350.27 625.69 351.78 627.63 352.10 C 630.35 353.07 632.93 354.05 635.90 354.28 C 636.12 359.42 636.11 364.56 635.88 369.70 C 618.65 370.32 617.34 398.67 634.67 400.39 C 636.30 403.67 639.48 418.15 631.35 416.45 C 618.90 420.84 618.63 441.13 631.35 445.55 C 640.64 444.24 634.13 456.90 635.91 461.75 C 628.99 461.98 624.26 467.85 622.47 474.06 C 621.46 476.11 621.43 478.09 622.38 480.01 C 624.54 484.98 626.74 491.64 633.11 491.83 C 638.67 492.30 634.86 499.67 636.04 502.99 C 639.10 510.36 630.34 507.84 626.72 510.02 C 624.71 510.12 623.05 511.68 623.06 513.73 C 622.76 516.03 621.47 518.01 620.47 520.05 C 619.58 522.01 619.53 524.00 620.34 525.99 C 621.37 531.99 625.99 537.17 631.98 538.54 C 633.15 539.13 634.49 539.21 635.79 539.01 C 635.93 543.87 636.39 548.84 635.82 553.71 C 633.13 554.55 630.44 555.37 627.72 556.08 C 625.92 556.38 624.49 557.96 623.97 559.65 C 620.54 565.96 620.20 573.24 623.94 579.35 C 624.26 581.26 625.67 582.83 627.64 583.09 C 634.40 584.21 638.81 586.57 636.03 594.98 C 638.79 602.13 630.51 599.37 627.29 602.31 C 620.89 607.23 618.92 617.01 622.86 624.04 C 623.99 626.14 625.71 628.16 627.97 629.09 C 629.28 629.63 630.63 630.04 631.98 630.53 C 633.16 631.11 634.49 631.21 635.80 631.01 C 635.93 635.87 636.39 640.83 635.83 645.71 C 628.63 646.65 623.11 652.05 621.35 658.99 C 621.35 660.24 621.35 662.74 621.35 663.99 C 622.60 671.02 628.61 677.02 635.89 677.32 C 636.09 682.53 636.11 687.76 635.96 693.00 C 632.32 692.96 628.78 693.02 625.17 693.00 C 623.39 690.16 623.54 686.62 622.10 683.63 C 621.76 681.72 620.30 680.08 618.28 680.02 C 607.93 674.50 597.42 682.55 595.81 693.01 C 590.93 692.97 586.09 693.00 581.23 692.98 C 581.06 683.81 572.57 674.13 562.87 677.78 C 557.41 679.33 553.92 684.37 552.71 689.69 C 551.65 696.05 543.09 692.08 538.28 693.01 C 538.31 681.61 525.59 674.12 515.74 679.99 C 514.16 679.91 513.03 681.15 512.88 682.66 C 511.91 685.38 510.52 687.94 509.76 690.75 C 507.43 695.36 500.57 692.14 496.23 693.00 C 494.73 686.34 491.61 680.06 484.88 677.55 C 482.82 676.37 480.87 676.33 479.02 677.43 C 471.41 679.11 467.69 687.09 466.91 692.99 C 462.36 692.97 457.84 692.99 453.32 692.97 C 452.49 689.77 451.30 686.69 450.08 683.64 C 449.73 681.73 448.32 680.06 446.28 680.03 C 437.56 675.21 426.11 680.77 424.77 690.76 C 422.10 695.40 414.98 692.21 410.28 693.02 C 410.39 681.80 397.34 673.70 387.64 679.97 C 385.98 680.56 384.38 681.91 384.08 683.72 C 383.42 686.09 382.52 688.40 381.78 690.76 C 379.10 695.39 372.00 692.21 367.31 693.01 C 366.84 690.27 365.99 687.64 365.01 685.05 C 364.20 682.78 362.22 680.81 359.95 680.02 C 358.59 679.54 357.26 679.02 355.94 678.48 C 353.84 677.45 351.86 677.44 350.02 678.45 C 348.72 679.04 347.40 679.56 346.05 680.03 C 343.77 680.80 341.80 682.79 340.99 685.05 C 340.01 687.63 339.16 690.26 338.69 692.99 C 334.18 692.96 329.69 693.00 325.19 692.97 C 324.09 682.07 312.79 674.84 302.74 679.98 C 301.16 679.90 300.04 681.16 299.89 682.66 C 299.08 685.10 297.81 687.36 296.83 689.74 C 295.32 695.86 287.15 692.16 282.30 692.99 C 281.03 681.95 269.51 675.51 259.74 680.99 C 258.17 680.91 257.03 682.15 256.89 683.66 C 255.91 686.50 254.22 689.10 253.86 692.15 C 249.02 692.93 244.12 693.01 239.23 693.04 C 239.20 689.00 237.57 685.34 236.13 681.66 C 235.95 680.18 234.85 678.97 233.32 678.90 C 231.16 678.31 229.01 677.61 227.02 676.55 C 225.83 675.59 224.16 675.60 222.98 676.55 C 220.97 677.60 218.82 678.31 216.66 678.95 C 214.70 679.17 213.09 680.70 213.03 682.72 C 212.18 686.13 210.91 689.46 210.76 693.02 C 206.33 691.64 197.36 696.29 196.19 689.74 C 194.97 683.79 190.47 679.56 184.96 677.44 C 182.85 676.35 180.87 676.36 179.02 677.46 C 177.29 678.37 175.56 679.34 173.68 679.90 C 172.17 680.02 171.03 681.16 170.87 682.66 C 169.58 686.02 168.13 689.37 167.71 692.99 C 163.22 692.96 158.75 692.98 154.28 692.98 C 153.84 684.32 146.90 675.44 137.37 677.39 C 131.14 678.43 127.14 683.88 125.81 689.74 C 124.44 695.94 116.12 692.11 111.28 693.01 C 110.97 684.67 103.87 676.59 95.00 677.97 C 87.67 679.15 83.11 685.96 82.71 692.99 C 78.82 692.97 74.93 692.97 71.04 692.99 C 70.94 687.02 70.80 681.06 71.08 675.12 C 82.54 678.50 94.08 665.98 89.03 654.97 C 88.64 649.31 82.82 647.41 78.90 644.53 C 76.92 643.49 74.96 643.45 73.03 644.42 C 67.86 645.74 72.59 632.48 71.05 629.13 C 77.18 629.99 84.05 627.81 87.00 622.01 C 93.25 612.86 86.05 598.66 75.12 598.27 C 66.67 601.91 72.77 587.32 71.05 583.10 C 75.22 583.25 79.65 583.42 83.19 580.85 C 84.68 579.99 86.57 579.19 87.03 577.37 C 87.89 575.24 88.80 573.12 89.58 570.96 C 90.49 568.87 90.51 566.87 89.64 564.99 C 87.79 559.22 83.77 554.40 77.99 552.40 C 76.75 552.41 74.27 552.42 73.03 552.42 C 67.84 553.69 72.61 540.50 71.05 537.13 C 75.02 537.58 78.88 536.87 82.38 535.04 C 84.20 534.55 84.94 532.65 85.88 531.22 C 90.63 525.61 88.81 517.86 86.14 511.66 C 86.01 510.15 84.81 509.05 83.34 508.88 C 79.37 507.40 75.30 504.90 71.03 506.96 C 70.98 501.34 70.81 495.72 71.05 490.12 C 76.09 491.58 81.00 490.98 85.36 488.15 C 86.82 487.91 87.97 486.82 88.11 485.33 C 96.56 473.96 85.45 455.44 71.05 460.97 C 73.03 457.00 66.70 442.38 73.99 444.43 C 75.18 445.34 76.81 445.39 78.05 444.53 C 80.13 443.68 82.20 442.83 84.33 442.13 C 85.84 441.98 86.90 440.80 87.15 439.36 C 95.71 428.37 85.20 409.27 70.93 414.73 C 72.78 410.85 67.42 397.87 73.12 398.45 C 75.35 398.90 77.91 399.97 79.97 398.55 C 85.37 396.27 89.63 391.84 90.56 385.95 C 91.58 383.80 91.58 381.82 90.57 380.00 C 88.16 371.75 79.61 365.74 71.03 368.92 C 72.74 365.21 67.55 351.44 73.04 352.58 C 74.28 352.60 76.77 352.65 78.02 352.67 C 88.41 350.28 93.18 337.43 87.26 328.76 C 84.27 323.06 76.88 320.71 70.92 322.73 C 70.88 317.48 70.92 312.24 71.06 307.00 C 74.94 307.00 78.83 307.01 82.73 307.02 C 82.94 310.07 84.16 312.88 85.96 315.32 C 86.62 316.44 87.54 317.40 88.68 318.04 C 93.49 321.73 100.53 321.84 105.32 318.04 C 106.46 317.40 107.38 316.44 108.03 315.32 C 109.85 312.87 111.06 310.06 111.28 307.01 C 116.10 307.01 120.91 307.00 125.73 307.01 C 126.20 315.86 136.71 323.15 145.04 319.02 C 150.27 317.15 152.91 312.04 154.35 307.03 C 158.78 307.01 163.21 307.02 167.65 307.06 C 169.25 317.78 180.93 323.71 190.37 318.10 C 192.28 317.74 193.77 316.29 194.10 314.37 C 194.88 312.25 195.67 310.13 196.13 307.92 C 200.70 305.98 205.83 307.35 210.63 307.01 C 211.19 309.67 212.75 311.92 213.86 314.35 C 214.08 315.81 215.18 316.91 216.64 317.17 C 218.72 318.10 220.81 319.01 223.01 319.65 C 224.26 319.65 226.76 319.65 228.01 319.65 C 229.81 318.83 231.55 317.87 233.38 317.10 C 235.26 316.69 236.79 315.31 237.10 313.36 C 237.85 311.23 238.66 309.13 239.35 306.98 C 244.22 306.98 249.09 307.06 253.91 307.83 C 253.47 318.93 267.79 326.26 276.22 318.92 C 277.90 318.27 279.89 317.44 280.08 315.38 C 280.98 312.68 281.73 309.95 282.40 307.20 C 283.76 307.02 286.50 306.66 287.87 306.48 M 100.95 333.05 L 101.09 334.01 C 100.90 444.33 101.01 554.66 101.04 664.98 L 101.02 665.94 C 270.36 666.05 439.71 666.02 609.05 665.95 L 608.90 664.99 C 609.11 554.67 608.99 444.34 608.96 334.02 L 608.99 333.06 C 439.64 332.95 270.29 332.98 100.95 333.05 Z" />
<path fill="#ebd1b5" opacity="1.00" d=" M 130.38 348.47 L 131.25 348.07 C 131.27 349.31 131.25 350.55 131.22 351.80 C 132.18 355.06 124.86 356.90 129.69 359.31 C 131.44 360.58 133.03 362.04 134.72 363.39 C 136.51 366.11 137.21 370.68 134.68 372.97 C 133.66 373.74 132.74 374.65 131.97 375.68 C 129.94 378.10 123.99 378.04 122.18 375.50 C 121.58 373.69 120.23 372.30 118.39 371.76 L 117.99 370.86 C 118.04 368.98 118.02 367.11 117.93 365.25 C 118.72 363.01 120.70 361.39 121.46 359.10 C 122.58 358.37 123.94 357.64 124.02 356.13 L 124.31 355.16 C 125.47 354.43 126.82 353.69 127.09 352.21 L 127.46 351.35 C 128.78 350.80 129.81 349.77 130.38 348.47 M 121.96 366.25 C 120.16 365.98 120.20 370.07 121.97 369.88 L 122.07 370.93 C 120.93 372.67 123.86 374.10 125.00 372.71 C 126.29 373.17 127.57 373.14 128.83 372.60 C 130.26 373.40 132.40 371.25 131.61 369.82 C 132.16 368.60 132.16 367.39 131.60 366.18 C 132.40 364.74 130.26 362.59 128.82 363.39 C 126.20 362.15 122.52 363.19 121.96 366.25 Z" />
<path fill="#ebd1b5" opacity="1.00" d=" M 143.21 350.22 C 146.15 347.69 150.52 347.47 153.82 349.50 C 154.38 351.30 155.73 352.69 157.58 353.17 C 157.70 353.67 157.93 354.67 158.04 355.18 C 157.97 356.38 157.97 357.58 158.05 358.79 C 158.27 360.16 157.82 361.22 156.69 361.97 C 155.52 362.57 154.13 363.21 153.97 364.71 C 153.66 365.30 153.04 366.47 152.73 367.06 C 151.04 367.71 149.14 368.60 148.95 370.66 L 148.67 371.52 C 146.50 376.84 160.70 368.85 157.98 375.94 C 154.49 373.97 139.64 380.48 142.93 372.91 C 143.27 372.44 143.95 371.50 144.29 371.03 C 145.47 370.42 146.87 369.79 147.03 368.29 C 147.34 367.72 147.96 366.58 148.27 366.01 C 149.47 365.43 150.89 364.80 151.02 363.28 C 151.39 362.77 152.15 361.75 152.52 361.25 C 153.76 360.78 154.45 359.51 154.11 358.22 C 156.12 351.42 144.55 349.47 144.65 356.83 C 139.41 359.00 140.57 352.46 143.21 350.22 Z" />
<path fill="#ebd1b5" opacity="1.00" d=" M 346.32 429.29 C 353.13 427.67 351.27 436.84 350.04 441.01 C 344.74 446.07 341.88 430.51 346.32 429.29 Z" />
<path fill="#ebd1b5" opacity="1.00" d=" M 377.01 442.94 C 380.40 443.40 385.84 444.92 386.07 449.03 C 382.82 447.64 375.93 447.98 377.01 442.94 Z" />
<path fill="#ebd1b5" opacity="1.00" d=" M 348.26 458.33 C 350.19 458.35 352.86 464.54 349.03 464.12 C 343.60 465.37 347.55 476.10 341.18 474.94 C 338.01 468.28 340.62 459.82 348.26 458.33 Z" />
<path fill="#ebd1b5" opacity="1.00" d=" M 403.76 458.08 C 409.06 456.99 418.44 463.29 414.77 469.08 C 410.97 465.53 407.93 461.23 403.76 458.08 Z" />
<path fill="#ebd1b5" opacity="1.00" d=" M 326.20 466.22 C 330.21 470.12 322.15 470.13 326.20 466.22 Z" />
<path fill="#ebd1b5" opacity="1.00" d=" M 389.17 468.07 C 391.64 467.47 393.90 468.70 395.88 470.04 C 392.16 474.49 392.00 480.80 389.72 486.07 C 384.12 482.10 388.69 473.62 389.17 468.07 Z" />
<path fill="#ebd1b5" opacity="1.00" d=" M 323.54 475.53 C 326.61 473.62 322.48 481.18 319.90 480.06 C 320.26 478.00 322.24 476.96 323.54 475.53 Z" />
<path fill="#ebd1b5" opacity="1.00" d=" M 417.22 480.12 C 424.74 480.32 416.61 487.65 416.73 491.85 C 411.35 490.80 414.33 482.74 417.22 480.12 Z" />
<path fill="#ebd1b5" opacity="1.00" d=" M 365.40 490.43 C 368.68 489.04 372.72 495.46 367.60 495.47 C 359.32 493.67 358.92 502.19 361.58 507.34 C 363.81 512.56 356.56 507.46 356.12 504.91 C 352.24 497.74 359.24 492.34 365.40 490.43 Z" />
<path fill="#ebd1b5" opacity="1.00" d=" M 296.04 494.01 C 305.06 497.36 295.85 504.63 289.94 503.95 C 290.82 499.99 295.98 498.67 296.04 494.01 Z" />
<path fill="#ebd1b5" opacity="1.00" d=" M 394.24 496.12 C 399.16 496.38 407.42 498.80 407.05 505.10 C 403.25 503.33 400.92 498.44 395.67 499.38 C 392.95 499.50 392.89 498.08 394.24 496.12 Z" />
<path fill="#ebd1b5" opacity="1.00" d=" M 379.27 519.13 C 381.90 519.48 386.12 520.49 385.95 523.80 C 380.06 526.66 373.48 531.52 374.82 539.12 C 366.43 533.43 374.91 524.72 379.27 519.13 Z" />
<path fill="#ebd1b5" opacity="1.00" d=" M 341.01 521.98 C 346.63 520.47 350.96 527.12 344.45 529.46 C 342.66 538.28 339.84 525.71 341.01 521.98 Z" />
<path fill="#ebd1b5" opacity="1.00" d=" M 305.21 523.03 C 310.62 525.63 305.13 527.08 302.00 528.09 C 303.02 526.37 304.06 524.66 305.21 523.03 Z" />
<path fill="#ebd1b5" opacity="1.00" d=" M 397.07 525.17 C 401.62 526.15 406.92 529.91 404.32 535.16 C 405.00 537.75 400.16 541.33 401.16 537.02 C 403.55 532.00 394.05 529.97 397.07 525.17 Z" />
<path fill="#ebd1b5" opacity="1.00" d=" M 298.16 527.16 C 302.80 526.15 297.15 531.80 298.16 527.16 Z" />
<path fill="#ebd1b5" opacity="1.00" d=" M 321.18 548.41 C 324.11 549.90 329.18 551.20 327.01 556.04 C 322.28 558.99 314.42 550.31 321.18 548.41 Z" />
</g>
<g id="#224559ff">
<path fill="#224559" opacity="1.00" d=" M 85.96 315.32 C 87.52 314.04 89.96 316.48 88.68 318.04 C 87.54 317.40 86.62 316.44 85.96 315.32 Z" />
<path fill="#224559" opacity="1.00" d=" M 105.32 318.04 C 104.04 316.48 106.47 314.04 108.03 315.32 C 107.38 316.44 106.46 317.40 105.32 318.04 Z" />
<path fill="#224559" opacity="1.00" d=" M 101.09 334.01 C 270.38 334.00 439.67 333.98 608.96 334.02 C 608.99 444.34 609.11 554.67 608.90 664.99 C 439.61 665.00 270.33 665.01 101.04 664.98 C 101.01 554.66 100.90 444.33 101.09 334.01 M 127.46 351.35 L 127.09 352.21 C 125.58 351.57 123.16 353.56 124.31 355.16 L 124.02 356.13 C 122.53 355.52 120.16 357.60 121.46 359.10 C 120.70 361.39 118.72 363.01 117.93 365.25 C 116.12 365.76 116.15 370.33 117.99 370.86 L 118.39 371.76 C 117.97 373.57 120.34 376.00 122.18 375.50 C 123.99 378.04 129.94 378.10 131.97 375.68 C 133.53 377.11 136.11 374.53 134.68 372.97 C 137.21 370.68 136.51 366.11 134.72 363.39 C 133.90 360.98 132.87 357.93 129.69 359.31 C 124.86 356.90 132.18 355.06 131.22 351.80 C 133.59 352.30 133.91 347.17 131.25 348.07 L 130.38 348.47 C 128.84 347.54 126.55 349.79 127.46 351.35 M 143.21 350.22 C 140.57 352.46 139.41 359.00 144.65 356.83 C 144.55 349.47 156.12 351.42 154.11 358.22 C 152.67 357.76 151.69 360.24 152.52 361.25 C 152.15 361.75 151.39 362.77 151.02 363.28 C 149.61 362.52 147.15 364.47 148.27 366.01 C 147.96 366.58 147.34 367.72 147.03 368.29 C 145.61 367.51 143.13 369.48 144.29 371.03 C 143.95 371.50 143.27 372.44 142.93 372.91 C 141.62 373.97 139.69 374.91 139.93 376.91 C 146.28 377.24 152.64 376.99 159.00 376.95 C 162.47 368.63 151.91 373.39 148.67 371.52 L 148.95 370.66 C 150.54 370.76 153.47 368.96 152.73 367.06 C 153.04 366.47 153.66 365.30 153.97 364.71 C 155.39 365.49 157.86 363.50 156.69 361.97 C 157.82 361.22 158.27 360.16 158.05 358.79 C 159.84 359.04 159.83 354.93 158.04 355.18 C 157.93 354.67 157.70 353.67 157.58 353.17 C 158.02 351.37 155.62 348.97 153.82 349.50 C 150.52 347.47 146.15 347.69 143.21 350.22 M 407.31 373.26 C 397.32 384.43 388.24 396.65 382.74 410.71 C 379.81 420.72 379.10 431.19 376.98 441.38 C 375.09 441.31 373.24 441.79 371.36 441.79 C 365.35 428.06 346.70 419.22 334.26 429.25 C 330.61 435.39 322.33 444.05 328.91 450.93 C 326.73 452.42 326.79 454.73 327.75 457.05 C 322.88 454.82 317.82 455.20 312.85 456.85 C 320.78 440.73 317.79 421.41 312.89 404.92 C 300.92 415.77 295.52 432.38 292.98 447.98 C 290.61 458.08 296.85 467.35 294.94 477.24 C 292.99 477.46 291.46 479.00 289.97 480.17 C 287.65 454.03 262.88 440.40 241.05 432.04 C 239.00 431.84 238.18 435.02 239.95 436.03 C 246.77 444.46 253.29 453.22 258.25 462.82 C 262.58 460.79 259.16 465.37 261.80 467.21 C 267.68 471.31 268.61 482.96 276.67 483.15 C 274.58 487.01 279.59 488.35 281.35 491.02 C 275.91 495.96 271.73 502.12 269.71 509.21 C 256.96 492.69 239.55 479.88 219.68 473.37 C 201.11 469.78 181.89 472.73 163.85 477.71 C 160.25 478.63 155.45 480.66 158.11 485.76 C 161.53 490.76 167.84 491.04 173.12 492.79 C 182.92 495.16 191.73 500.45 200.81 504.45 C 208.47 501.37 209.63 513.97 217.68 511.31 C 215.66 518.00 223.85 515.83 225.96 520.03 C 229.15 523.65 233.22 526.24 237.13 528.81 C 253.92 532.47 268.86 542.00 286.07 544.03 C 283.44 538.92 277.52 535.01 273.99 530.15 C 278.65 526.19 281.69 534.25 285.07 536.11 C 287.94 543.40 293.96 549.67 302.33 550.84 C 302.08 552.25 302.70 553.05 304.20 553.25 C 303.08 555.08 301.16 556.69 300.95 558.92 C 292.84 564.90 287.04 573.28 281.75 581.72 C 281.09 583.39 277.69 583.69 279.35 581.31 C 283.68 573.35 286.62 570.00 291.07 561.86 C 275.54 573.46 260.14 586.08 249.75 602.72 C 244.70 615.37 241.84 629.03 242.16 642.70 C 244.17 646.24 249.46 645.85 252.03 643.03 C 260.55 637.71 268.48 631.34 273.66 622.59 C 275.68 620.92 280.99 616.26 277.15 614.67 C 287.55 603.06 289.33 587.14 291.23 572.31 C 294.70 572.60 296.75 570.33 296.22 566.90 C 299.69 568.29 296.18 571.62 295.91 574.04 C 299.62 574.25 299.78 569.24 301.13 566.72 C 306.09 585.34 336.85 589.50 343.82 569.93 C 341.59 564.24 347.31 565.12 349.94 563.03 C 355.93 583.47 370.81 601.72 390.00 610.99 C 399.20 607.87 391.45 595.25 392.76 588.07 C 391.68 570.69 375.05 561.85 366.13 548.83 C 367.05 549.27 368.01 549.63 369.00 549.90 C 378.49 559.98 389.91 570.77 404.94 570.16 C 413.08 569.74 418.67 576.75 426.05 578.05 C 423.07 565.56 416.59 552.10 404.62 546.18 C 406.43 544.29 408.18 542.26 409.17 539.80 C 414.39 545.60 421.69 548.82 428.31 552.67 C 450.25 560.55 473.61 551.56 496.01 555.97 C 507.40 560.39 517.91 567.52 529.97 570.11 C 525.45 544.31 517.35 514.07 491.71 501.47 C 473.76 488.51 449.89 490.51 428.86 491.84 C 429.25 488.58 429.22 485.11 427.88 482.09 C 429.54 481.69 431.25 481.32 432.88 482.13 C 465.39 486.78 500.51 486.23 530.96 471.85 C 549.11 465.47 561.24 450.13 572.38 435.35 C 576.02 429.48 587.33 428.17 583.90 419.25 C 578.43 416.95 572.58 415.72 566.87 414.20 C 546.25 414.40 523.88 418.49 508.78 433.79 C 495.56 447.65 478.41 456.07 460.66 462.59 C 447.99 466.43 434.43 465.73 421.83 469.82 C 422.13 468.32 422.12 466.76 421.81 465.28 C 428.70 464.30 435.71 463.59 442.37 461.46 C 445.15 461.28 445.88 457.52 448.91 458.72 C 470.43 451.91 488.86 437.47 502.64 419.67 C 504.65 416.94 506.09 409.13 499.41 413.53 C 462.13 420.96 419.00 419.68 389.27 447.06 C 388.57 445.64 386.99 444.99 385.80 444.06 C 389.39 438.61 393.35 433.41 396.93 427.96 C 409.13 411.68 412.27 391.44 414.97 371.89 C 412.32 372.23 410.11 374.00 407.31 373.26 M 213.40 538.54 C 200.48 540.60 187.03 543.04 175.69 549.67 C 163.77 553.64 152.27 558.40 141.28 564.28 C 137.10 570.64 143.55 575.46 149.56 575.71 C 150.72 579.66 155.80 575.05 155.33 579.82 C 168.06 587.05 183.13 588.89 197.08 592.82 C 217.99 597.64 239.41 590.25 258.66 582.64 C 267.28 572.85 277.06 564.26 287.15 556.08 C 276.71 556.56 267.88 563.47 257.93 565.01 C 259.84 557.55 271.24 559.17 275.42 553.42 C 276.59 551.07 281.80 552.79 280.91 549.19 C 258.74 544.30 236.59 535.91 213.40 538.54 M 295.38 581.38 C 293.26 583.81 293.99 587.27 293.99 590.23 C 296.17 589.05 296.68 579.88 295.38 581.38 Z" />
<path fill="#224559" opacity="1.00" d=" M 121.96 366.25 C 122.52 363.19 126.20 362.15 128.82 363.39 C 129.09 364.82 130.17 365.90 131.60 366.18 C 132.16 367.39 132.16 368.60 131.61 369.82 C 130.17 370.09 129.09 371.17 128.83 372.60 C 127.57 373.14 126.29 373.17 125.00 372.71 C 124.10 371.98 123.11 371.39 122.07 370.93 L 121.97 369.88 C 122.03 368.66 122.03 367.45 121.96 366.25 Z" />
<path fill="#224559" opacity="1.00" d=" M 410.23 434.26 C 415.63 432.05 409.85 439.14 410.23 434.26 Z" />
<path fill="#224559" opacity="1.00" d=" M 405.34 437.42 C 409.71 438.86 402.42 442.40 399.96 443.11 C 399.89 440.10 403.52 439.27 405.34 437.42 Z" />
<path fill="#224559" opacity="1.00" d=" M 390.99 455.91 C 406.85 449.10 422.57 440.44 439.79 438.36 C 442.21 440.65 447.44 435.58 445.80 440.62 C 433.30 445.31 420.15 447.47 407.75 452.42 C 403.98 453.30 400.25 454.37 396.54 455.48 C 395.07 458.60 392.02 464.14 387.96 461.00 C 388.75 459.18 389.82 457.50 390.99 455.91 Z" />
<path fill="#224559" opacity="1.00" d=" M 543.23 454.18 C 546.70 452.69 544.93 459.25 541.98 458.05 C 542.01 456.64 541.70 454.92 543.23 454.18 Z" />
<path fill="#224559" opacity="1.00" d=" M 303.05 463.05 C 302.36 461.49 303.97 459.07 305.43 460.91 C 304.81 461.82 304.02 462.53 303.05 463.05 Z" />
<path fill="#224559" opacity="1.00" d=" M 537.22 460.16 C 543.00 461.41 537.62 466.25 533.84 466.92 C 533.92 464.29 535.25 461.86 537.22 460.16 Z" />
<path fill="#224559" opacity="1.00" d=" M 521.97 466.35 C 523.93 466.21 527.66 465.70 526.92 468.83 C 524.84 470.38 521.06 469.45 521.97 466.35 Z" />
<path fill="#224559" opacity="1.00" d=" M 519.26 467.37 C 523.95 468.62 515.05 473.81 513.21 473.89 C 509.16 469.97 516.39 468.38 519.26 467.37 Z" />
<path fill="#224559" opacity="1.00" d=" M 506.19 471.34 C 510.60 471.76 505.29 475.99 506.19 471.34 Z" />
<path fill="#224559" opacity="1.00" d=" M 421.98 472.98 C 424.78 473.19 427.37 473.72 430.20 474.16 C 428.84 477.35 421.90 476.12 421.98 472.98 Z" />
<path fill="#224559" opacity="1.00" d=" M 433.20 473.11 C 434.41 473.29 438.29 473.62 436.26 475.33 C 435.01 477.43 430.04 474.84 433.20 473.11 Z" />
<path fill="#224559" opacity="1.00" d=" M 446.21 473.20 C 449.88 475.95 442.62 476.12 446.21 473.20 Z" />
<path fill="#224559" opacity="1.00" d=" M 459.20 499.28 C 464.50 498.01 459.05 504.14 459.20 499.28 Z" />
<path fill="#224559" opacity="1.00" d=" M 471.20 501.28 C 476.50 500.01 471.05 506.14 471.20 501.28 Z" />
<path fill="#224559" opacity="1.00" d=" M 477.95 502.95 C 482.47 503.00 486.01 506.62 490.67 506.39 C 495.42 509.84 499.56 514.44 503.08 519.08 C 498.37 518.03 493.16 515.86 493.74 510.06 C 490.84 510.74 487.58 510.99 485.27 508.72 C 483.08 506.38 477.70 507.28 477.95 502.95 Z" />
<path fill="#224559" opacity="1.00" d=" M 227.00 509.97 C 230.67 509.66 235.28 512.50 236.06 516.09 C 232.23 513.58 226.43 516.25 227.00 509.97 Z" />
<path fill="#224559" opacity="1.00" d=" M 260.20 511.28 C 265.50 510.01 260.05 516.14 260.20 511.28 Z" />
<path fill="#224559" opacity="1.00" d=" M 265.96 517.98 C 270.46 517.17 277.37 527.25 269.38 525.88 C 269.10 522.78 265.46 521.22 265.96 517.98 Z" />
<path fill="#224559" opacity="1.00" d=" M 232.20 545.28 C 237.50 544.01 232.05 550.14 232.20 545.28 Z" />
<path fill="#224559" opacity="1.00" d=" M 439.26 546.26 C 445.24 545.67 438.67 552.24 439.26 546.26 Z" />
<path fill="#224559" opacity="1.00" d=" M 447.24 547.14 C 451.10 545.07 455.77 555.28 447.40 550.58 C 444.01 550.53 445.48 548.60 447.24 547.14 Z" />
<path fill="#224559" opacity="1.00" d=" M 458.58 547.41 C 470.26 544.80 481.02 548.37 492.13 550.17 C 487.97 554.76 480.21 550.60 475.07 549.87 C 468.08 548.77 460.86 550.55 453.86 551.04 C 455.37 549.76 457.54 549.36 458.58 547.41 Z" />
<path fill="#224559" opacity="1.00" d=" M 356.24 553.32 C 356.16 551.96 356.74 550.66 357.87 549.90 C 358.55 551.33 358.05 553.25 356.24 553.32 Z" />
<path fill="#224559" opacity="1.00" d=" M 359.29 571.32 C 361.79 570.08 362.70 573.74 361.45 575.37 C 360.00 580.62 354.53 571.02 359.29 571.32 Z" />
</g>
<g id="#a1394bff">
<path fill="#a1394b" opacity="1.00" d=" M 334.26 429.25 C 346.70 419.22 365.35 428.06 371.36 441.79 C 373.24 441.79 375.09 441.31 376.98 441.38 C 380.28 440.85 383.26 441.98 385.80 444.06 C 386.99 444.99 388.57 445.64 389.27 447.06 C 390.48 449.87 390.81 452.84 390.99 455.91 C 389.82 457.50 388.75 459.18 387.96 461.00 C 392.02 464.14 395.07 458.60 396.54 455.48 C 400.25 454.37 403.98 453.30 407.75 452.42 C 413.87 454.61 421.08 457.96 421.81 465.28 C 422.12 466.76 422.13 468.32 421.83 469.82 C 421.02 471.84 420.14 473.85 419.37 475.90 C 422.38 477.70 425.66 479.26 427.88 482.09 C 429.22 485.11 429.25 488.58 428.86 491.84 C 427.44 497.31 422.96 500.75 417.87 502.82 C 412.49 504.30 415.01 511.03 413.14 515.13 C 412.27 519.59 408.48 522.88 407.05 526.87 C 410.38 530.35 410.46 535.37 409.17 539.80 C 408.18 542.26 406.43 544.29 404.62 546.18 C 400.04 547.33 395.70 544.09 391.43 544.38 C 385.76 550.77 376.89 551.23 369.00 549.90 C 368.01 549.63 367.05 549.27 366.13 548.83 C 363.06 546.21 359.01 544.87 357.87 549.90 C 356.74 550.66 356.16 551.96 356.24 553.32 C 354.54 556.78 352.87 560.41 349.94 563.03 C 347.31 565.12 341.59 564.24 343.82 569.93 C 336.85 589.50 306.09 585.34 301.13 566.72 C 301.04 564.10 300.98 561.50 300.95 558.92 C 301.16 556.69 303.08 555.08 304.20 553.25 C 305.66 551.97 303.51 550.84 302.33 550.84 C 293.96 549.67 287.94 543.40 285.07 536.11 C 284.92 524.41 269.94 521.16 269.71 509.21 C 271.73 502.12 275.91 495.96 281.35 491.02 C 286.12 489.02 287.56 484.26 289.97 480.17 C 291.46 479.00 292.99 477.46 294.94 477.24 C 301.97 478.12 297.74 466.28 303.05 463.05 C 304.02 462.53 304.81 461.82 305.43 460.91 C 307.63 459.13 309.98 457.33 312.85 456.85 C 317.82 455.20 322.88 454.82 327.75 457.05 C 326.79 454.73 326.73 452.42 328.91 450.93 C 322.33 444.05 330.61 435.39 334.26 429.25 M 346.32 429.29 C 341.88 430.51 344.74 446.07 350.04 441.01 C 351.27 436.84 353.13 427.67 346.32 429.29 M 377.01 442.94 C 375.93 447.98 382.82 447.64 386.07 449.03 C 385.84 444.92 380.40 443.40 377.01 442.94 M 348.26 458.33 C 340.62 459.82 338.01 468.28 341.18 474.94 C 347.55 476.10 343.60 465.37 349.03 464.12 C 352.86 464.54 350.19 458.35 348.26 458.33 M 403.76 458.08 C 407.93 461.23 410.97 465.53 414.77 469.08 C 418.44 463.29 409.06 456.99 403.76 458.08 M 326.20 466.22 C 322.15 470.13 330.21 470.12 326.20 466.22 M 389.17 468.07 C 388.69 473.62 384.12 482.10 389.72 486.07 C 392.00 480.80 392.16 474.49 395.88 470.04 C 393.90 468.70 391.64 467.47 389.17 468.07 M 323.54 475.53 C 322.24 476.96 320.26 478.00 319.90 480.06 C 322.48 481.18 326.61 473.62 323.54 475.53 M 417.22 480.12 C 414.33 482.74 411.35 490.80 416.73 491.85 C 416.61 487.65 424.74 480.32 417.22 480.12 M 365.40 490.43 C 359.24 492.34 352.24 497.74 356.12 504.91 C 356.56 507.46 363.81 512.56 361.58 507.34 C 358.92 502.19 359.32 493.67 367.60 495.47 C 372.72 495.46 368.68 489.04 365.40 490.43 M 296.04 494.01 C 295.98 498.67 290.82 499.99 289.94 503.95 C 295.85 504.63 305.06 497.36 296.04 494.01 M 394.24 496.12 C 392.89 498.08 392.95 499.50 395.67 499.38 C 400.92 498.44 403.25 503.33 407.05 505.10 C 407.42 498.80 399.16 496.38 394.24 496.12 M 379.27 519.13 C 374.91 524.72 366.43 533.43 374.82 539.12 C 373.48 531.52 380.06 526.66 385.95 523.80 C 386.12 520.49 381.90 519.48 379.27 519.13 M 341.01 521.98 C 339.84 525.71 342.66 538.28 344.45 529.46 C 350.96 527.12 346.63 520.47 341.01 521.98 M 305.21 523.03 C 304.06 524.66 303.02 526.37 302.00 528.09 C 305.13 527.08 310.62 525.63 305.21 523.03 M 397.07 525.17 C 394.05 529.97 403.55 532.00 401.16 537.02 C 400.16 541.33 405.00 537.75 404.32 535.16 C 406.92 529.91 401.62 526.15 397.07 525.17 M 298.16 527.16 C 297.15 531.80 302.80 526.15 298.16 527.16 M 321.18 548.41 C 314.42 550.31 322.28 558.99 327.01 556.04 C 329.18 551.20 324.11 549.90 321.18 548.41 Z" />
</g>
</svg>
